<svg xmlns="http://www.w3.org/2000/svg" width="750" height="750" viewBox="0 0 750 750"><style>.a{opacity:0.05;}.b{fill:#FFF;}.c{opacity:0.3;}</style><rect y="-0.6" width="750" height="750.6" fill="#3C204C"/><g class="a"><path d="M152.7 23.9c1.1-15.1 19.3-22.8 21.3-23.9 0 0-37.2-1.5-35.4-0.1C144.2 4.1 153.5 12.7 152.7 23.9" class="b"/><defs><filter filterUnits="userSpaceOnUse" x="211.1" y="214.6" width="47.1" height="36.8"><feColorMatrix type="matrix" values="1 0 0 0 0  0 1 0 0 0  0 0 1 0 0  0 0 0 1 0"/></filter></defs><mask maskUnits="userSpaceOnUse" x="211.1" y="214.6" width="47.1" height="36.8"><g filter="url(#Adobe_OpacityMaskFilter)"><polygon points="211.1 214.6 258.2 214.6 258.2 251.4 211.1 251.4 " class="b"/></g></mask><path mask="url(#mask-2_5_)" d="M230.6 251.4c0.8-5 7-7.1 7.8-7.4l15.4-6.4c0.8-0.3 1.4-0.9 1.8-1.6 0.4-0.7 0.7-1.5 0.8-2.6l1.8-12.1 -20.9 9.8c-1.6 0.7-2.9 1.7-4 2.9l-0.2 0c-0.7-1.4-1.7-2.7-2.9-3.9l-17.1-15.5 -1.8 12.1c-0.2 1-0.1 1.9 0 2.7 0.2 0.8 0.6 1.5 1.3 2l12.8 10.6C225.9 242.6 231.3 246.4 230.6 251.4" class="b"/><path d="M23.6 174.3c-0.3-3.8 3.9-6.5 4.4-6.8l10.2-7.4c0.5-0.4 0.9-0.9 1.1-1.5 0.2-0.6 0.2-1.3 0.2-2l-0.8-9.3 -13.7 10.9c-1 0.8-1.8 1.8-2.4 2.8l-0.1 0c-0.8-0.9-1.7-1.7-2.9-2.4l-15.4-8.4 0.8 9.3c0.1 0.8 0.2 1.4 0.5 2 0.3 0.5 0.7 1 1.3 1.3l11.3 5.6C18.6 168.6 23.2 170.4 23.6 174.3" class="b"/></g><g class="c"><path d="M304.7 543.1c3.8-8.2-3.5-17.5-4.3-18.6l-16.6-24.6c-0.9-1.3-1.3-2.7-1.2-4.1 0.1-1.4 0.5-3 1.3-4.6l9.2-19.9 21.6 35.2c1.6 2.7 2.7 5.4 3.1 8.2l0.3 0.1c2.4-1.5 5.2-2.4 8.2-2.9l40.8-6.2 -9.2 19.9c-0.8 1.7-1.7 3-2.7 4 -1 1-2.4 1.6-3.9 1.8l-29.5 3.2C320.3 534.5 308.5 534.9 304.7 543.1" class="b"/><path d="M159 495.8c0.5-3-2.6-5.4-3-5.7l-7.5-6.6c-0.4-0.4-0.6-0.8-0.7-1.2 -0.1-0.5-0.1-1 0-1.6l1.3-7.2 10 9.6c0.7 0.7 1.3 1.5 1.7 2.4l0.1 0c0.7-0.7 1.5-1.2 2.4-1.6l12.7-5.5 -1.3 7.2c-0.1 0.6-0.3 1.1-0.5 1.5 -0.3 0.4-0.6 0.7-1.1 0.9l-9.3 3.5C163.3 491.6 159.5 492.8 159 495.8" class="b"/><path d="M511.1 405.1c-0.9-4.2-6.4-5.6-7-5.8l-13.3-4.5c-0.7-0.2-1.2-0.7-1.6-1.2 -0.4-0.6-0.7-1.3-0.8-2.1l-2.2-10.1 18.2 7.1c1.4 0.5 2.5 1.3 3.5 2.2l0.1 0c0.5-1.2 1.2-2.4 2.3-3.5l13.6-14.1 2.2 10.1c0.2 0.8 0.2 1.6 0.1 2.3 -0.1 0.7-0.4 1.3-1 1.8l-10.2 9.7C514.5 397.3 510.1 400.9 511.1 405.1" class="b"/><path d="M369.9 377.3c-0.2-13.5-16-21.3-17.8-22.3l-38.2-22.4c-2-1.2-3.4-2.8-4.2-4.8 -0.8-2-1.2-4.3-1.3-7l-0.4-32.6 51.7 33.4c3.9 2.5 7 5.5 9.4 9l0.4 0c2.3-3.5 5.4-6.6 9.2-9.2l50.8-34.7 0.4 32.7c0 2.7-0.3 5.1-1.1 7.1 -0.8 2-2.1 3.6-4.1 4.9l-37.6 23.3C385.4 355.7 369.8 363.8 369.9 377.3" class="b"/><path d="M469.3 561.5c-1.5-13.8 13.8-23.7 15.4-25l36.4-27.6c1.9-1.5 3.2-3.3 3.8-5.4 0.6-2.1 0.7-4.6 0.4-7.4l-3.6-33.5 -48.8 40.5c-3.7 3.1-6.5 6.5-8.5 10.3l-0.4 0c-2.8-3.3-6.3-6.1-10.5-8.3l-56.3-29.3 3.6 33.5c0.3 2.8 1 5.2 2 7.1 1 1.9 2.6 3.4 4.8 4.5l41.4 19.3C450.8 541.2 467.8 547.6 469.3 561.5" class="b"/><path d="M633.4 355.8c1-13.9 17.7-20.9 19.6-21.9l40.6-20.8c2.1-1.1 3.7-2.7 4.6-4.7 1-2 1.5-4.4 1.7-7.2l2.3-33.6 -55.2 31.4c-4.1 2.4-7.6 5.3-10.2 8.7l-0.4 0c-2.2-3.8-5.1-7.1-8.9-10l-50.3-38.7 -2.3 33.6c-0.2 2.8 0 5.2 0.7 7.3 0.7 2.1 2 3.9 4 5.3l37.4 26.2C618.7 332.6 634.3 341.9 633.4 355.8" class="b"/><defs><filter filterUnits="userSpaceOnUse" x="687" y="530.9" width="43.2" height="33.8"><feColorMatrix type="matrix" values="1 0 0 0 0  0 1 0 0 0  0 0 1 0 0  0 0 0 1 0"/></filter></defs><mask maskUnits="userSpaceOnUse" x="687" y="530.9" width="43.2" height="33.8"><g filter="url(#Adobe_OpacityMaskFilter_1_)"><polygon points="687 530.9 730.2 530.9 730.2 564.7 687 564.7 " class="b"/></g></mask><path mask="url(#SVGID_1_)" d="M704.9 564.7c0.7-4.6 6.5-6.5 7.1-6.8l14.1-5.9c0.7-0.3 1.3-0.8 1.7-1.4 0.4-0.6 0.6-1.4 0.8-2.3l1.7-11.1 -19.2 9c-1.4 0.7-2.7 1.6-3.6 2.6l-0.1 0c-0.6-1.3-1.5-2.5-2.7-3.6l-15.7-14.2 -1.7 11.1c-0.1 0.9-0.1 1.8 0 2.5 0.2 0.7 0.6 1.3 1.2 1.9l11.8 9.7C700.6 556.6 705.6 560.1 704.9 564.7" class="b"/><path d="M237.3 258.4c3.4-5.6 12-5 13-5l21.6 0c1.1 0 2.1-0.3 3-1 0.8-0.6 1.6-1.5 2.3-2.6l8.3-13.6 -30 1.3c-2.3 0.1-4.3 0.6-6.2 1.4l-0.2-0.1c-0.1-2.1-0.6-4.1-1.6-6.2l-12.8-27.2 -8.3 13.6c-0.7 1.1-1.1 2.2-1.3 3.3 -0.2 1 0 2.1 0.5 3.1l10.1 19.1C236.1 245.4 240.7 252.7 237.3 258.4" class="b"/><defs><filter filterUnits="userSpaceOnUse" x="395.9" y="126.3" width="194.9" height="161.6"><feColorMatrix type="matrix" values="1 0 0 0 0  0 1 0 0 0  0 0 1 0 0  0 0 0 1 0"/></filter></defs><mask maskUnits="userSpaceOnUse" x="395.9" y="126.3" width="194.9" height="161.6"><g filter="url(#Adobe_OpacityMaskFilter_2_)"><polygon points="395.9 126.3 590.8 126.3 590.8 287.8 395.9 287.8 " class="b"/></g></mask><path mask="url(#SVGID_2_)" d="M456.5 287.8c6.9-19.6 33.8-23 36.9-23.7l66.7-13.7c3.5-0.8 6.4-2.4 8.6-4.9 2.2-2.5 3.9-5.7 5.3-9.6l16.8-47.3 -91.8 23c-6.9 1.7-13 4.5-18.2 8.4l-0.6-0.2c-1.6-6.3-4.5-12.3-8.8-18l-56.8-75.7 -16.8 47.3c-1.4 3.9-2 7.6-1.9 10.8 0.1 3.3 1.3 6.3 3.6 9.2l43.3 52.6C444.7 248.7 463.4 268.3 456.5 287.8" class="b"/><path d="M207.7 365.7c12.3-9.5 30.5-0.7 32.7 0.1l47.4 18.5c2.5 0.9 5 1.1 7.3 0.4 2.4-0.7 4.8-2 7.3-3.9l29.7-22.9 -66.9-22.8c-5-1.7-10-2.4-14.8-2.1l-0.3-0.4c1.5-4.6 2.1-9.5 1.8-14.8l-4.9-70.5 -29.7 22.9c-2.5 1.9-4.3 3.9-5.6 6 -1.2 2.1-1.7 4.5-1.5 7.2l5.8 50.5C216.2 336.3 220 356.2 207.7 365.7" class="b"/><path d="M76.4 460c1-2.2-0.9-4.6-1.1-4.9l-4.4-6.5c-0.2-0.3-0.3-0.7-0.3-1.1 0-0.4 0.1-0.8 0.3-1.2l2.4-5.3 5.7 9.3c0.4 0.7 0.7 1.4 0.8 2.2l0.1 0c0.6-0.4 1.4-0.6 2.2-0.8l10.8-1.7 -2.4 5.3c-0.2 0.4-0.4 0.8-0.7 1.1 -0.3 0.3-0.6 0.4-1 0.5l-7.8 0.8C80.5 457.7 77.4 457.8 76.4 460" class="b"/><path d="M37.8 447.4c0.1-0.8-0.7-1.4-0.8-1.5l-2-1.7c-0.1-0.1-0.2-0.2-0.2-0.3 0-0.1 0-0.3 0-0.4l0.3-1.9 2.6 2.5c0.2 0.2 0.3 0.4 0.4 0.6l0 0c0.2-0.2 0.4-0.3 0.6-0.4l3.4-1.4 -0.3 1.9c0 0.2-0.1 0.3-0.1 0.4 -0.1 0.1-0.2 0.2-0.3 0.2l-2.5 0.9C38.9 446.3 37.9 446.6 37.8 447.4" class="b"/><path d="M131 423.4c-0.2-1.1-1.7-1.5-1.8-1.5l-3.5-1.2c-0.2-0.1-0.3-0.2-0.4-0.3 -0.1-0.1-0.2-0.3-0.2-0.6l-0.6-2.7 4.8 1.9c0.4 0.1 0.7 0.3 0.9 0.6l0 0c0.1-0.3 0.3-0.6 0.6-0.9l3.6-3.7 0.6 2.7c0 0.2 0.1 0.4 0 0.6 0 0.2-0.1 0.3-0.3 0.5l-2.7 2.6C131.9 421.4 130.8 422.3 131 423.4" class="b"/><path d="M93.6 416.1c0-3.6-4.2-5.6-4.7-5.9l-10.1-5.9c-0.5-0.3-0.9-0.7-1.1-1.3 -0.2-0.5-0.3-1.1-0.3-1.9l-0.1-8.6 13.7 8.8c1 0.7 1.9 1.5 2.5 2.4l0.1 0c0.6-0.9 1.4-1.7 2.4-2.4l13.5-9.2 0.1 8.6c0 0.7-0.1 1.3-0.3 1.9 -0.2 0.5-0.6 1-1.1 1.3l-10 6.2C97.7 410.3 93.6 412.5 93.6 416.1" class="b"/><path d="M119.9 464.8c-0.4-3.7 3.7-6.3 4.1-6.6l9.6-7.3c0.5-0.4 0.8-0.9 1-1.4 0.2-0.6 0.2-1.2 0.1-1.9l-1-8.9 -12.9 10.7c-1 0.8-1.7 1.7-2.3 2.7l-0.1 0c-0.7-0.9-1.7-1.6-2.8-2.2l-14.9-7.7 1 8.9c0.1 0.7 0.3 1.4 0.5 1.9 0.3 0.5 0.7 0.9 1.3 1.2l11 5.1C115 459.5 119.6 461.2 119.9 464.8" class="b"/><path d="M182.3 465.7c0.2-1.2 1.7-1.7 1.9-1.8l3.7-1.5c0.2-0.1 0.3-0.2 0.4-0.4 0.1-0.2 0.2-0.4 0.2-0.6l0.4-2.9 -5.1 2.4c-0.4 0.2-0.7 0.4-1 0.7l0 0c-0.2-0.3-0.4-0.7-0.7-0.9l-4.2-3.8 -0.4 2.9c0 0.2 0 0.5 0 0.7 0 0.2 0.1 0.4 0.3 0.5l3.1 2.6C181.2 463.5 182.5 464.5 182.3 465.7" class="b"/><path d="M58.5 384.6c0.9-1.5 3.2-1.3 3.4-1.3l5.7 0c0.3 0 0.6-0.1 0.8-0.3 0.2-0.2 0.4-0.4 0.6-0.7l2.2-3.6 -8 0.3c-0.6 0-1.1 0.2-1.6 0.4l0 0c0-0.5-0.2-1.1-0.4-1.6l-3.4-7.2 -2.2 3.6c-0.2 0.3-0.3 0.6-0.3 0.9 0 0.3 0 0.5 0.1 0.8l2.7 5.1C58.2 381.1 59.4 383.1 58.5 384.6" class="b"/><path d="M116.5 392.4c1.8-5.2 9-6.1 9.8-6.3l17.7-3.6c0.9-0.2 1.7-0.6 2.3-1.3 0.6-0.7 1-1.5 1.4-2.5l4.4-12.5 -24.3 6.1c-1.8 0.5-3.4 1.2-4.8 2.2l-0.2-0.1c-0.4-1.7-1.2-3.2-2.3-4.8l-15-20 -4.4 12.5c-0.4 1-0.5 2-0.5 2.9 0 0.9 0.4 1.7 0.9 2.4l11.5 13.9C113.4 382 118.4 387.2 116.5 392.4" class="b"/><path d="M276 498.6c1.4-6.7-5.7-12.3-6.4-13l-16.6-15.2c-0.9-0.8-1.4-1.8-1.6-2.8 -0.2-1.1-0.2-2.3 0.1-3.6l3.3-16.3 22.1 22.1c1.7 1.7 2.9 3.5 3.7 5.5l0.2 0c1.5-1.5 3.4-2.7 5.6-3.6l29-11.8 -3.3 16.3c-0.3 1.4-0.7 2.5-1.3 3.4 -0.6 0.9-1.5 1.6-2.6 2l-21.2 7.6C286 489.5 277.4 491.8 276 498.6" class="b"/><path d="M100.1 539.3c-0.1-2.3-2.9-3.5-3.2-3.7l-6.7-3.5c-0.3-0.2-0.6-0.5-0.8-0.8 -0.2-0.3-0.2-0.7-0.3-1.2l-0.3-5.5 9 5.3c0.7 0.4 1.2 0.9 1.7 1.5l0.1 0c0.4-0.6 0.9-1.2 1.5-1.6l8.4-6.3 0.3 5.5c0 0.5 0 0.9-0.1 1.2 -0.1 0.3-0.3 0.6-0.7 0.9l-6.2 4.2C102.6 535.5 100 537 100.1 539.3" class="b"/><path d="M343.7 410.3c-1.4-2.9-5.7-3-6.2-3l-10.6-1c-0.6-0.1-1-0.3-1.4-0.6 -0.4-0.3-0.7-0.8-1-1.4l-3.4-7.1 14.7 2c1.1 0.2 2.1 0.5 3 1l0.1 0c0.1-1 0.5-2 1.1-2.9l7.5-12.8 3.4 7.1c0.3 0.6 0.4 1.1 0.5 1.7 0 0.5-0.1 1-0.4 1.5l-5.8 8.9C344.8 404 342.3 407.4 343.7 410.3" class="b"/><path d="M340.5 533c-3.5-9.9 6-19.9 7-21.2l21.9-26.8c1.1-1.4 1.8-3 1.8-4.7 0.1-1.7-0.3-3.5-1-5.5l-8.6-24 -28.8 38.5c-2.2 2.9-3.7 5.9-4.5 9.1l-0.3 0.1c-2.6-2-5.7-3.4-9.2-4.3l-46.7-11.7 8.6 24.1c0.7 2 1.6 3.6 2.7 4.9 1.1 1.3 2.6 2.1 4.3 2.5l33.9 6.9C323.3 521.3 337 523.1 340.5 533" class="b"/><path d="M514.7 493.9c-0.3-3.5 3.6-5.9 4-6.3l9.4-6.8c0.5-0.4 0.8-0.8 1-1.4 0.2-0.5 0.2-1.2 0.1-1.9l-0.7-8.5 -12.6 10c-0.9 0.8-1.7 1.6-2.2 2.6l-0.1 0c-0.7-0.9-1.6-1.6-2.6-2.2l-14.1-7.7 0.7 8.5c0.1 0.7 0.2 1.3 0.5 1.8 0.3 0.5 0.7 0.9 1.2 1.2l10.4 5.1C510.2 488.6 514.4 490.3 514.7 493.9" class="b"/><path d="M116 350.5c1.5-4.8 8-5.8 8.7-6l16-3.8c0.8-0.2 1.5-0.6 2-1.2 0.5-0.6 0.9-1.4 1.2-2.4l3.7-11.5 -21.9 6.2c-1.6 0.5-3.1 1.2-4.3 2.2l-0.2 0c-0.4-1.5-1.2-2.9-2.3-4.3l-14.2-17.8 -3.7 11.5c-0.3 1-0.4 1.8-0.4 2.6 0.1 0.8 0.4 1.5 0.9 2.2l10.8 12.3C112.8 341.1 117.5 345.7 116 350.5" class="b"/><path d="M42.3 344.7c1.7-15.7 20.9-22.9 23-24l46.8-21.8c2.5-1.2 4.3-2.9 5.4-5.1 1.2-2.2 1.9-4.9 2.2-8l4-37.9 -63.6 33.2c-4.8 2.5-8.8 5.6-11.9 9.4l-0.5-0.1c-2.3-4.3-5.5-8.2-9.7-11.7L0 247.2l0 50.5L24.8 316.5C26.7 317.9 44 329.1 42.3 344.7" class="b"/><path d="M96 644.2c2-4.4-1.9-9.4-2.3-10l-8.9-13.2c-0.5-0.7-0.7-1.4-0.6-2.2 0-0.8 0.3-1.6 0.7-2.5l4.9-10.6 11.6 18.9c0.9 1.4 1.4 2.9 1.7 4.4l0.1 0.1c1.3-0.8 2.8-1.3 4.4-1.6l21.9-3.3 -4.9 10.6c-0.4 0.9-0.9 1.6-1.5 2.1 -0.6 0.5-1.3 0.8-2.1 0.9l-15.8 1.7C104.4 639.6 98 639.8 96 644.2" class="b"/><path d="M15.8 624.9c0.3-1.6-1.4-2.9-1.6-3l-4-3.5c-0.2-0.2-0.3-0.4-0.4-0.7 -0.1-0.3 0-0.5 0-0.9l0.7-3.9 5.3 5.1c0.4 0.4 0.7 0.8 0.9 1.3l0.1 0c0.4-0.4 0.8-0.7 1.3-0.9l6.8-2.9 -0.7 3.9c-0.1 0.3-0.2 0.6-0.3 0.8 -0.1 0.2-0.3 0.4-0.6 0.5l-5 1.9C18.2 622.7 16.1 623.3 15.8 624.9" class="b"/><path d="M206.6 570.2c-0.5-2.2-3.4-3-3.7-3.1l-7.1-2.4c-0.4-0.1-0.7-0.3-0.9-0.6 -0.2-0.3-0.4-0.7-0.5-1.1l-1.2-5.4 9.8 3.8c0.7 0.3 1.4 0.7 1.9 1.2l0.1 0c0.3-0.7 0.7-1.3 1.2-1.9l7.3-7.5 1.2 5.4c0.1 0.5 0.1 0.9 0.1 1.2 -0.1 0.4-0.2 0.7-0.5 1l-5.5 5.2C208.5 566.1 206.1 568 206.6 570.2" class="b"/><path d="M130.9 555.3c-0.1-7.2-8.6-11.4-9.5-12l-20.5-12c-1.1-0.7-1.8-1.5-2.3-2.6 -0.4-1.1-0.7-2.3-0.7-3.8l-0.2-17.5 27.7 17.9c2.1 1.3 3.8 3 5 4.8l0.2 0c1.2-1.9 2.9-3.5 4.9-4.9l27.3-18.6 0.2 17.5c0 1.5-0.2 2.7-0.6 3.8 -0.4 1.1-1.1 1.9-2.2 2.6l-20.2 12.5C139.2 543.7 130.9 548.1 130.9 555.3" class="b"/><path d="M184.2 654.1c-0.8-7.4 7.4-12.7 8.3-13.4l19.5-14.8c1-0.8 1.7-1.8 2-2.9 0.3-1.1 0.4-2.5 0.2-3.9l-1.9-17.9 -26.2 21.7c-2 1.6-3.5 3.5-4.6 5.6l-0.2 0c-1.5-1.8-3.4-3.3-5.7-4.5l-30.2-15.7 1.9 18c0.2 1.5 0.5 2.8 1.1 3.8 0.6 1 1.4 1.9 2.6 2.4l22.2 10.3C174.3 643.2 183.5 646.7 184.2 654.1" class="b"/><path d="M310.6 655.8c0.4-2.5 3.5-3.5 3.8-3.6l7.6-3.1c0.4-0.2 0.7-0.4 0.9-0.8 0.2-0.3 0.3-0.8 0.4-1.3l0.9-6 -10.3 4.8c-0.8 0.4-1.4 0.8-1.9 1.4l-0.1 0c-0.3-0.7-0.8-1.3-1.4-1.9l-8.4-7.6 -0.9 6c-0.1 0.5-0.1 0.9 0 1.3 0.1 0.4 0.3 0.7 0.6 1l6.3 5.2C308.3 651.5 310.9 653.4 310.6 655.8" class="b"/><path d="M59.8 491.6c1.8-3 6.4-2.7 7-2.7l11.6 0c0.6 0 1.1-0.2 1.6-0.5 0.4-0.3 0.9-0.8 1.2-1.4l4.4-7.3 -16.1 0.7c-1.2 0.1-2.3 0.3-3.3 0.8l-0.1-0.1c-0.1-1.1-0.3-2.2-0.9-3.3l-6.9-14.6 -4.4 7.3c-0.4 0.6-0.6 1.2-0.7 1.7 -0.1 0.6 0 1.1 0.3 1.7l5.4 10.3C59.2 484.6 61.6 488.5 59.8 491.6" class="b"/><path d="M177.4 507.4c3.7-10.5 18.2-12.3 19.8-12.7l35.8-7.3c1.9-0.4 3.4-1.3 4.6-2.6 1.2-1.3 2.1-3 2.9-5.2l9-25.4 -49.2 12.4c-3.7 0.9-6.9 2.4-9.7 4.5l-0.3-0.1c-0.9-3.4-2.4-6.6-4.7-9.6l-30.5-40.6 -9 25.4c-0.7 2.1-1.1 4.1-1 5.8 0.1 1.8 0.7 3.4 1.9 4.9l23.2 28.2C171 486.4 181.1 496.9 177.4 507.4" class="b"/><path d="M8.8 580.1c-0.1-0.6-0.9-0.8-1-0.8l-1.9-0.6c-0.1 0-0.2-0.1-0.2-0.2 -0.1-0.1-0.1-0.2-0.1-0.3L5.3 576.7l2.6 1c0.2 0.1 0.4 0.2 0.5 0.3l0 0c0.1-0.2 0.2-0.3 0.3-0.5l1.9-2 0.3 1.4c0 0.1 0 0.2 0 0.3 0 0.1-0.1 0.2-0.1 0.3l-1.4 1.4C9.3 579 8.7 579.5 8.8 580.1" class="b"/><path d="M30.3 602.7c0.1-0.7 0.9-0.9 1-1l2-0.8c0.1 0 0.2-0.1 0.2-0.2 0.1-0.1 0.1-0.2 0.1-0.3l0.2-1.6 -2.7 1.3c-0.2 0.1-0.4 0.2-0.5 0.4l0 0c-0.1-0.2-0.2-0.4-0.4-0.5l-2.2-2 -0.2 1.6c0 0.1 0 0.2 0 0.4 0 0.1 0.1 0.2 0.2 0.3l1.7 1.4C29.7 601.6 30.4 602.1 30.3 602.7" class="b"/><path d="M80.6 620.4c0.7-3.6-3-6.6-3.5-7l-8.9-8.2c-0.5-0.4-0.8-0.9-0.9-1.5 -0.1-0.6-0.1-1.2 0.1-1.9l1.8-8.7 11.9 11.9c0.9 0.9 1.6 1.9 2 2.9l0.1 0c0.8-0.8 1.8-1.4 3-1.9l15.5-6.3 -1.8 8.7c-0.1 0.7-0.4 1.3-0.7 1.8 -0.3 0.5-0.8 0.8-1.4 1.1l-11.4 4.1C85.9 615.5 81.3 616.8 80.6 620.4" class="b"/><path d="M116.9 573.1c-0.8-1.6-3-1.6-3.3-1.6l-5.7-0.5c-0.3 0-0.6-0.1-0.8-0.3 -0.2-0.2-0.4-0.4-0.5-0.7l-1.8-3.8 7.9 1.1c0.6 0.1 1.1 0.3 1.6 0.5l0 0c0.1-0.5 0.3-1.1 0.6-1.6l4-6.8 1.8 3.8c0.2 0.3 0.2 0.6 0.3 0.9 0 0.3-0.1 0.5-0.2 0.8l-3.1 4.8C117.5 569.7 116.1 571.5 116.9 573.1" class="b"/><path d="M35.8 618c-1.3-5.3-8.3-6.9-9.1-7.1l-17.2-5.2c-0.9-0.3-1.6-0.8-2.1-1.5 -0.5-0.7-0.9-1.6-1.2-2.7l-3.3-12.9 23.6 8.3c1.8 0.6 3.3 1.5 4.6 2.7l0.2 0c0.6-1.6 1.5-3.1 2.8-4.5l16.8-18.5 3.3 12.9c0.3 1.1 0.3 2 0.2 2.9 -0.1 0.9-0.5 1.6-1.2 2.3l-12.7 12.8C39.8 608 34.4 612.7 35.8 618" class="b"/><path d="M115.2 638.8c-1.9-5.3 3.2-10.7 3.7-11.4l11.8-14.4c0.6-0.8 0.9-1.6 1-2.5 0-0.9-0.1-1.9-0.5-3l-4.6-12.9 -15.5 20.6c-1.2 1.6-2 3.2-2.4 4.9l-0.2 0.1c-1.4-1.1-3.1-1.8-5-2.3l-25-6.2 4.6 12.9c0.4 1.1 0.9 1.9 1.5 2.6 0.6 0.7 1.4 1.1 2.3 1.3l18.2 3.7C105.9 632.6 113.3 633.5 115.2 638.8" class="b"/><path d="M208.6 617.8c-0.2-1.9 1.9-3.2 2.2-3.4l5-3.6c0.3-0.2 0.4-0.4 0.5-0.7 0.1-0.3 0.1-0.6 0.1-1l-0.4-4.6 -6.8 5.4c-0.5 0.4-0.9 0.9-1.2 1.4l-0.1 0c-0.4-0.5-0.8-0.8-1.4-1.2l-7.6-4.1 0.4 4.6c0 0.4 0.1 0.7 0.3 1 0.1 0.3 0.4 0.5 0.6 0.6l5.6 2.7C206.1 615 208.4 616 208.6 617.8" class="b"/><path d="M23.4 563.1c0.8-2.6 4.3-3.1 4.7-3.2l8.6-2c0.5-0.1 0.8-0.3 1.1-0.7 0.3-0.3 0.5-0.8 0.7-1.3l2-6.2 -11.8 3.3c-0.9 0.3-1.7 0.6-2.3 1.2l-0.1 0c-0.2-0.8-0.6-1.6-1.2-2.3l-7.6-9.5 -2 6.2c-0.2 0.5-0.2 1-0.2 1.4 0 0.4 0.2 0.8 0.5 1.2l5.8 6.6C21.8 558.1 24.3 560.6 23.4 563.1" class="b"/></g><g opacity="0.1"><path d="M35.4 524.9c9.3-12.5 0.1-30.7-0.7-32.9l-19.4-47.2c-1-2.5-1.2-5-0.6-7.4 0.6-2.4 1.9-4.8 3.7-7.4L40.8 399.8l24.1 66.7c1.8 5 2.6 10 2.4 14.8l0.4 0.3c4.6-1.6 9.5-2.3 14.9-2l70.9 3.7 -22.4 30.2c-1.9 2.5-3.8 4.4-5.9 5.7 -2.1 1.3-4.5 1.8-7.2 1.6l-50.8-4.9C64.7 515.8 44.6 512.4 35.4 524.9" class="b"/><path d="M430.8 364c-0.1-7.4-8.8-11.6-9.7-12.2l-20.9-12.2c-1.1-0.7-1.9-1.5-2.3-2.6 -0.5-1.1-0.7-2.4-0.7-3.8l-0.2-17.8 28.3 18.2c2.1 1.4 3.8 3 5.1 4.9l0.2 0c1.3-1.9 2.9-3.6 5-5l27.8-19 0.2 17.8c0 1.5-0.2 2.8-0.6 3.9 -0.4 1.1-1.2 2-2.3 2.7l-20.5 12.8C439.3 352.1 430.7 356.6 430.8 364" class="b"/><path d="M202.7 268.3c4.4-22.8-19.6-41.4-22.2-43.8l-56.6-51c-3-2.7-4.8-5.9-5.5-9.5 -0.7-3.6-0.6-7.7 0.3-12.3l10.6-55.1 75.5 74.2c5.7 5.6 9.9 11.7 12.7 18.4l0.7 0.1c5.1-5.1 11.3-9.2 18.7-12.3l97.7-40.8 -10.6 55.1c-0.9 4.6-2.3 8.4-4.3 11.5 -2 3.1-4.9 5.4-8.6 6.8l-71.5 26.2C236.3 237.2 207.1 245.5 202.7 268.3" class="b"/><path d="M306.3 613c2.3-23.8 31.5-35.2 34.7-36.8l70.8-33.9c3.7-1.9 6.5-4.5 8.2-7.8 1.7-3.4 2.8-7.4 3.3-12.2l5.6-57.6 -96.3 51.4c-7.2 3.9-13.2 8.7-18 14.5l-0.8-0.1c-3.5-6.6-8.5-12.5-14.9-17.6l-84.7-68.8 -5.6 57.6c-0.5 4.8-0.2 9 0.9 12.7 1.1 3.6 3.2 6.7 6.6 9.3l63.1 46.8C282.1 572.4 308.6 589.1 306.3 613" class="b"/><path d="M636 305.9c6.4-23.1 37.1-29.1 40.6-30.2L750 255.4V191.9l-71.1 23.1c-7.8 2.5-14.5 6.2-20.2 11.1l-0.7-0.2c-2.3-7.1-6.2-13.7-11.6-20l-71.3-82.6L559.5 179.1c-1.3 4.6-1.7 8.9-1.3 12.6 0.4 3.8 2 7.2 4.8 10.3l53.9 57.1C619.3 261.8 642.4 282.9 636 305.9" class="b"/><defs><filter filterUnits="userSpaceOnUse" x="679" y="637.6" width="71" height="62.5"><feColorMatrix type="matrix" values="1 0 0 0 0  0 1 0 0 0  0 0 1 0 0  0 0 0 1 0"/></filter></defs><mask maskUnits="userSpaceOnUse" x="679" y="637.6" width="71" height="62.5"><g filter="url(#Adobe_OpacityMaskFilter_3_)"><polygon points="683.5 637 756.3 652 744.6 708.9 671.8 693.9 " class="b"/></g></mask><path mask="url(#SVGID_3_)" d="M701.9 700.1c2.8-7.5 13.2-8.7 14.3-9l25.8-5c1.4-0.3 2.5-0.9 3.3-1.8 0.9-0.9 1.6-2.2 2.1-3.7l2.5-6.9v-10.3l-31.4 7.5c-2.7 0.6-5 1.7-7 3.2l-0.2-0.1c-0.6-2.4-1.7-4.7-3.3-7L686.5 637.6l-6.7 18.2c-0.6 1.5-0.8 2.9-0.8 4.2 0 1.3 0.5 2.5 1.3 3.6l16.4 20.5C697.5 684.9 704.7 692.6 701.9 700.1" class="b"/><path d="M73.4 94.3c7.7-8.3 22-4.2 23.6-3.9l36.4 7.6c1.9 0.4 3.7 0.2 5.3-0.6 1.6-0.8 3.2-2 4.8-3.7l18.6-20.1 -51-8.3c-3.8-0.6-7.5-0.5-10.9 0.3l-0.3-0.2c0.6-3.5 0.4-7.1-0.5-10.9L87.3 4.2 68.7 24.3c-1.6 1.7-2.7 3.4-3.3 5 -0.6 1.7-0.7 3.5-0.2 5.4l10.3 35.7C75.9 72.1 81.1 86 73.4 94.3" class="b"/><defs><filter filterUnits="userSpaceOnUse" x="332.5" width="307.6" height="147.6"><feColorMatrix type="matrix" values="1 0 0 0 0  0 1 0 0 0  0 0 1 0 0  0 0 0 1 0"/></filter></defs><mask maskUnits="userSpaceOnUse" x="332.5" width="307.6" height="147.6"><g filter="url(#Adobe_OpacityMaskFilter_4_)"><polygon points="333.5 -145.6 661.8 -78 605.7 194.2 277.4 126.6 " class="b"/></g></mask><path mask="url(#SVGID_4_)" d="M379.5 147.6c18.5-30.6 65-27 70.4-27.1l117.1 0.1c6.2-0.1 11.6-1.8 16.1-5.2 4.5-3.4 8.6-8.2 12.3-14.3l44.6-73.9 -162.6 7c-12.2 0.5-23.4 3.2-33.5 7.9l-1-0.6c-0.5-11.1-3.4-22.2-8.6-33.3l-3.8-8 -98.1 0 38.3 72.7C373.2 77.5 398 117 379.5 147.6" class="b"/><path d="M0 211.3l62 40.2c3.9 2.5 8 3.6 12.2 3.3 4.2-0.3 8.7-1.6 13.6-4l58-28.2L40.9 161c-7.9-4.6-16-7.5-24.2-8.7l-0.4-0.8c4.2-7.2 6.9-15.3 8.1-24.4L40.6 6.8 0 26.6" class="b"/><path d="M2.5 440C5.3 433.4 0 370.5 0 370.5l14 21.2c2.2 3.4 3.7 6.9 4.4 10.5l0.3 0.1c3.1-2 6.6-3.4 10.6-4.1l52.9-9.8 -11.2 26.3c-0.9 2.2-2.1 3.9-3.4 5.3 -1.3 1.3-3 2.1-5 2.5l-38.3 5.4C22.5 428.1 7.1 429.1 2.5 440" class="b"/><path d="M147.1 314.8c-1.4-5.4-8.5-7-9.3-7.3l-17.6-5.3c-0.9-0.3-1.6-0.8-2.2-1.5 -0.5-0.7-0.9-1.6-1.2-2.7l-3.3-13.1 24 8.5c1.8 0.6 3.4 1.5 4.7 2.7l0.2 0c0.6-1.6 1.5-3.2 2.8-4.6l17.1-18.9 3.3 13.1c0.3 1.1 0.4 2.1 0.2 3 -0.1 0.9-0.5 1.7-1.2 2.4l-12.9 13C151.2 304.6 145.7 309.4 147.1 314.8" class="b"/><path d="M99.2 520.3c-2.5-18 17-31.5 19.1-33.3l46.3-37.5c2.4-2 4-4.4 4.7-7.2 0.7-2.8 0.8-6 0.3-9.6l-6.1-43.5 -61.9 54.9c-4.7 4.1-8.2 8.8-10.7 13.8l-0.6 0.1c-3.8-4.2-8.5-7.7-14.1-10.4l-74.6-35.8L7.6 455.4c0.5 3.6 1.5 6.7 2.9 9.2 1.4 2.5 3.6 4.4 6.5 5.7l54.7 23.4C74.2 494.7 96.7 502.4 99.2 520.3" class="b"/><path d="M406.2 514.8c0.7-6 8.2-8.8 9-9.1l18.1-8.2c1-0.4 1.7-1.1 2.1-1.9 0.5-0.8 0.8-1.9 0.9-3.1l1.7-14.6 -24.7 12.5c-1.9 0.9-3.4 2.1-4.6 3.6l-0.2 0c-0.9-1.7-2.1-3.2-3.7-4.6l-21.1-17.9 -1.7 14.6c-0.1 1.2-0.1 2.3 0.2 3.2 0.2 0.9 0.8 1.7 1.6 2.4l15.7 12.2C400.3 504.4 407 508.8 406.2 514.8" class="b"/><path d="M14.6 726.3c1.5-4 7.1-4.7 7.7-4.8l13.8-2.7c0.7-0.2 1.3-0.5 1.8-1 0.5-0.5 0.8-1.2 1.1-2l3.6-9.7 -19 4.5c-1.4 0.3-2.7 0.9-3.8 1.7l-0.1 0c-0.3-1.3-0.9-2.5-1.8-3.7L6.3 692.8l-3.6 9.7c-0.3 0.8-0.4 1.6-0.4 2.2 0 0.7 0.3 1.3 0.7 1.9l8.8 11C12.2 718.2 16.1 722.3 14.6 726.3" class="b"/></g><g class="a"><path d="M81.7 112.4c-0.1-4.7-5.5-7.3-6.2-7.7l-13.2-7.7c-0.7-0.4-1.2-1-1.5-1.7 -0.3-0.7-0.4-1.5-0.4-2.4l-0.2-11.3 17.9 11.5c1.3 0.9 2.4 1.9 3.3 3.1l0.2 0c0.8-1.2 1.9-2.3 3.2-3.2l17.6-12 0.2 11.3c0 0.9-0.1 1.8-0.4 2.4 -0.3 0.7-0.7 1.3-1.4 1.7l-13 8.1C87.1 104.9 81.7 107.7 81.7 112.4" class="b"/><path d="M212.9 117.9c4.1-14.6 23.5-18.4 25.7-19.1l47.9-13.3c2.5-0.7 4.5-2.1 6-4 1.5-1.9 2.6-4.3 3.4-7.3l9.9-35.3 -65.7 21.3c-4.9 1.6-9.2 4-12.8 7l-0.5-0.1c-1.5-4.5-3.9-8.7-7.3-12.6L174.3 2.3l-9.9 35.3c-0.8 2.9-1.1 5.6-0.8 8 0.3 2.4 1.3 4.5 3.1 6.5l34.1 36.2C202.3 90 217 103.3 212.9 117.9" class="b"/><defs><filter filterUnits="userSpaceOnUse" x="238.8" y="285.7" width="47.6" height="39.6"><feColorMatrix type="matrix" values="1 0 0 0 0  0 1 0 0 0  0 0 1 0 0  0 0 0 1 0"/></filter></defs><mask maskUnits="userSpaceOnUse" x="238.8" y="285.7" width="47.6" height="39.6"><g filter="url(#Adobe_OpacityMaskFilter_5_)"><polygon points="241.7 285.3 287.8 294.8 280.4 330.8 234.3 321.3 " class="b"/></g></mask><path mask="url(#mask-2_2_)" d="M253.4 325.2c1.7-4.8 8.3-5.5 9.1-5.7l16.3-3.1c0.9-0.2 1.6-0.6 2.1-1.2 0.5-0.6 1-1.4 1.3-2.3l4.2-11.5 -22.5 5.4c-1.7 0.4-3.2 1.1-4.5 2l-0.2-0.1c-0.4-1.5-1.1-3-2.1-4.4l-13.7-18.6 -4.2 11.5c-0.4 1-0.5 1.8-0.5 2.6 0 0.8 0.3 1.6 0.9 2.3l10.4 13C250.6 315.6 255.1 320.5 253.4 325.2" class="b"/><path d="M66.2 207.9c0.5-3.8 5.2-5.5 5.7-5.8l11.5-5.2c0.6-0.3 1.1-0.7 1.3-1.2 0.3-0.5 0.5-1.2 0.6-2l1.1-9.2 -15.6 7.9c-1.2 0.6-2.2 1.4-2.9 2.3l-0.1 0c-0.5-1.1-1.3-2-2.3-2.9l-13.4-11.3 -1.1 9.2c-0.1 0.8-0.1 1.4 0.1 2 0.2 0.6 0.5 1.1 1 1.5l10 7.7C62.4 201.3 66.6 204.1 66.2 207.9" class="b"/></g><g class="c"><path d="M267.1 625.8c5.4-7.3 0.1-17.8-0.4-19.1l-11.3-27.5c-0.6-1.5-0.7-2.9-0.3-4.3 0.4-1.4 1.1-2.8 2.2-4.3l13-17.6 14 38.8c1.1 2.9 1.5 5.8 1.4 8.6l0.2 0.2c2.7-0.9 5.5-1.3 8.6-1.2l41.2 2.1 -13 17.6c-1.1 1.5-2.2 2.6-3.5 3.3 -1.2 0.8-2.6 1.1-4.2 0.9l-29.6-2.8C284.2 620.6 272.5 618.6 267.1 625.8" class="b"/><path d="M134 550.1c1.1-2.8-1.5-5.8-1.7-6.2l-6-7.9c-0.3-0.4-0.5-0.9-0.5-1.4 0-0.5 0.1-1 0.3-1.6l2.7-6.8 7.8 11.4c0.6 0.9 1 1.7 1.2 2.7l0.1 0c0.8-0.5 1.7-0.9 2.7-1.1l13.5-2.8 -2.7 6.8c-0.2 0.6-0.5 1-0.8 1.4 -0.3 0.4-0.8 0.6-1.3 0.7l-9.8 1.6C139.1 547 135.1 547.3 134 550.1" class="b"/><path d="M497.1 532.3c-0.1-4.3-5.1-6.7-5.7-7.1l-12.1-7.1c-0.6-0.4-1.1-0.9-1.4-1.5 -0.3-0.6-0.4-1.4-0.4-2.2l-0.1-10.4 16.4 10.6c1.2 0.8 2.2 1.7 3 2.9l0.1 0c0.7-1.1 1.7-2.1 2.9-2.9l16.1-11 0.1 10.4c0 0.9-0.1 1.6-0.3 2.2 -0.2 0.6-0.7 1.2-1.3 1.6l-11.9 7.4C502 525.4 497 528 497.1 532.3" class="b"/><path d="M364.5 476.6c2.6-13.3-11.4-24.1-12.9-25.4l-32.9-29.6c-1.7-1.6-2.8-3.4-3.2-5.5 -0.4-2.1-0.3-4.5 0.2-7.2l6.2-32.1 43.9 43.1c3.3 3.3 5.8 6.8 7.4 10.7l0.4 0.1c3-3 6.6-5.4 10.9-7.2l56.8-23.7 -6.2 32.1c-0.5 2.7-1.3 4.9-2.5 6.7 -1.2 1.8-2.8 3.1-5 4l-41.6 15.3C384 458.5 367 463.4 364.5 476.6" class="b"/><path d="M424.7 677c1.3-13.9 18.3-20.5 20.2-21.4l41.2-19.7c2.2-1.1 3.8-2.6 4.8-4.6 1-2 1.6-4.3 1.9-7.1l3.2-33.5 -56 29.9c-4.2 2.3-7.7 5.1-10.4 8.4L429.1 629c-2.1-3.8-4.9-7.2-8.6-10.3l-49.2-40 -3.2 33.5c-0.3 2.8-0.1 5.2 0.5 7.4 0.6 2.1 1.9 3.9 3.8 5.4l36.7 27.2C410.6 653.5 426 663.2 424.7 677" class="b"/><path d="M626.8 508.7c3.7-13.4 21.6-16.9 23.6-17.5l44-12.2c2.3-0.7 4.2-1.9 5.5-3.6 1.3-1.7 2.4-4 3.1-6.7l9.1-32.4 -60.3 19.6c-4.5 1.5-8.5 3.6-11.8 6.5l-0.4-0.1c-1.4-4.1-3.6-8-6.7-11.6l-41.5-48 -9 32.4c-0.8 2.7-1 5.1-0.8 7.3 0.2 2.2 1.2 4.2 2.8 6l31.3 33.2C617.1 483 630.6 495.3 626.8 508.7" class="b"/><defs><filter filterUnits="userSpaceOnUse" x="641.4" y="691.4" width="43.7" height="36.3"><feColorMatrix type="matrix" values="1 0 0 0 0  0 1 0 0 0  0 0 1 0 0  0 0 0 1 0"/></filter></defs><mask maskUnits="userSpaceOnUse" x="641.4" y="691.4" width="43.7" height="36.3"><g filter="url(#Adobe_OpacityMaskFilter_6_)"><polygon points="644 691 686.3 699.7 679.5 732.8 637.2 724.1 " class="b"/></g></mask><path mask="url(#SVGID_5_)" d="M654.7 727.7c1.6-4.4 7.7-5.1 8.3-5.2l15-2.9c0.8-0.2 1.4-0.5 1.9-1.1 0.5-0.5 0.9-1.3 1.2-2.1l3.9-10.6 -20.6 4.9c-1.6 0.4-2.9 1-4.1 1.8l-0.1-0.1c-0.3-1.4-1-2.8-1.9-4.1l-12.5-17.1 -3.9 10.6c-0.3 0.9-0.5 1.7-0.5 2.4 0 0.7 0.3 1.4 0.8 2.1l9.6 11.9C652.2 718.9 656.3 723.4 654.7 727.7" class="b"/><path d="M258.5 333.4c4.5-4.8 12.8-2.5 13.7-2.3l21.2 4.4c1.1 0.2 2.2 0.1 3.1-0.3 0.9-0.4 1.9-1.2 2.8-2.1l10.8-11.7 -29.7-4.8c-2.2-0.4-4.3-0.3-6.3 0.2l-0.2-0.1c0.3-2 0.2-4.1-0.3-6.3l-7.1-29.2 -10.8 11.7c-0.9 1-1.5 2-1.9 2.9 -0.4 1-0.4 2-0.1 3.1l6 20.8C260 320.5 263 328.5 258.5 333.4" class="b"/><defs><filter filterUnits="userSpaceOnUse" x="428.6" y="239.7" width="190.2" height="166.7"><feColorMatrix type="matrix" values="1 0 0 0 0  0 1 0 0 0  0 0 1 0 0  0 0 0 1 0"/></filter></defs><mask maskUnits="userSpaceOnUse" x="428.6" y="239.7" width="190.2" height="166.7"><g filter="url(#Adobe_OpacityMaskFilter_7_)"><polygon points="440.5 236 631.4 275.3 598.8 433.5 407.9 394.2 " class="b"/></g></mask><path mask="url(#SVGID_6_)" d="M467.3 406.4c10.7-17.8 37.8-15.7 40.9-15.8l68.1 0.1c3.6 0 6.7-1.1 9.4-3 2.6-2 5-4.8 7.2-8.3l26-43 -94.5 4.1c-7.1 0.3-13.6 1.8-19.5 4.6l-0.6-0.3c-0.3-6.5-2-12.9-5-19.4l-40.4-85.6 -26 43c-2.2 3.6-3.5 7-4 10.2 -0.5 3.2 0 6.5 1.7 9.7l31.8 60.2C463.6 365.7 478 388.7 467.3 406.4" class="b"/><path d="M207.9 432.5c13.9-6.8 30.1 5.5 32 6.7l42.7 27.7c2.3 1.4 4.7 2.1 7.1 1.9 2.4-0.2 5.1-0.9 7.9-2.3l33.7-16.4 -60.9-35.8c-4.6-2.7-9.3-4.4-14.1-5l-0.2-0.4c2.4-4.2 4-8.9 4.7-14.2l9.4-70L236.5 341c-2.8 1.4-5 3-6.7 4.8 -1.6 1.8-2.6 4.1-2.9 6.8l-4.5 50.6C222.1 405.5 221.9 425.7 207.9 432.5" class="b"/><path d="M60.3 498.4c1.4-1.9 0-4.7-0.1-5.1l-3-7.3c-0.2-0.4-0.2-0.8-0.1-1.1 0.1-0.4 0.3-0.7 0.6-1.1l3.5-4.7 3.7 10.3c0.3 0.8 0.4 1.5 0.4 2.3l0.1 0c0.7-0.2 1.5-0.4 2.3-0.3l10.9 0.6 -3.5 4.7c-0.3 0.4-0.6 0.7-0.9 0.9 -0.3 0.2-0.7 0.3-1.1 0.2l-7.8-0.7C64.8 497 61.7 496.5 60.3 498.4" class="b"/><path d="M25 478.3c0.3-0.7-0.4-1.5-0.5-1.6l-1.6-2.1c-0.1-0.1-0.1-0.2-0.1-0.4 0-0.1 0-0.3 0.1-0.4l0.7-1.8 2.1 3c0.2 0.2 0.3 0.5 0.3 0.7l0 0c0.2-0.1 0.4-0.2 0.7-0.3l3.6-0.7 -0.7 1.8c-0.1 0.1-0.1 0.3-0.2 0.4 -0.1 0.1-0.2 0.2-0.3 0.2l-2.6 0.4C26.3 477.5 25.3 477.6 25 478.3" class="b"/><path d="M121.1 473.6c0-1.1-1.3-1.8-1.5-1.9l-3.2-1.9c-0.2-0.1-0.3-0.2-0.4-0.4 -0.1-0.2-0.1-0.4-0.1-0.6l0-2.7 4.4 2.8c0.3 0.2 0.6 0.5 0.8 0.8l0 0c0.2-0.3 0.5-0.6 0.8-0.8l4.3-2.9 0 2.7c0 0.2 0 0.4-0.1 0.6 -0.1 0.2-0.2 0.3-0.3 0.4l-3.2 2C122.4 471.8 121.1 472.5 121.1 473.6" class="b"/><path d="M86 458.9c0.7-3.5-3-6.4-3.4-6.7l-8.7-7.8c-0.5-0.4-0.7-0.9-0.8-1.5 -0.1-0.6-0.1-1.2 0-1.9l1.6-8.5 11.6 11.4c0.9 0.9 1.5 1.8 2 2.8l0.1 0c0.8-0.8 1.7-1.4 2.9-1.9l15-6.3 -1.6 8.5c-0.1 0.7-0.4 1.3-0.7 1.8 -0.3 0.5-0.7 0.8-1.3 1l-11 4C91.2 454.1 86.7 455.4 86 458.9" class="b"/><path d="M162.9 525.4c0.4-1.2 2-1.3 2.2-1.4l4-0.8c0.2 0 0.4-0.1 0.5-0.3 0.1-0.1 0.2-0.3 0.3-0.6l1-2.8 -5.5 1.3c-0.4 0.1-0.8 0.3-1.1 0.5l0 0c-0.1-0.4-0.3-0.7-0.5-1.1l-3.3-4.5 -1 2.8c-0.1 0.2-0.1 0.4-0.1 0.6 0 0.2 0.1 0.4 0.2 0.5l2.5 3.2C162.2 523 163.3 524.2 162.9 525.4" class="b"/><path d="M58 420.9c1.2-1.3 3.4-0.6 3.6-0.6l5.6 1.2c0.3 0.1 0.6 0 0.8-0.1 0.3-0.1 0.5-0.3 0.7-0.6l2.9-3.1 -7.9-1.3c-0.6-0.1-1.2-0.1-1.7 0l0 0c0.1-0.5 0.1-1.1-0.1-1.7l-1.9-7.7 -2.9 3.1c-0.2 0.3-0.4 0.5-0.5 0.8 -0.1 0.3-0.1 0.5 0 0.8l1.6 5.5C58.4 417.5 59.2 419.7 58 420.9" class="b"/><path d="M113.2 440.3c2.8-4.7 10-4.2 10.8-4.2l18 0c1 0 1.8-0.3 2.5-0.8 0.7-0.5 1.3-1.3 1.9-2.2l6.9-11.4 -25 1.1c-1.9 0.1-3.6 0.5-5.2 1.2l-0.1-0.1c-0.1-1.7-0.5-3.4-1.3-5.1l-10.7-22.7 -6.9 11.4c-0.6 0.9-0.9 1.8-1.1 2.7 -0.1 0.9 0 1.7 0.4 2.6l8.4 16C112.3 429.5 116.1 435.6 113.2 440.3" class="b"/><path d="M248 576.5c2.7-6.3-3.1-13.2-3.7-14l-13.2-18.3c-0.7-1-1-2-1-3.1 0-1.1 0.3-2.3 0.9-3.5l6.5-15.3 17.2 26.1c1.3 2 2.1 4 2.5 6.1l0.2 0.1c1.8-1.2 3.8-2 6.2-2.4l30.8-5.7 -6.5 15.3c-0.5 1.3-1.2 2.3-2 3.1 -0.8 0.8-1.7 1.2-2.9 1.4l-22.3 3.1C259.7 569.6 250.7 570.1 248 576.5" class="b"/><path d="M67.5 580.9c0.3-2.3-2.1-4-2.4-4.2l-5.8-4.8c-0.3-0.3-0.5-0.6-0.6-0.9 -0.1-0.4-0.1-0.8 0-1.2l0.8-5.5 7.8 7c0.6 0.5 1 1.1 1.3 1.8l0.1 0c0.5-0.5 1.1-1 1.8-1.3l9.5-4.5 -0.8 5.5c-0.1 0.5-0.2 0.8-0.4 1.2 -0.2 0.3-0.5 0.6-0.8 0.7l-7 2.9C70.7 577.7 67.8 578.6 67.5 580.9" class="b"/><path d="M332.1 503.7c-0.8-3.2-5-4.1-5.4-4.2l-10.2-3.1c-0.5-0.2-1-0.5-1.3-0.9 -0.3-0.4-0.5-0.9-0.7-1.6l-1.9-7.6 14 4.9c1.1 0.4 2 0.9 2.7 1.6l0.1 0c0.3-1 0.9-1.8 1.6-2.7l10-11 1.9 7.6c0.2 0.6 0.2 1.2 0.1 1.7 -0.1 0.5-0.3 1-0.7 1.4l-7.5 7.6C334.5 497.7 331.3 500.5 332.1 503.7" class="b"/><path d="M154.6 552.8c-0.5-10.2-12.7-15.7-14-16.5l-29.5-16c-1.6-0.9-2.7-2.1-3.3-3.5 -0.7-1.5-1-3.2-1.1-5.3l-1.1-24.7 40 24.1c3 1.8 5.5 4 7.4 6.6l0.3 0c1.7-2.7 3.9-5.1 6.7-7.2l37.7-27.5 1.1 24.7c0.1 2.1-0.1 3.9-0.7 5.4 -0.5 1.5-1.5 2.8-3 3.8l-28 18.6C165.8 536 154.1 542.6 154.6 552.8" class="b"/><path d="M304.2 623.2c-1.5-10.5 9.9-18.3 11.1-19.3l26.9-21.8c1.4-1.2 2.3-2.6 2.7-4.2 0.4-1.6 0.5-3.5 0.2-5.6l-3.5-25.3 -36 31.9c-2.7 2.4-4.8 5.1-6.2 8l-0.3 0c-2.2-2.5-4.9-4.5-8.2-6l-43.4-20.8 3.5 25.3c0.3 2.1 0.9 3.9 1.7 5.3 0.8 1.4 2.1 2.5 3.8 3.3l31.8 13.6C289.7 608.3 302.8 612.7 304.2 623.2" class="b"/><path d="M482.8 620c0.4-3.5 4.7-5.1 5.2-5.3l10.6-4.8c0.6-0.3 1-0.6 1.2-1.1 0.3-0.5 0.4-1.1 0.5-1.8l1-8.5 -14.4 7.3c-1.1 0.5-2 1.2-2.7 2.1l-0.1 0c-0.5-1-1.2-1.9-2.1-2.6l-12.3-10.4 -1 8.5c-0.1 0.7-0.1 1.3 0.1 1.9 0.1 0.5 0.5 1 0.9 1.4l9.2 7.1C479.4 613.9 483.2 616.5 482.8 620" class="b"/><path d="M121.1 399.1c2.5-4.4 9-4.1 9.7-4.1l16.4-0.5c0.9 0 1.6-0.3 2.2-0.8 0.6-0.5 1.2-1.2 1.7-2.1l5.9-10.5 -22.7 1.7c-1.7 0.1-3.3 0.5-4.7 1.2l-0.1-0.1c-0.1-1.6-0.6-3.1-1.3-4.6l-10.4-20.3 -5.9 10.5c-0.5 0.9-0.8 1.7-0.9 2.5 -0.1 0.8 0.1 1.6 0.5 2.3l8.1 14.3C119.9 389.3 123.6 394.8 121.1 399.1" class="b"/><path d="M50.1 378.7c4.8-15 25.1-18.3 27.4-18.9l50.2-12c2.7-0.7 4.8-2 6.4-3.9 1.6-1.9 2.9-4.4 3.8-7.4l11.6-36.3 -69 19.7c-5.2 1.5-9.7 3.8-13.6 6.8l-0.5-0.2c-1.4-4.7-3.7-9.2-7.1-13.4l-44.9-56L2.9 293.5c-1 3-1.4 5.8-1.2 8.3 0.2 2.5 1.2 4.8 2.9 6.9l34 38.8C40.2 349.2 54.9 363.6 50.1 378.7" class="b"/><path d="M42.3 682.8c2.9-3.9 0-9.6-0.2-10.3l-6.1-14.7c-0.3-0.8-0.4-1.6-0.2-2.3 0.2-0.7 0.6-1.5 1.2-2.3l7-9.4 7.5 20.8c0.6 1.6 0.8 3.1 0.7 4.6l0.1 0.1c1.4-0.5 3-0.7 4.6-0.6l22.1 1.1 -7 9.4c-0.6 0.8-1.2 1.4-1.9 1.8 -0.7 0.4-1.4 0.6-2.2 0.5l-15.9-1.5C51.4 680 45.2 678.9 42.3 682.8" class="b"/><path d="M165.6 632.7c0-2.3-2.7-3.6-3-3.8l-6.5-3.8c-0.3-0.2-0.6-0.5-0.7-0.8 -0.1-0.3-0.2-0.7-0.2-1.2l-0.1-5.6 8.8 5.7c0.7 0.4 1.2 0.9 1.6 1.5l0.1 0c0.4-0.6 0.9-1.1 1.6-1.6l8.7-5.9 0.1 5.6c0 0.5-0.1 0.9-0.2 1.2 -0.1 0.3-0.4 0.6-0.7 0.8l-6.4 4C168.2 629 165.6 630.3 165.6 632.7" class="b"/><path d="M94.5 602.8c1.4-7.1-6.1-12.9-6.9-13.6l-17.7-15.9c-0.9-0.9-1.5-1.8-1.7-3 -0.2-1.1-0.2-2.4 0.1-3.8l3.3-17.2 23.5 23.1c1.8 1.7 3.1 3.7 4 5.7l0.2 0c1.6-1.6 3.5-2.9 5.8-3.8l30.5-12.7 -3.3 17.2c-0.3 1.4-0.7 2.6-1.3 3.6 -0.6 1-1.5 1.7-2.7 2.1l-22.3 8.2C105 593.1 95.9 595.7 94.5 602.8" class="b"/><path d="M126.8 710.3c0.7-7.4 9.8-11 10.8-11.5l22.1-10.6c1.2-0.6 2-1.4 2.6-2.4 0.5-1 0.9-2.3 1-3.8l1.7-18 -30 16c-2.3 1.2-4.1 2.7-5.6 4.5l-0.2 0c-1.1-2-2.7-3.9-4.6-5.5l-26.4-21.5 -1.7 18c-0.1 1.5-0.1 2.8 0.3 3.9 0.3 1.1 1 2.1 2 2.9l19.7 14.6C119.2 697.6 127.5 702.9 126.8 710.3" class="b"/><path d="M250.1 737.5c0.9-2.3 4.1-2.7 4.5-2.8l8-1.6c0.4-0.1 0.8-0.3 1-0.6 0.3-0.3 0.5-0.7 0.7-1.2l2.1-5.7 -11.1 2.6c-0.8 0.2-1.6 0.5-2.2 1l-0.1 0c-0.2-0.8-0.5-1.5-1-2.2l-6.7-9.2 -2.1 5.7c-0.2 0.5-0.3 0.9-0.2 1.3 0 0.4 0.1 0.8 0.4 1.1l5.1 6.4C248.8 732.7 251 735.1 250.1 737.5" class="b"/><path d="M37.7 526c2.4-2.6 6.8-1.3 7.4-1.2l11.4 2.4c0.6 0.1 1.2 0.1 1.7-0.2 0.5-0.2 1-0.6 1.5-1.1l5.8-6.3 -15.9-2.6c-1.2-0.2-2.3-0.2-3.4 0.1l-0.1-0.1c0.2-1.1 0.1-2.2-0.2-3.4l-3.8-15.7 -5.8 6.3c-0.5 0.5-0.8 1-1 1.6 -0.2 0.5-0.2 1.1-0.1 1.7l3.2 11.1C38.5 519.1 40.1 523.4 37.7 526" class="b"/><path d="M149.6 565.2c5.8-9.5 20.3-8.4 21.9-8.5l36.5 0c1.9 0 3.6-0.6 5-1.6 1.4-1.1 2.7-2.6 3.8-4.5l13.9-23 -50.7 2.2c-3.8 0.2-7.3 1-10.4 2.5l-0.3-0.2c-0.2-3.5-1.1-6.9-2.7-10.4l-21.7-45.9 -13.9 23c-1.2 1.9-1.9 3.7-2.2 5.5 -0.3 1.7 0 3.5 0.9 5.2l17 32.3C147.6 543.3 155.4 555.6 149.6 565.2" class="b"/><path d="M32 656.3c1.4-3.4-1.7-7.1-2-7.5l-7.1-9.8c-0.4-0.5-0.5-1.1-0.5-1.7 0-0.6 0.2-1.2 0.5-1.9l3.5-8.2 9.2 14c0.7 1.1 1.1 2.1 1.4 3.3l0.1 0c1-0.6 2.1-1.1 3.3-1.3l16.5-3.1 -3.5 8.2c-0.3 0.7-0.6 1.2-1.1 1.6 -0.4 0.4-0.9 0.7-1.6 0.8l-12 1.7C38.3 652.7 33.5 653 32 656.3" class="b"/><path d="M77.1 617.3c-0.4-1.7-2.7-2.2-2.9-2.3l-5.5-1.7c-0.3-0.1-0.5-0.3-0.7-0.5 -0.2-0.2-0.3-0.5-0.4-0.8l-1-4.1 7.5 2.6c0.6 0.2 1 0.5 1.5 0.8l0.1 0c0.2-0.5 0.5-1 0.9-1.4l5.3-5.9 1 4.1c0.1 0.3 0.1 0.7 0.1 0.9 0 0.3-0.2 0.5-0.4 0.7l-4 4.1C78.4 614.1 76.7 615.6 77.1 617.3" class="b"/><path d="M62.2 681.4c-0.8-5.6 5.3-9.8 5.9-10.4l14.4-11.7c0.8-0.6 1.2-1.4 1.5-2.3 0.2-0.9 0.2-1.9 0.1-3l-1.9-13.6 -19.3 17.1c-1.5 1.3-2.6 2.7-3.3 4.3l-0.2 0c-1.2-1.3-2.6-2.4-4.4-3.2l-23.3-11.2 1.9 13.6c0.2 1.1 0.5 2.1 0.9 2.9 0.4 0.8 1.1 1.4 2 1.8l17.1 7.3C54.4 673.4 61.4 675.8 62.2 681.4" class="b"/><path d="M157.9 679.7c0.2-1.9 2.5-2.7 2.8-2.9l5.7-2.6c0.3-0.1 0.5-0.3 0.7-0.6 0.1-0.3 0.2-0.6 0.3-1l0.5-4.5 -7.7 3.9c-0.6 0.3-1.1 0.7-1.4 1.1l-0.1 0c-0.3-0.5-0.7-1-1.1-1.4l-6.6-5.6 -0.5 4.6c0 0.4 0 0.7 0.1 1 0.1 0.3 0.2 0.5 0.5 0.7l4.9 3.8C156.1 676.4 158.2 677.8 157.9 679.7" class="b"/></g></svg>
