<svg width="158" height="154" xmlns="http://www.w3.org/2000/svg" xmlns:xlink="http://www.w3.org/1999/xlink"><defs><path d="m18.994 0 .063 5.079c.006.424-.052.79-.172 1.1-.119.31-.334.564-.644.761l-5.883 3.629c-.266.173-2.713 1.44-2.686 3.541-.027-2.101-2.504-3.307-2.775-3.473L.926 7.154a1.557 1.557 0 0 1-.663-.744C.135 6.103.069 5.738.064 5.314L0 .235l8.076 5.198A5.13 5.13 0 0 1 9.547 6.83l.067-.001a5.154 5.154 0 0 1 1.436-1.433L18.994 0z" id="O"/><path d="m5.441 0 16.557 21.951c1.246 1.653 2.102 3.39 2.57 5.21l.181.064a13.978 13.978 0 0 1 2.941-1.664l.001 7.285v7.286l-.144.028c-2.312.456-8.18 1.91-9.888 6.711 2.02-5.68-3.445-11.367-4.009-12.081L1.05 19.53C.39 18.71.042 17.824.004 16.872c-.039-.952.146-1.998.553-3.143L5.441 0z" id="a"/><path d="m.81 0 1.663 2.703c.125.203.205.412.238.626l.021.01c.186-.113.397-.187.634-.223l3.147-.479-.711 1.526a.971.971 0 0 1-.21.303.524.524 0 0 1-.301.136l-2.278.245c-.105.013-1.017.042-1.311.673.294-.631-.272-1.344-.329-1.432L.092 2.198a.508.508 0 0 1-.091-.317.956.956 0 0 1 .098-.355L.81 0z" id="e"/><path d="m.107 0 .768.735a.565.565 0 0 1 .13.182A.747.747 0 0 1 1.2.793l.977-.42-.1.553a.323.323 0 0 1-.042.116.17.17 0 0 1-.087.07l-.716.271c-.032.013-.325.099-.367.329.042-.23-.202-.413-.228-.437L.062.772A.167.167 0 0 1 .005.677.341.341 0 0 1 .007.554L.107 0z" id="g"/><path d="m2.909 0 .172.778a.476.476 0 0 1 .009.174.25.25 0 0 1-.075.137l-.787.744c-.036.035-.371.307-.3.628-.071-.321-.49-.428-.537-.445L.363 1.67a.242.242 0 0 1-.126-.093.443.443 0 0 1-.065-.162L0 .637l1.406.542a.819.819 0 0 1 .27.168l.011-.002a.806.806 0 0 1 .174-.265L2.909 0z" id="i"/><path d="m9.378 0 .032 2.508c.002.209-.026.39-.085.543a.769.769 0 0 1-.318.376L6.102 5.219c-.132.085-1.339.711-1.326 1.748-.013-1.037-1.236-1.633-1.37-1.715L.458 3.533a.77.77 0 0 1-.328-.368 1.436 1.436 0 0 1-.098-.541L0 .117l3.988 2.566c.3.193.542.423.726.689h.033c.178-.271.414-.506.709-.707L9.378 0z" id="k"/><path d="m9.613 0 .277 2.571c.023.214.012.402-.034.565a.794.794 0 0 1-.29.417L6.76 5.672c-.127.101-1.305.859-1.191 1.923-.114-1.064-1.428-1.556-1.573-1.628L.803 4.488a.797.797 0 0 1-.373-.346 1.502 1.502 0 0 1-.153-.545L0 1.026l4.343 2.248c.326.17.597.382.812.638l.034-.004c.156-.295.375-.56.659-.794L9.613 0z" id="m"/><path d="M.137 0 1.35 1.094a.878.878 0 0 1 .209.275l.01.001a.874.874 0 0 1 .282-.201L3.335.478l-.13.856a.502.502 0 0 1-.058.18.27.27 0 0 1-.13.11l-1.088.45c-.05.022-.495.168-.548.522.053-.354-.33-.624-.371-.659l-.908-.749a.262.262 0 0 1-.091-.143.498.498 0 0 1-.003-.19L.137 0z" id="o"/><path d="m.742 0 .988 2.089c.074.157.115.314.122.472l.014.008c.144-.066.303-.103.477-.111l2.317-.096-.637 1.047a.706.706 0 0 1-.176.204.38.38 0 0 1-.23.074L1.95 3.683h-.135c-.227.004-.665.05-.868.384.264-.433-.09-.995-.123-1.063L.046 1.533a.375.375 0 0 1-.041-.236.738.738 0 0 1 .1-.25L.742 0z" id="q"/><path d="m1.44 0 4.384 5.812c.33.438.557.898.68 1.38l.048.017a3.921 3.921 0 0 1 1.401-.646l7.081-1.77-1.293 3.636a2.247 2.247 0 0 1-.413.738 1.19 1.19 0 0 1-.659.374L7.522 10.59c-.236.053-2.312.317-2.847 1.821.535-1.504-.912-3.01-1.06-3.2L.276 5.171a1.176 1.176 0 0 1-.276-.704c-.01-.252.038-.529.146-.832L1.44 0z" id="s"/><path d="m1.031 0 6.44 6.422a4.89 4.89 0 0 1 1.083 1.587l.062.013a4.899 4.899 0 0 1 1.618-1.043l8.442-3.42-.959 4.719c-.08.393-.207.722-.38.985a1.485 1.485 0 0 1-.75.576l-6.179 2.194c-.281.107-2.802.794-3.199 2.746.397-1.952-1.656-3.562-1.874-3.77L.501 6.595a1.476 1.476 0 0 1-.466-.822c-.056-.31-.045-.66.035-1.054L1.031 0z" id="u"/><path d="m6.014 0 .091 1.608a.935.935 0 0 1-.04.351.493.493 0 0 1-.193.25l-1.814 1.23c-.082.059-.839.494-.801 1.159-.038-.665-.839-1.013-.928-1.062L.39 2.515a.5.5 0 0 1-.221-.227.932.932 0 0 1-.078-.344L0 .336l2.631 1.535c.198.116.36.257.485.423l.022-.002c.106-.178.251-.336.435-.473L6.014 0z" id="w"/><path d="m7.675 0 .999 2.052c.084.171.131.331.141.48a.697.697 0 0 1-.116.432L7.004 5.557c-.075.121-.827 1.1-.414 1.949-.413-.849-1.651-.868-1.793-.884l-3.095-.281a.701.701 0 0 1-.412-.177 1.31 1.31 0 0 1-.291-.407L0 3.705l4.279.578c.322.043.61.14.865.288l.028-.013c.04-.292.143-.577.308-.855L7.675 0z" id="y"/><path d="m26.037 0 1.765 6.963c.148.58.19 1.103.127 1.568-.062.466-.273.885-.634 1.257l-6.889 6.917c-.31.325-3.254 2.868-2.524 5.749-.73-2.881-4.535-3.727-4.962-3.867l-9.361-2.832c-.495-.157-.881-.426-1.158-.806-.277-.38-.489-.86-.636-1.441L0 6.545l12.821 4.501c.965.34 1.793.82 2.484 1.439l.092-.023c.314-.872.814-1.686 1.501-2.441L26.037 0z" id="A"/><path d="m26.084 0 2.491 6.975c.208.582.302 1.114.283 1.598-.018.484-.194.934-.529 1.352l-6.394 7.765c-.287.363-3.061 3.257-2.03 6.143-1.031-2.886-5.017-3.386-5.47-3.488l-9.883-2.001c-.523-.113-.946-.352-1.267-.716-.321-.363-.586-.835-.793-1.416L0 9.236l13.598 3.38c1.023.254 1.92.667 2.69 1.236l.092-.033c.236-.925.67-1.809 1.303-2.65L26.084 0z" id="C"/><path d="m1.187 0 4.149 5.161c.31.389.53.801.656 1.235l.045.015a3.555 3.555 0 0 1 1.254-.627l6.387-1.806-1.073 3.341a2.015 2.015 0 0 1-.354.683 1.082 1.082 0 0 1-.59.358L7.014 9.457c-.213.055-2.092.352-2.537 1.735.37-1.152-.51-2.267-.897-2.703l-.1-.11-.058-.066-3.146-3.58a1.068 1.068 0 0 1-.271-.632c-.016-.228.02-.482.11-.76L1.187 0z" id="E"/><path d="m1.216 0 16.098 13.276c1.212 1 2.15 2.13 2.817 3.39l.146.016c.916-1.093 2.072-2.002 3.467-2.728l18.533-9.626-1.167 10.981c-.098.916-.315 1.692-.654 2.33-.338.639-.868 1.132-1.587 1.479l-13.63 6.336c-.62.305-6.226 2.416-6.71 6.959.484-4.543-4.553-7.776-5.096-8.204L1.439 15.172C.808 14.682.394 14.09.198 13.395 0 12.7-.05 11.896.048 10.98L1.217 0z" id="G"/><path d="m1.64 0 3.37 5.473c.252.413.413.836.482 1.27l.04.019a3.472 3.472 0 0 1 1.286-.452l6.373-.97-1.44 3.09a1.98 1.98 0 0 1-.425.615 1.049 1.049 0 0 1-.61.274l-4.614.496c-.212.027-2.059.087-2.655 1.365.596-1.278-.55-2.722-.666-2.901L.185 4.45a1.042 1.042 0 0 1-.184-.641c.012-.223.078-.463.198-.72L1.64 0z" id="I"/><path d="m.218 0 1.555 1.487c.117.113.205.236.264.371l.015.002c.103-.105.229-.19.378-.255l1.98-.85-.204 1.121a.65.65 0 0 1-.084.235.357.357 0 0 1-.175.14L2.496 2.8c-.066.027-.66.202-.743.666.084-.464-.41-.835-.462-.883L.125 1.563a.353.353 0 0 1-.114-.192.66.66 0 0 1 .003-.25L.218 0z" id="K"/><path d="m5.892 0 .348 1.576a.94.94 0 0 1 .018.353.496.496 0 0 1-.151.278L4.512 3.713c-.072.071-.751.621-.607 1.273-.144-.652-.993-.868-1.088-.902L.735 3.383a.497.497 0 0 1-.255-.188.952.952 0 0 1-.132-.329L0 1.291 2.847 2.39c.215.083.398.196.548.34l.021-.004c.077-.194.195-.374.354-.538L5.892 0z" id="M"/><path d="m11.426 0 1.439 20.444c.107 1.54-.063 2.974-.512 4.303l.088.114c1.405-.093 2.841.109 4.309.606l19.483 6.609-8.652 6.634c-.721.553-1.425.926-2.112 1.12-.686.193-1.399.153-2.137-.122L9.536 34.344c-.629-.229-5.76-2.68-9.336-.182l-.2.147.197-.159c3.271-2.747 2.308-8.15 2.21-8.984l-.004-.045L.719 10.469c-.078-.781.064-1.477.428-2.089.364-.612.906-1.193 1.627-1.746L11.426 0z" id="c"/><path d="m19.47 0 .56 5.207c.047.434.024.816-.069 1.145a1.6 1.6 0 0 1-.587.844l-5.683 4.293c-.257.203-2.644 1.74-2.412 3.894-.232-2.154-2.892-3.152-3.186-3.296L1.625 9.09a1.614 1.614 0 0 1-.754-.7C.71 8.088.607 7.72.56 7.285L0 2.079l8.795 4.553a5.302 5.302 0 0 1 1.646 1.292l.069-.008a5.307 5.307 0 0 1 1.334-1.61L19.47 0z" id="Q"/><path d="m.276 0 2.46 2.215c.185.166.326.352.423.557l.023.003c.152-.167.342-.303.568-.409L6.754.968l-.261 1.733a.994.994 0 0 1-.12.364.54.54 0 0 1-.261.224L3.908 4.2c-.101.043-1.004.34-1.112 1.056.108-.716-.668-1.263-.751-1.335L.205 2.406a.537.537 0 0 1-.183-.29 1.017 1.017 0 0 1-.007-.384L.275 0z" id="S"/><path d="m1.501 0 2.001 4.23c.15.319.233.639.248.958l.028.017c.291-.135.613-.21.967-.225l4.692-.196-1.29 2.122a1.425 1.425 0 0 1-.357.412.765.765 0 0 1-.465.15l-3.379-.007c-.156.003-1.498-.101-2.032.777.534-.878-.18-2.014-.25-2.153L.091 3.107c-.08-.159-.108-.319-.08-.479a1.42 1.42 0 0 1 .2-.506L1.501 0z" id="U"/><path d="m2.919 0 8.879 11.771c.668.887 1.127 1.819 1.378 2.795l.097.034c.812-.602 1.757-1.038 2.836-1.308l14.34-3.584-2.617 7.363c-.22.613-.497 1.112-.835 1.495-.34.384-.784.637-1.337.757l-10.423 2.125c-.477.108-4.683.642-5.766 3.688 1.083-3.046-1.847-6.096-2.15-6.479L.564 10.473c-.354-.439-.54-.915-.561-1.425-.02-.51.079-1.072.297-1.686L2.919 0z" id="W"/><path d="m.434 0 .892 1.45a.89.89 0 0 1 .128.336l.011.005c.1-.06.213-.1.34-.12l1.688-.256-.382.818A.504.504 0 0 1 3 2.395a.276.276 0 0 1-.162.073l-1.22.131c-.057.008-.546.023-.704.362.158-.339-.146-.721-.176-.768L.05 1.179A.277.277 0 0 1 0 1.009.536.536 0 0 1 .053.818L.434 0z" id="Y"/><path d="M.058.041.47.435a.31.31 0 0 1 .07.098.387.387 0 0 1 .104-.067l.524-.225-.054.297A.205.205 0 0 1 1.092.6a.092.092 0 0 1-.047.037L.66.782C.644.79.487.836.464.959.487.836.356.738.342.725l-.31-.27a.097.097 0 0 1-.03-.051.164.164 0 0 1 .002-.066L.058.041z" id="aa"/><path d="m1.56 0 .092.417a.256.256 0 0 1 .005.094.137.137 0 0 1-.04.073l-.423.399c-.019.019-.198.165-.16.337-.038-.172-.263-.23-.288-.239L.194.896a.131.131 0 0 1-.067-.05.23.23 0 0 1-.035-.087L0 .341l.754.292a.445.445 0 0 1 .145.09.536.536 0 0 1 .099-.144L1.56 0z" id="ac"/><path d="m5.03 0 .016 1.344a.783.783 0 0 1-.045.292.414.414 0 0 1-.171.201l-1.558.961c-.07.046-.718.381-.711.938-.007-.557-.663-.876-.735-.92l-1.58-.922a.407.407 0 0 1-.176-.197.79.79 0 0 1-.053-.29L0 .062l2.139 1.376c.161.104.29.227.389.37h.018a1.36 1.36 0 0 1 .38-.38L5.03 0z" id="ae"/><path d="m5.156 0 .148 1.378a.807.807 0 0 1-.018.304.426.426 0 0 1-.156.223L3.626 3.042c-.068.054-.7.46-.639 1.031-.061-.571-.766-.835-.844-.873L.431 2.406a.425.425 0 0 1-.2-.185.804.804 0 0 1-.082-.292L0 .55l2.329 1.206c.176.091.321.204.436.342l.018-.002c.084-.159.202-.301.353-.426L5.156 0z" id="ag"/><path d="m.074 0 .65.586a.475.475 0 0 1 .113.148.595.595 0 0 1 .156-.108l.796-.37-.07.459a.278.278 0 0 1-.031.096.134.134 0 0 1-.07.059l-.583.242c-.027.012-.266.09-.294.28.028-.19-.177-.335-.2-.354L.056.637A.14.14 0 0 1 .005.56a.247.247 0 0 1 0-.102L.074 0z" id="ai"/><path d="m.398 0 .53 1.12a.677.677 0 0 1 .065.254.863.863 0 0 1 .263-.055l1.243-.052-.342.562a.365.365 0 0 1-.094.109.197.197 0 0 1-.123.039l-.895-.001H.977c-.12.001-.36.025-.47.205.142-.232-.047-.533-.066-.57L.025.822A.195.195 0 0 1 .003.696.393.393 0 0 1 .056.562L.398 0z" id="ak"/><path d="m.773 0 2.35 3.117c.178.235.299.482.365.74l.026.009c.215-.159.466-.275.75-.346l3.798-.949-.693 1.949a1.195 1.195 0 0 1-.221.396.633.633 0 0 1-.354.201l-2.76.562c-.126.029-1.24.17-1.526.977.286-.807-.49-1.615-.57-1.716L.148 2.774a.637.637 0 0 1-.147-.378c-.006-.135.02-.284.078-.446L.773 0z" id="am"/><path d="m.553 0 3.453 3.444c.26.26.454.543.581.851l.034.007c.237-.235.526-.421.867-.559l4.528-1.834-.515 2.53a1.486 1.486 0 0 1-.204.528.794.794 0 0 1-.402.31L5.582 6.453c-.15.057-1.503.426-1.716 1.473.213-1.047-.888-1.911-1.005-2.022L.27 3.537a.798.798 0 0 1-.25-.441 1.478 1.478 0 0 1 .02-.565L.552 0z" id="ao"/><path d="m3.225 0 .048.863a.483.483 0 0 1-.021.188.255.255 0 0 1-.104.134l-.972.66-.074.05c-.13.09-.372.293-.356.571-.02-.357-.45-.543-.497-.569l-1.04-.548a.26.26 0 0 1-.118-.121.48.48 0 0 1-.043-.185L0 .181l1.411.823a.883.883 0 0 1 .26.226h.011a.864.864 0 0 1 .234-.254L3.225 0z" id="aq"/><path d="m4.116 0 .536 1.1a.73.73 0 0 1 .075.257.376.376 0 0 1-.062.232l-.909 1.39c-.041.065-.444.591-.222 1.046-.222-.455-.886-.466-.962-.474L.913 3.4a.378.378 0 0 1-.222-.095.706.706 0 0 1-.156-.218L0 1.986l2.294.31c.173.023.328.075.464.155l.015-.007a1.22 1.22 0 0 1 .166-.459L4.116 0z" id="as"/><path d="m13.963 0 .947 3.734c.079.311.102.591.068.841-.033.25-.147.475-.34.675l-3.694 3.709c-.167.174-1.746 1.537-1.354 3.082-.392-1.545-2.432-1.998-2.661-2.073L1.909 8.45a1.197 1.197 0 0 1-.621-.433 2.24 2.24 0 0 1-.341-.773L0 3.51l6.876 2.414c.518.182.961.439 1.332.772l.05-.013c.167-.468.436-.904.804-1.309L13.963 0z" id="au"/><path d="m13.988 0 1.336 3.74c.111.312.162.598.152.857-.01.259-.105.501-.284.725l-3.43 4.164c-.153.195-1.64 1.747-1.088 3.294-.552-1.547-2.69-1.815-2.933-1.87l-5.3-1.073a1.228 1.228 0 0 1-.68-.384 2.302 2.302 0 0 1-.425-.76L0 4.953l7.291 1.812c.55.137 1.03.357 1.443.663l.05-.018c.127-.496.359-.97.698-1.421L13.988 0z" id="aw"/><path d="m4.948 0 .115 1.323a.785.785 0 0 1-.024.29.415.415 0 0 1-.153.211L3.422 2.882c-.067.05-.68.427-.633.975-.047-.548-.716-.815-.79-.853L.375 2.21a.403.403 0 0 1-.187-.182.738.738 0 0 1-.073-.281L0 .424l2.206 1.201c.166.09.303.202.411.336l.017-.002a1.35 1.35 0 0 1 .347-.401L4.948 0z" id="ay"/><path d="m.636 0 2.225 2.768c.167.208.285.429.352.662l.024.008c.191-.151.415-.263.673-.336l3.425-.969-.575 1.792a1.088 1.088 0 0 1-.19.366.58.58 0 0 1-.316.192l-2.493.589c-.114.029-1.122.188-1.36.929.238-.741-.49-1.453-.566-1.543L.147 2.538a.578.578 0 0 1-.145-.339 1.079 1.079 0 0 1 .06-.407L.635 0z" id="aA"/></defs><g fill="none" fill-rule="evenodd"><g transform="translate(129.542)"><mask id="b" fill="#fff"><use xlink:href="#a"/></mask><path fill="#8C90A3" mask="url(#b)" d="M-5-5h66.78v56.872H-5z"/></g><g transform="translate(74.729 35.139)"><mask id="d" fill="#fff"><use xlink:href="#c"/></mask><path fill="#8C90A3" mask="url(#d)" d="M-5.004-5h46.237v49.95H-5.004z"/></g><g transform="translate(34.754 91.283)"><mask id="f" fill="#fff"><use xlink:href="#e"/></mask><path fill="#8C90A3" mask="url(#f)" d="M-5-5h16.513v15.52H-5z"/></g><g transform="translate(24.351 91.456)"><mask id="h" fill="#fff"><use xlink:href="#g"/></mask><path fill="#8C90A3" mask="url(#h)" d="M-5-5H7.177V6.712H-5z"/></g><g transform="translate(50.447 83.74)"><mask id="j" fill="#fff"><use xlink:href="#i"/></mask><path fill="#8C90A3" mask="url(#j)" d="M-5-5H8.095V7.462H-5z"/></g><g transform="translate(36.712 77.102)"><mask id="l" fill="#fff"><use xlink:href="#k"/></mask><path fill="#8C90A3" mask="url(#l)" d="M-5-5h19.41v16.967H-5z"/></g><g transform="translate(43.586 90.62)"><mask id="n" fill="#fff"><use xlink:href="#m"/></mask><path fill="#8C90A3" mask="url(#n)" d="M-5-5h19.902v17.595H-5z"/></g><g transform="translate(65.944 95.869)"><mask id="p" fill="#fff"><use xlink:href="#o"/></mask><path fill="#8C90A3" mask="url(#p)" d="M-5-5H8.335V7.595H-5z"/></g><g transform="translate(30.31 70.866)"><mask id="r" fill="#fff"><use xlink:href="#q"/></mask><path fill="#8C90A3" mask="url(#r)" d="M-5-5H9.66V9.067H-5z"/></g><g transform="translate(43.489 64.787)"><mask id="t" fill="#fff"><use xlink:href="#s"/></mask><path fill="#8C90A3" mask="url(#t)" d="M-5-5h25.034v22.41H-5z"/></g><g transform="translate(87.412 93.224)"><mask id="v" fill="#fff"><use xlink:href="#u"/></mask><path fill="#8C90A3" mask="url(#v)" d="M-5-5h28.676v24.779H-5z"/></g><g transform="translate(40.118 115.221)"><mask id="x" fill="#fff"><use xlink:href="#w"/></mask><path fill="#8C90A3" mask="url(#x)" d="M-5-5h16.106V9.598H-5z"/></g><g transform="translate(107.75 74.896)"><mask id="z" fill="#fff"><use xlink:href="#y"/></mask><path fill="#8C90A3" mask="url(#z)" d="M-5-5h18.817v17.507H-5z"/></g><g transform="translate(48.684 84.29)"><mask id="B" fill="#fff"><use xlink:href="#A"/></mask><path fill="#8C90A3" mask="url(#B)" d="M-5-5h37.958v32.454H-5z"/></g><g transform="translate(93.509 94.159)"><mask id="D" fill="#fff"><use xlink:href="#C"/></mask><path fill="#8C90A3" mask="url(#D)" d="M-5-5h38.86v33.833H-5z"/></g><g transform="translate(43.514 53.844)"><mask id="F" fill="#fff"><use xlink:href="#E"/></mask><path fill="#8C90A3" mask="url(#F)" d="M-5-5h23.678v21.191H-5z"/></g><g transform="translate(8.002 30.962)"><mask id="H" fill="#fff"><use xlink:href="#G"/></mask><path fill="#8C90A3" mask="url(#H)" d="M-5-5h52.277v42.413H-5z"/></g><g transform="translate(38.72 139.081)"><mask id="J" fill="#fff"><use xlink:href="#I"/></mask><path fill="#8C90A3" mask="url(#J)" d="M-5-5h23.191v21.18h-23.19z"/></g><g transform="translate(17.651 139.431)"><mask id="L" fill="#fff"><use xlink:href="#K"/></mask><path fill="#8C90A3" mask="url(#L)" d="M-5-5H9.41V8.466H-5z"/></g><g transform="translate(70.504 123.802)"><mask id="N" fill="#fff"><use xlink:href="#M"/></mask><path fill="#8C90A3" mask="url(#N)" d="M-5-5h16.268V9.986H-5z"/></g><g transform="translate(42.687 110.36)"><mask id="P" fill="#fff"><use xlink:href="#O"/></mask><path fill="#8C90A3" mask="url(#P)" d="M-5-5h29.058v24.11H-5z"/></g><g transform="translate(56.609 137.737)"><mask id="R" fill="#fff"><use xlink:href="#Q"/></mask><path fill="#8C90A3" mask="url(#R)" d="M-5-5h30.053v25.383H-5z"/></g><g transform="translate(101.891 148.369)"><mask id="T" fill="#fff"><use xlink:href="#S"/></mask><path fill="#8C90A3" mask="url(#T)" d="M-5-5h16.754v15.256H-5z"/></g><g transform="translate(29.722 97.728)"><mask id="V" fill="#fff"><use xlink:href="#U"/></mask><path fill="#8C90A3" mask="url(#V)" d="M-5-5h19.437v18.238H-5z"/></g><g transform="translate(56.41 85.417)"><mask id="X" fill="#fff"><use xlink:href="#W"/></mask><path fill="#8C90A3" mask="url(#X)" d="M-5-5h40.45v35.136H-5z"/></g><g transform="translate(5.579 134.369)"><mask id="Z" fill="#fff"><use xlink:href="#Y"/></mask><path fill="#8C90A3" mask="url(#Z)" d="M-5-5H8.493V7.96H-5z"/></g><g transform="translate(0 134.421)"><mask id="ab" fill="#fff"><use xlink:href="#aa"/></mask><path fill="#8C90A3" mask="url(#ab)" d="M-5-4.959H6.168V5.958H-5z"/></g><g transform="translate(13.995 130.324)"><mask id="ad" fill="#fff"><use xlink:href="#ac"/></mask><path fill="#8C90A3" mask="url(#ad)" d="M-5-5H6.66V6.32H-5z"/></g><g transform="translate(6.629 126.765)"><mask id="af" fill="#fff"><use xlink:href="#ae"/></mask><path fill="#8C90A3" mask="url(#af)" d="M-5-5h15.046V8.736H-5z"/></g><g transform="translate(10.315 134.014)"><mask id="ah" fill="#fff"><use xlink:href="#ag"/></mask><path fill="#8C90A3" mask="url(#ah)" d="M-5-5h15.31V9.073H-5z"/></g><g transform="translate(22.305 136.829)"><mask id="aj" fill="#fff"><use xlink:href="#ai"/></mask><path fill="#8C90A3" mask="url(#aj)" d="M-5-5H6.788V6.392H-5z"/></g><g transform="translate(3.196 123.42)"><mask id="al" fill="#fff"><use xlink:href="#ak"/></mask><path fill="#8C90A3" mask="url(#al)" d="M-5-5H7.499V7.18h-12.5z"/></g><g transform="translate(10.263 120.16)"><mask id="an" fill="#fff"><use xlink:href="#am"/></mask><path fill="#8C90A3" mask="url(#an)" d="M-5-5h18.062v16.656H-5z"/></g><g transform="translate(33.818 135.41)"><mask id="ap" fill="#fff"><use xlink:href="#ao"/></mask><path fill="#8C90A3" mask="url(#ap)" d="M-5-5h20.016v17.926H-5z"/></g><g transform="translate(8.456 147.206)"><mask id="ar" fill="#fff"><use xlink:href="#aq"/></mask><path fill="#8C90A3" mask="url(#ar)" d="M-5-5H8.274V7.466H-5z"/></g><g transform="translate(44.725 125.582)"><mask id="at" fill="#fff"><use xlink:href="#as"/></mask><path fill="#8C90A3" mask="url(#at)" d="M-5-5H9.728V9.023H-5z"/></g><g transform="translate(13.049 130.619)"><mask id="av" fill="#fff"><use xlink:href="#au"/></mask><path fill="#8C90A3" mask="url(#av)" d="M-5-5h24.993v22.041H-5z"/></g><g transform="translate(37.088 135.912)"><mask id="ax" fill="#fff"><use xlink:href="#aw"/></mask><path fill="#8C90A3" mask="url(#ax)" d="M-5-5h25.477v22.78H-5z"/></g><g transform="translate(72.195 138.744)"><mask id="az" fill="#fff"><use xlink:href="#ay"/></mask><path fill="#8C90A3" mask="url(#az)" d="M-5-5h15.066V8.857H-5z"/></g><g transform="translate(10.277 114.292)"><mask id="aB" fill="#fff"><use xlink:href="#aA"/></mask><path fill="#8C90A3" mask="url(#aB)" d="M-5-5h17.335v16.002H-5z"/></g></g></svg>