<?xml version="1.0" encoding="utf-8"?>
<!-- Generator: Adobe Illustrator 15.1.0, SVG Export Plug-In . SVG Version: 6.00 Build 0)  -->
<!DOCTYPE svg PUBLIC "-//W3C//DTD SVG 1.1//EN" "http://www.w3.org/Graphics/SVG/1.1/DTD/svg11.dtd">
<svg version="1.1" id="Layer_1" xmlns="http://www.w3.org/2000/svg" xmlns:xlink="http://www.w3.org/1999/xlink" x="0px" y="0px"
	 width="212.915px" height="37.366px" viewBox="0.753 140.694 212.915 37.366"
	 enable-background="new 0.753 140.694 212.915 37.366" xml:space="preserve">
<g>
	<g>
		<path fill="#EB2328" d="M96.669,165.003c2.859,0,4.542-3.335,4.772-3.698l4.839-8.031c0.267-0.423,0.604-0.719,1.023-0.886
			c0.42-0.169,0.914-0.253,1.49-0.253h6.914L108.5,162.99c-0.543,0.815-1.187,1.475-1.926,1.971v0.091
			c0.739,0.496,1.383,1.151,1.926,1.972l7.209,10.854h-6.914c-0.575,0-1.071-0.084-1.491-0.254
			c-0.421-0.166-0.763-0.463-1.023-0.887l-4.838-8.029C101.211,168.338,99.528,165.003,96.669,165.003z"/>
		<path fill="#FFFFFF" d="M23.909,140.826v6.418H9.147v8.539h12.294v6.442H9.147v15.426H0.753v-36.825H23.909z"/>
		<path fill="#FFFFFF" d="M34.169,140.694v36.958h-7.652v-36.958H34.169z"/>
		<path fill="#FFFFFF" d="M50.73,151.656c1.941,0,3.711,0.306,5.308,0.912c1.597,0.608,2.966,1.48,4.11,2.617
			s2.032,2.515,2.666,4.135c0.634,1.621,0.951,3.444,0.951,5.471c0,2.04-0.317,3.879-0.951,5.52
			c-0.634,1.639-1.522,3.025-2.666,4.172c-1.145,1.146-2.514,2.021-4.11,2.645c-1.596,0.617-3.366,0.926-5.308,0.926
			c-1.959,0-3.74-0.311-5.346-0.926c-1.604-0.617-2.986-1.496-4.146-2.645c-1.16-1.146-2.059-2.533-2.691-4.172
			c-0.634-1.641-0.95-3.479-0.95-5.52c0-2.023,0.316-3.85,0.95-5.471c0.633-1.62,1.531-2.998,2.691-4.135
			c1.16-1.137,2.543-2.009,4.146-2.617C46.989,151.961,48.771,151.656,50.73,151.656z M50.73,172.37
			c1.761,0,3.057-0.621,3.888-1.863c0.831-1.241,1.247-3.131,1.247-5.667c0-2.533-0.416-4.419-1.247-5.652s-2.127-1.853-3.888-1.853
			c-1.811,0-3.136,0.616-3.975,1.853c-0.84,1.233-1.26,3.119-1.26,5.652c0,2.536,0.42,4.425,1.26,5.667
			C47.594,171.749,48.919,172.37,50.73,172.37z"/>
		<path fill="#FFFFFF" d="M85.647,158.124c-0.23,0.278-0.452,0.502-0.667,0.666c-0.213,0.164-0.518,0.246-0.913,0.246
			c-0.379,0-0.72-0.091-1.024-0.271c-0.305-0.182-0.646-0.384-1.024-0.604c-0.379-0.223-0.823-0.425-1.333-0.604
			c-0.511-0.183-1.145-0.271-1.901-0.271c-0.938,0-1.749,0.173-2.432,0.52c-0.683,0.346-1.247,0.84-1.69,1.479
			c-0.445,0.643-0.774,1.43-0.988,2.356c-0.214,0.932-0.32,1.979-0.32,3.147c0,2.451,0.473,4.337,1.419,5.651
			c0.946,1.315,2.251,1.978,3.913,1.978c0.889,0,1.592-0.109,2.111-0.334c0.518-0.225,0.958-0.469,1.32-0.74
			c0.361-0.27,0.695-0.52,1-0.754c0.305-0.229,0.688-0.346,1.148-0.346c0.607,0,1.068,0.223,1.382,0.666l2.222,2.739
			c-0.79,0.904-1.621,1.644-2.493,2.21s-1.765,1.014-2.679,1.333c-0.914,0.32-1.831,0.543-2.752,0.666
			c-0.922,0.124-1.819,0.188-2.691,0.188c-1.564,0-3.058-0.297-4.48-0.891c-1.424-0.594-2.676-1.451-3.753-2.58
			c-1.078-1.127-1.935-2.515-2.567-4.158c-0.634-1.646-0.951-3.521-0.951-5.628c0-1.846,0.275-3.566,0.828-5.174
			c0.551-1.604,1.365-2.994,2.443-4.173c1.078-1.177,2.411-2.104,4-2.775c1.588-0.676,3.427-1.013,5.518-1.013
			c2.008,0,3.769,0.319,5.283,0.963c1.514,0.644,2.879,1.579,4.098,2.813L85.647,158.124z"/>
		<path fill="#FFFFFF" d="M97.64,166.32v11.332h-7.653v-36.958h7.653v20.714V166.32z"/>
		<path fill="#FFFFFF" d="M117.292,177.652V152.05h4.541c0.379,0,0.691,0.033,0.949,0.1c0.258,0.065,0.471,0.169,0.645,0.311
			s0.307,0.324,0.396,0.557c0.092,0.229,0.168,0.511,0.232,0.84l0.42,2.396c0.938-1.448,1.989-2.594,3.159-3.434
			c1.169-0.84,2.443-1.259,3.826-1.259c1.168,0,2.104,0.278,2.812,0.839l-0.984,5.629c-0.062,0.347-0.197,0.59-0.396,0.729
			c-0.197,0.141-0.461,0.209-0.789,0.209c-0.281,0-0.606-0.035-0.987-0.109c-0.38-0.073-0.854-0.11-1.433-0.11
			c-2.01,0-3.59,1.069-4.74,3.209v15.702h-7.649L117.292,177.652L117.292,177.652z"/>
		<path fill="#FFFFFF" d="M143.841,152.05v16.244c0,1.271,0.287,2.248,0.865,2.938c0.574,0.689,1.422,1.036,2.541,1.036
			c0.84,0,1.627-0.175,2.357-0.519c0.729-0.35,1.44-0.832,2.137-1.457V152.05h7.652v25.604h-4.74c-0.953,0-1.58-0.429-1.877-1.282
			l-0.469-1.479c-0.494,0.479-1.004,0.909-1.531,1.297c-0.525,0.388-1.09,0.717-1.689,0.987c-0.602,0.271-1.246,0.482-1.938,0.643
			c-0.691,0.157-1.447,0.232-2.271,0.232c-1.396,0-2.637-0.241-3.715-0.729c-1.078-0.483-1.988-1.163-2.729-2.036
			c-0.742-0.871-1.302-1.897-1.681-3.086c-0.379-1.189-0.565-2.482-0.565-3.9v-16.25H143.841z"/>
		<path fill="#FFFFFF" d="M180.126,157.656c-0.195,0.312-0.404,0.534-0.629,0.665c-0.225,0.133-0.506,0.198-0.854,0.198
			c-0.361,0-0.728-0.078-1.086-0.234c-0.361-0.155-0.754-0.323-1.175-0.507c-0.42-0.181-0.896-0.351-1.42-0.506
			s-1.129-0.233-1.803-0.233c-0.974,0-1.718,0.188-2.231,0.557c-0.521,0.37-0.777,0.886-0.777,1.544
			c0,0.478,0.168,0.871,0.508,1.186c0.336,0.312,0.783,0.589,1.346,0.826c0.561,0.238,1.191,0.466,1.898,0.68
			c0.707,0.215,1.434,0.453,2.174,0.717c0.74,0.265,1.465,0.571,2.172,0.927c0.709,0.354,1.342,0.79,1.9,1.31
			c0.561,0.52,1.01,1.147,1.348,1.889c0.336,0.74,0.506,1.629,0.506,2.666c0,1.271-0.229,2.438-0.689,3.506
			c-0.461,1.07-1.146,1.992-2.062,2.768c-0.912,0.771-2.041,1.375-3.381,1.805c-1.345,0.43-2.888,0.644-4.631,0.644
			c-0.871,0-1.744-0.082-2.615-0.246c-0.873-0.164-1.717-0.388-2.53-0.666c-0.812-0.279-1.564-0.612-2.259-1
			c-0.692-0.388-1.285-0.804-1.774-1.247l1.774-2.812c0.213-0.33,0.472-0.588,0.769-0.775c0.295-0.188,0.684-0.282,1.158-0.282
			c0.442,0,0.844,0.099,1.196,0.296c0.354,0.197,0.733,0.411,1.146,0.645c0.412,0.229,0.896,0.443,1.441,0.645
			c0.555,0.196,1.248,0.296,2.086,0.296c0.596,0,1.098-0.062,1.51-0.187c0.408-0.125,0.738-0.293,0.984-0.508
			s0.432-0.451,0.543-0.717c0.115-0.265,0.172-0.535,0.172-0.812c0-0.513-0.172-0.933-0.518-1.261
			c-0.346-0.33-0.799-0.612-1.357-0.854c-0.559-0.238-1.195-0.462-1.912-0.667s-1.443-0.438-2.186-0.702
			c-0.742-0.267-1.471-0.58-2.186-0.951c-0.72-0.371-1.354-0.84-1.914-1.408c-0.562-0.564-1.015-1.263-1.357-2.086
			c-0.346-0.82-0.52-1.816-0.52-2.984c0-1.087,0.211-2.118,0.631-3.101c0.418-0.979,1.049-1.839,1.889-2.58
			c0.84-0.738,1.895-1.327,3.16-1.765c1.268-0.438,2.748-0.654,4.443-0.654c0.92,0,1.812,0.082,2.678,0.246
			c0.865,0.165,1.676,0.396,2.434,0.69c0.756,0.298,1.447,0.646,2.072,1.051c0.627,0.402,1.178,0.844,1.654,1.319L180.126,157.656z"
			/>
		<path fill="#FFFFFF" d="M185.263,177.652v-36.958h7.65v13.604c0.922-0.79,1.922-1.429,3-1.914
			c1.078-0.484,2.365-0.729,3.863-0.729c1.396,0,2.639,0.241,3.717,0.729c1.076,0.485,1.986,1.161,2.729,2.023
			c0.737,0.863,1.299,1.895,1.678,3.086c0.381,1.192,0.565,2.489,0.565,3.89v16.271h-7.649v-16.271c0-1.251-0.289-2.227-0.863-2.926
			c-0.576-0.699-1.426-1.05-2.543-1.05c-0.842,0-1.629,0.183-2.369,0.543c-0.74,0.361-1.449,0.849-2.123,1.457v18.244H185.263
			L185.263,177.652z"/>
	</g>
</g>
<g>
	<path fill="#FFFFFF" d="M213.668,149.98c0,1.768-1.389,3.155-3.193,3.155c-1.787,0-3.213-1.388-3.213-3.155
		c0-1.729,1.426-3.117,3.213-3.117C212.28,146.863,213.668,148.25,213.668,149.98z M208.061,149.98c0,1.388,1.026,2.49,2.433,2.49
		c1.368,0,2.377-1.103,2.377-2.471c0-1.388-1.008-2.51-2.396-2.51S208.061,148.612,208.061,149.98z M209.98,151.615h-0.723v-3.117
		c0.285-0.057,0.685-0.096,1.197-0.096c0.59,0,0.856,0.096,1.084,0.229c0.171,0.133,0.305,0.381,0.305,0.685
		c0,0.343-0.267,0.608-0.646,0.723v0.038c0.305,0.114,0.476,0.342,0.57,0.76c0.095,0.476,0.151,0.666,0.228,0.78h-0.779
		c-0.095-0.114-0.151-0.399-0.246-0.761c-0.058-0.342-0.247-0.494-0.646-0.494h-0.343V151.615L209.98,151.615z M209.999,149.847
		h0.343c0.399,0,0.722-0.133,0.722-0.456c0-0.285-0.209-0.476-0.665-0.476c-0.19,0-0.323,0.02-0.399,0.038V149.847z"/>
</g>
</svg>
