<svg xmlns="http://www.w3.org/2000/svg" width="790" height="549" viewBox="0 0 790 548.5"><style>.a{fill:#FFF;}</style><rect width="790" height="548.5" fill="#F5A623"/><g opacity="0.1"><path d="M379.4 407.3c3.6-7.8-3.3-16.6-4-17.6l-15.7-23.3c-0.8-1.3-1.2-2.6-1.1-3.9 0.1-1.4 0.5-2.8 1.2-4.4l8.7-18.8 20.4 33.3c1.5 2.5 2.5 5.1 2.9 7.7l0.2 0.1c2.3-1.4 4.9-2.3 7.8-2.7l38.6-5.9 -8.7 18.8c-0.7 1.6-1.6 2.8-2.6 3.7 -1 0.9-2.2 1.5-3.7 1.7l-27.9 3C394.2 399.2 383 399.6 379.4 407.3" class="a"/><path d="M241.5 362.5c0.5-2.8-2.5-5.1-2.8-5.4l-7.1-6.2c-0.4-0.3-0.6-0.7-0.7-1.2 -0.1-0.4-0.1-0.9 0-1.5l1.2-6.8 9.4 9.1c0.7 0.7 1.2 1.4 1.6 2.3l0.1 0c0.6-0.6 1.4-1.2 2.3-1.5l12-5.2 -1.2 6.8c-0.1 0.6-0.3 1-0.5 1.4 -0.2 0.4-0.6 0.7-1.1 0.9l-8.8 3.3C245.6 358.6 242 359.7 241.5 362.5" class="a"/><path d="M574.7 276.7c-0.9-4-6-5.3-6.6-5.5l-12.6-4.3c-0.7-0.2-1.2-0.6-1.5-1.1 -0.4-0.5-0.6-1.2-0.8-2l-2.1-9.6 17.3 6.7c1.3 0.5 2.4 1.2 3.3 2.1l0.1 0c0.5-1.2 1.2-2.3 2.1-3.3l12.9-13.3 2.1 9.6c0.2 0.8 0.2 1.5 0.1 2.1 -0.1 0.6-0.4 1.2-0.9 1.7l-9.7 9.2C578 269.4 573.8 272.7 574.7 276.7" class="a"/><path d="M441.1 250.4c-0.2-12.8-15.2-20.1-16.8-21.1l-36.2-21.2c-1.9-1.2-3.2-2.7-4-4.5 -0.8-1.9-1.2-4.1-1.2-6.7l-0.4-30.9 48.9 31.6c3.7 2.4 6.7 5.2 8.9 8.5l0.4 0c2.2-3.3 5.1-6.2 8.7-8.7l48.1-32.8 0.4 30.9c0 2.6-0.3 4.8-1 6.7s-2 3.4-3.9 4.6l-35.6 22.1C455.8 229.9 441 237.6 441.1 250.4" class="a"/><path d="M535.2 424.7c-1.4-13.1 13.1-22.5 14.6-23.7l34.4-26.1c1.8-1.4 3-3.1 3.6-5.1 0.6-2 0.7-4.3 0.4-7l-3.4-31.7 -46.2 38.4c-3.5 2.9-6.2 6.2-8.1 9.8l-0.4 0c-2.6-3.1-6-5.8-10-7.9l-53.3-27.7 3.4 31.7c0.3 2.6 0.9 4.9 1.9 6.7 1 1.8 2.5 3.3 4.6 4.3l39.2 18.2C517.7 405.6 533.8 411.6 535.2 424.7" class="a"/><path d="M690.5 230.1c0.9-13.1 16.8-19.8 18.5-20.8l38.5-19.7c2-1.1 3.5-2.6 4.4-4.4 0.9-1.9 1.4-4.1 1.6-6.8l2.2-31.8 -52.2 29.7c-3.9 2.2-7.2 5-9.7 8.2l-0.4 0c-2-3.6-4.9-6.7-8.4-9.5l-47.6-36.6 -2.2 31.8c-0.2 2.6 0 5 0.7 6.9 0.6 2 1.9 3.6 3.8 5l35.4 24.8C676.6 208.1 691.4 216.9 690.5 230.1" class="a"/><defs><filter filterUnits="userSpaceOnUse" x="741.2" y="395.8" width="40.9" height="32"><feColorMatrix type="matrix" values="1 0 0 0 0  0 1 0 0 0  0 0 1 0 0  0 0 0 1 0"/></filter></defs><mask maskUnits="userSpaceOnUse" x="741.2" y="395.8" width="40.9" height="32"><g filter="url(#Adobe_OpacityMaskFilter)"><polygon points="741.2 395.8 782.1 395.8 782.1 427.8 741.2 427.8 " class="a"/></g></mask><path mask="url(#SVGID_1_)" d="M758.1 427.8c0.7-4.4 6.1-6.2 6.7-6.4l13.4-5.5c0.7-0.3 1.2-0.8 1.6-1.4 0.4-0.6 0.6-1.3 0.7-2.2l1.6-10.5 -18.2 8.5c-1.4 0.6-2.5 1.5-3.4 2.5l-0.1 0c-0.6-1.2-1.4-2.4-2.6-3.4l-14.9-13.5 -1.6 10.5c-0.1 0.9-0.1 1.7 0 2.3 0.2 0.7 0.5 1.3 1.1 1.8l11.1 9.2C754.1 420.1 758.8 423.4 758.1 427.8" class="a"/><path d="M315.6 137.8c3.2-5.3 11.4-4.7 12.3-4.7l20.5 0c1.1 0 2-0.3 2.8-0.9 0.8-0.6 1.5-1.4 2.2-2.5l7.8-12.9 -28.4 1.2c-2.1 0.1-4.1 0.5-5.9 1.4l-0.2-0.1c-0.1-1.9-0.6-3.9-1.5-5.8l-12.1-25.7 -7.8 12.9c-0.7 1.1-1.1 2.1-1.2 3.1 -0.2 1 0 1.9 0.5 2.9l9.5 18.1C314.5 125.6 318.8 132.5 315.6 137.8" class="a"/><defs><filter filterUnits="userSpaceOnUse" x="465.7" y="12.8" width="184.5" height="152.9"><feColorMatrix type="matrix" values="1 0 0 0 0  0 1 0 0 0  0 0 1 0 0  0 0 0 1 0"/></filter></defs><mask maskUnits="userSpaceOnUse" x="465.7" y="12.8" width="184.5" height="152.9"><g filter="url(#Adobe_OpacityMaskFilter_1_)"><polygon points="465.7 12.8 650.1 12.8 650.1 165.8 465.7 165.8 " class="a"/></g></mask><path mask="url(#SVGID_2_)" d="M523.1 165.8c6.6-18.5 32-21.8 34.9-22.4l63.1-12.9c3.3-0.7 6-2.3 8.1-4.6 2.1-2.3 3.7-5.4 5.1-9.1l15.9-44.8 -86.9 21.8c-6.5 1.6-12.3 4.3-17.2 8l-0.6-0.2c-1.5-5.9-4.3-11.6-8.3-17l-53.8-71.6 -15.9 44.8c-1.3 3.7-1.9 7.2-1.8 10.3 0.1 3.1 1.3 6 3.4 8.7l40.9 49.8C511.9 128.7 529.6 147.2 523.1 165.8" class="a"/><path d="M287.6 239.4c11.6-9 28.9-0.7 31 0.1l44.8 17.5c2.4 0.9 4.7 1 6.9 0.4 2.2-0.6 4.5-1.8 6.9-3.7l28.1-21.6 -63.3-21.6c-4.8-1.6-9.4-2.3-14-2l-0.3-0.4c1.5-4.3 2-9 1.7-14l-4.7-66.7 -28.1 21.6c-2.3 1.8-4.1 3.7-5.3 5.7 -1.2 2-1.6 4.3-1.4 6.8l5.5 47.8C295.6 211.6 299.2 230.5 287.6 239.4" class="a"/><path d="M163.3 328.7c1-2.1-0.9-4.4-1.1-4.7l-4.2-6.2c-0.2-0.3-0.3-0.7-0.3-1 0-0.4 0.1-0.7 0.3-1.2l2.3-5 5.4 8.8c0.4 0.7 0.7 1.3 0.8 2l0.1 0c0.6-0.4 1.3-0.6 2.1-0.7l10.2-1.6 -2.3 5c-0.2 0.4-0.4 0.7-0.7 1 -0.3 0.2-0.6 0.4-1 0.4l-7.4 0.8C167.2 326.5 164.2 326.6 163.3 328.7" class="a"/><path d="M126.8 316.8c0.1-0.7-0.7-1.3-0.7-1.4l-1.9-1.6c-0.1-0.1-0.2-0.2-0.2-0.3 0-0.1 0-0.2 0-0.4l0.3-1.8 2.5 2.4c0.2 0.2 0.3 0.4 0.4 0.6l0 0c0.2-0.2 0.4-0.3 0.6-0.4l3.2-1.4 -0.3 1.8c0 0.2-0.1 0.3-0.1 0.4 -0.1 0.1-0.2 0.2-0.3 0.2l-2.3 0.9C127.8 315.8 126.9 316.1 126.8 316.8" class="a"/><path d="M215 294.1c-0.2-1.1-1.6-1.4-1.7-1.5l-3.3-1.1c-0.2-0.1-0.3-0.2-0.4-0.3 -0.1-0.1-0.2-0.3-0.2-0.5l-0.6-2.5 4.6 1.8c0.3 0.1 0.6 0.3 0.9 0.5l0 0c0.1-0.3 0.3-0.6 0.6-0.9l3.4-3.5 0.6 2.5c0 0.2 0.1 0.4 0 0.6 0 0.2-0.1 0.3-0.2 0.4l-2.6 2.4C215.9 292.1 214.8 293 215 294.1" class="a"/><path d="M179.6 287.1c0-3.4-4-5.3-4.5-5.6l-9.6-5.6c-0.5-0.3-0.9-0.7-1.1-1.2 -0.2-0.5-0.3-1.1-0.3-1.8l-0.1-8.2 13 8.4c1 0.6 1.8 1.4 2.4 2.3l0.1 0c0.6-0.9 1.3-1.7 2.3-2.3l12.7-8.7 0.1 8.2c0 0.7-0.1 1.3-0.3 1.8 -0.2 0.5-0.5 0.9-1 1.2l-9.4 5.8C183.5 281.7 179.6 283.7 179.6 287.1" class="a"/><path d="M204.5 333.3c-0.4-3.5 3.5-5.9 3.9-6.3l9.1-6.9c0.5-0.4 0.8-0.8 0.9-1.4 0.2-0.5 0.2-1.1 0.1-1.8l-0.9-8.4 -12.2 10.2c-0.9 0.8-1.6 1.6-2.1 2.6l-0.1 0c-0.7-0.8-1.6-1.5-2.6-2.1l-14.1-7.3 0.9 8.4c0.1 0.7 0.2 1.3 0.5 1.8 0.3 0.5 0.7 0.9 1.2 1.1l10.4 4.8C199.9 328.2 204.2 329.8 204.5 333.3" class="a"/><path d="M263.6 334.1c0.2-1.2 1.6-1.6 1.8-1.7l3.5-1.5c0.2-0.1 0.3-0.2 0.4-0.4 0.1-0.2 0.2-0.4 0.2-0.6l0.4-2.8 -4.8 2.3c-0.4 0.2-0.7 0.4-0.9 0.7l0 0c-0.2-0.3-0.4-0.6-0.7-0.9l-3.9-3.6 -0.4 2.8c0 0.2 0 0.4 0 0.6 0 0.2 0.1 0.3 0.3 0.5l3 2.4C262.5 332 263.7 332.9 263.6 334.1" class="a"/><path d="M146.4 257.3c0.9-1.4 3-1.2 3.3-1.3l5.4 0c0.3 0 0.5-0.1 0.7-0.2 0.2-0.2 0.4-0.4 0.6-0.7l2.1-3.4 -7.5 0.3c-0.6 0-1.1 0.1-1.5 0.4l0 0c0-0.5-0.2-1-0.4-1.5l-3.2-6.8 -2.1 3.4c-0.2 0.3-0.3 0.6-0.3 0.8 0 0.3 0 0.5 0.1 0.8l2.5 4.8C146.1 254.1 147.2 255.9 146.4 257.3" class="a"/><path d="M201.3 264.7c1.7-4.9 8.5-5.8 9.2-5.9l16.7-3.4c0.9-0.2 1.6-0.6 2.1-1.2 0.5-0.6 1-1.4 1.3-2.4l4.2-11.9 -23 5.8c-1.7 0.4-3.2 1.1-4.5 2.1l-0.2-0.1c-0.4-1.6-1.1-3.1-2.2-4.5l-14.2-19 -4.2 11.9c-0.4 1-0.5 1.9-0.5 2.7 0 0.8 0.3 1.6 0.9 2.3l10.8 13.2C198.4 254.9 203.1 259.8 201.3 264.7" class="a"/><path d="M352.2 365.2c1.3-6.4-5.4-11.6-6.1-12.3l-15.7-14.4c-0.8-0.8-1.3-1.7-1.5-2.7 -0.2-1-0.1-2.2 0.1-3.4l3.1-15.4 20.9 21c1.6 1.6 2.7 3.3 3.5 5.2l0.2 0c1.4-1.4 3.2-2.6 5.3-3.4l27.4-11.2 -3.1 15.4c-0.3 1.3-0.7 2.4-1.2 3.2 -0.6 0.9-1.4 1.5-2.4 1.9l-20.1 7.2C361.7 356.6 353.5 358.8 352.2 365.2" class="a"/><path d="M185.8 403.8c-0.1-2.2-2.7-3.3-3-3.5l-6.3-3.3c-0.3-0.2-0.6-0.4-0.7-0.7 -0.1-0.3-0.2-0.7-0.3-1.1l-0.3-5.2 8.5 5c0.6 0.4 1.2 0.8 1.6 1.4l0.1 0c0.3-0.6 0.8-1.1 1.4-1.5l7.9-5.9 0.3 5.2c0 0.4 0 0.8-0.1 1.1 -0.1 0.3-0.3 0.6-0.6 0.8l-5.9 4C188.1 400.2 185.6 401.6 185.8 403.8" class="a"/><path d="M416.3 281.7c-1.3-2.8-5.4-2.8-5.8-2.9l-10.1-0.9c-0.5-0.1-1-0.2-1.3-0.6 -0.4-0.3-0.7-0.8-0.9-1.3l-3.2-6.7 13.9 1.9c1 0.1 2 0.5 2.8 0.9l0.1 0c0.1-0.9 0.5-1.9 1-2.8l7.1-12.1 3.2 6.7c0.3 0.6 0.4 1.1 0.5 1.6 0 0.5-0.1 1-0.4 1.4l-5.5 8.5C417.4 275.7 415 278.9 416.3 281.7" class="a"/><path d="M261.1 361.1c-2.4-9.4-14.7-12.2-16.1-12.6l-30.4-9.2c-1.6-0.5-2.9-1.4-3.8-2.6 -0.9-1.2-1.6-2.8-2.1-4.7l-5.7-22.7 41.7 14.7c3.1 1.1 5.8 2.7 8.1 4.7l0.3-0.1c1-2.8 2.6-5.5 4.9-8l29.7-32.7 5.7 22.7c0.5 1.9 0.6 3.6 0.4 5.1 -0.2 1.5-0.9 2.9-2.1 4.1l-22.4 22.6C268.3 343.4 258.7 351.7 261.1 361.1" class="a"/><path d="M413.3 397.8c-3.3-9.4 5.7-18.9 6.6-20l20.8-25.3c1.1-1.4 1.7-2.8 1.7-4.4 0.1-1.6-0.2-3.3-0.9-5.2l-8.1-22.8 -27.3 36.4c-2.1 2.7-3.5 5.6-4.2 8.6l-0.3 0.1c-2.5-1.9-5.4-3.2-8.7-4l-44.2-11 8.1 22.8c0.7 1.9 1.5 3.4 2.6 4.6s2.4 2 4.1 2.3l32.1 6.5C397 386.7 409.9 388.4 413.3 397.8" class="a"/><path d="M578.2 360.7c-0.3-3.3 3.4-5.6 3.8-5.9l8.9-6.4c0.5-0.3 0.8-0.8 0.9-1.3 0.2-0.5 0.2-1.1 0.1-1.8l-0.7-8.1 -11.9 9.5c-0.9 0.7-1.6 1.5-2.1 2.4l-0.1 0c-0.7-0.8-1.5-1.5-2.5-2l-13.4-7.3 0.7 8.1c0.1 0.7 0.2 1.2 0.4 1.7 0.2 0.5 0.6 0.8 1.1 1.1l9.8 4.8C573.9 355.8 577.9 357.4 578.2 360.7" class="a"/><path d="M200.7 225c1.4-4.5 7.6-5.5 8.2-5.7l15.1-3.6c0.8-0.2 1.4-0.6 1.9-1.2 0.5-0.6 0.9-1.3 1.2-2.2l3.5-10.9 -20.7 5.9c-1.6 0.4-2.9 1.1-4.1 2l-0.1 0c-0.4-1.4-1.1-2.8-2.1-4l-13.5-16.8 -3.5 10.9c-0.3 0.9-0.4 1.7-0.4 2.5 0.1 0.7 0.3 1.4 0.9 2.1l10.2 11.7C197.8 216.2 202.2 220.5 200.7 225" class="a"/><path d="M131 219.6c1.6-14.8 19.8-21.7 21.8-22.7l44.3-20.7c2.3-1.1 4.1-2.7 5.2-4.8 1.1-2.1 1.8-4.6 2.1-7.6l3.8-35.8 -60.2 31.4c-4.5 2.4-8.3 5.3-11.3 8.9l-0.5-0.1c-2.2-4.1-5.2-7.8-9.2-11.1l-52.3-43.3 -3.8 35.8c-0.3 3-0.2 5.6 0.5 7.9 0.6 2.3 2 4.2 4 5.8l39 29.5C116.2 194.2 132.6 204.8 131 219.6" class="a"/><path d="M181.8 503.1c1.9-4.2-1.8-8.9-2.2-9.5l-8.4-12.5c-0.4-0.7-0.6-1.4-0.6-2.1s0.3-1.5 0.6-2.3l4.7-10.1 10.9 17.9c0.8 1.3 1.3 2.7 1.6 4.1l0.1 0.1c1.2-0.7 2.6-1.2 4.2-1.5l20.7-3.2 -4.7 10.1c-0.4 0.8-0.8 1.5-1.4 2 -0.5 0.5-1.2 0.8-2 0.9l-15 1.6C189.8 498.7 183.8 498.9 181.8 503.1" class="a"/><path d="M107.9 479c0.3-1.5-1.3-2.7-1.5-2.9l-3.8-3.3c-0.2-0.2-0.3-0.4-0.4-0.6 0-0.2 0-0.5 0-0.8l0.7-3.7 5.1 4.9c0.4 0.4 0.7 0.8 0.9 1.2l0 0c0.3-0.3 0.7-0.6 1.2-0.8l6.4-2.8 -0.7 3.7c-0.1 0.3-0.1 0.6-0.3 0.8s-0.3 0.4-0.6 0.5l-4.7 1.8C110.1 477 108.2 477.5 107.9 479" class="a"/><path d="M286.6 433c-0.5-2.1-3.2-2.8-3.5-2.9l-6.8-2.3c-0.4-0.1-0.6-0.3-0.8-0.6 -0.2-0.3-0.3-0.6-0.4-1.1l-1.1-5.1 9.3 3.6c0.7 0.3 1.3 0.6 1.8 1.1l0.1 0c0.3-0.6 0.6-1.2 1.2-1.8l6.9-7.1 1.1 5.1c0.1 0.4 0.1 0.8 0.1 1.1 -0.1 0.3-0.2 0.6-0.5 0.9l-5.2 4.9C288.3 429.1 286.1 430.9 286.6 433" class="a"/><path d="M214.9 418.9c-0.1-6.9-8.1-10.8-9-11.3l-19.4-11.4c-1-0.6-1.7-1.4-2.2-2.4 -0.4-1-0.6-2.2-0.6-3.6l-0.2-16.6 26.2 17c2 1.3 3.6 2.8 4.8 4.6l0.2 0c1.2-1.8 2.7-3.3 4.7-4.7l25.8-17.6 0.2 16.6c0 1.4-0.2 2.6-0.6 3.6 -0.4 1-1.1 1.8-2.1 2.5l-19.1 11.8C222.8 407.9 214.9 412.1 214.9 418.9" class="a"/><path d="M265.4 512.4c-0.8-7 7-12 7.8-12.7l18.5-14c1-0.8 1.6-1.7 1.9-2.8 0.3-1.1 0.4-2.3 0.2-3.7L292 462.2l-24.8 20.6c-1.9 1.6-3.3 3.3-4.3 5.3l-0.2 0c-1.4-1.7-3.2-3.1-5.3-4.2l-28.6-14.9 1.8 17c0.2 1.4 0.5 2.6 1 3.6 0.5 1 1.3 1.7 2.4 2.3l21 9.8C256 502.1 264.6 505.4 265.4 512.4" class="a"/><path d="M384.9 514.1c0.4-2.3 3.3-3.3 3.6-3.4l7.2-3c0.4-0.2 0.7-0.4 0.9-0.7 0.2-0.3 0.3-0.7 0.4-1.2l0.9-5.7 -9.8 4.6c-0.7 0.3-1.4 0.8-1.8 1.3l-0.1 0c-0.3-0.7-0.8-1.3-1.4-1.8l-8-7.2 -0.8 5.6c-0.1 0.5-0.1 0.9 0 1.3 0.1 0.4 0.3 0.7 0.6 0.9l6 4.9C382.8 509.9 385.3 511.7 384.9 514.1" class="a"/><path d="M147.6 358.6c1.7-2.9 6.1-2.5 6.6-2.5l11 0c0.6 0 1.1-0.2 1.5-0.5 0.4-0.3 0.8-0.8 1.2-1.3l4.2-6.9 -15.2 0.6c-1.1 0.1-2.2 0.3-3.1 0.7l-0.1-0.1c0-1-0.3-2.1-0.8-3.1l-6.5-13.8 -4.2 6.9c-0.4 0.6-0.6 1.1-0.7 1.6 -0.1 0.5 0 1 0.3 1.6l5.1 9.7C147 352 149.4 355.7 147.6 358.6" class="a"/><path d="M258.9 373.5c3.5-9.9 17.2-11.7 18.7-12l33.9-6.9c1.8-0.4 3.2-1.2 4.3-2.5 1.1-1.3 2-2.9 2.7-4.9l8.5-24 -46.6 11.7c-3.5 0.9-6.6 2.3-9.2 4.3l-0.3-0.1c-0.8-3.2-2.3-6.2-4.5-9.1l-28.8-38.4 -8.5 24c-0.7 2-1 3.8-1 5.5s0.7 3.2 1.8 4.7l22 26.7C252.9 353.6 262.4 363.6 258.9 373.5" class="a"/><path d="M65.9 460.9c0.5-1.1-0.5-2.4-0.6-2.5l-2.2-3.3c-0.1-0.2-0.2-0.4-0.2-0.6 0-0.2 0.1-0.4 0.2-0.6l1.2-2.7 2.9 4.7c0.2 0.4 0.4 0.7 0.4 1.1l0 0c0.3-0.2 0.7-0.3 1.1-0.4l5.5-0.8 -1.2 2.7c-0.1 0.2-0.2 0.4-0.4 0.5 -0.1 0.1-0.3 0.2-0.5 0.2l-4 0.4C68 459.7 66.4 459.8 65.9 460.9" class="a"/><path d="M46.4 454.5c0.1-0.4-0.4-0.7-0.4-0.8l-1-0.9c-0.1 0-0.1-0.1-0.1-0.2 0-0.1 0-0.1 0-0.2l0.2-1 1.3 1.3c0.1 0.1 0.2 0.2 0.2 0.3l0 0c0.1-0.1 0.2-0.2 0.3-0.2l1.7-0.7 -0.2 1c0 0.1 0 0.1-0.1 0.2 0 0.1-0.1 0.1-0.1 0.1l-1.2 0.5C46.9 454 46.4 454.1 46.4 454.5" class="a"/><path d="M93.7 442.3c-0.1-0.6-0.9-0.7-0.9-0.8l-1.8-0.6c-0.1 0-0.2-0.1-0.2-0.2 -0.1-0.1-0.1-0.2-0.1-0.3l-0.3-1.4 2.5 1c0.2 0.1 0.3 0.2 0.5 0.3l0 0c0.1-0.2 0.2-0.3 0.3-0.5l1.8-1.9 0.3 1.4c0 0.1 0 0.2 0 0.3 0 0.1-0.1 0.2-0.1 0.2l-1.4 1.3C94.1 441.3 93.5 441.8 93.7 442.3" class="a"/><path d="M74.7 438.6c0-1.8-2.2-2.9-2.4-3l-5.1-3c-0.3-0.2-0.5-0.4-0.6-0.6 -0.1-0.3-0.2-0.6-0.2-0.9l-0.1-4.4 6.9 4.5c0.5 0.3 0.9 0.7 1.3 1.2l0.1 0c0.3-0.5 0.7-0.9 1.2-1.2l6.8-4.7 0.1 4.4c0 0.4 0 0.7-0.1 1 -0.1 0.3-0.3 0.5-0.6 0.7l-5.1 3.1C76.8 435.7 74.7 436.8 74.7 438.6" class="a"/><path d="M88.1 463.4c-0.2-1.9 1.9-3.2 2.1-3.4l4.9-3.7c0.3-0.2 0.4-0.4 0.5-0.7 0.1-0.3 0.1-0.6 0.1-1l-0.5-4.5 -6.6 5.4c-0.5 0.4-0.9 0.9-1.1 1.4l-0.1 0c-0.4-0.4-0.8-0.8-1.4-1.1l-7.6-3.9 0.5 4.5c0 0.4 0.1 0.7 0.3 1 0.1 0.3 0.4 0.5 0.6 0.6l5.6 2.6C85.6 460.6 87.9 461.5 88.1 463.4" class="a"/><path d="M119.7 463.8c0.1-0.6 0.9-0.9 1-0.9l1.9-0.8c0.1 0 0.2-0.1 0.2-0.2 0.1-0.1 0.1-0.2 0.1-0.3l0.2-1.5 -2.6 1.2c-0.2 0.1-0.4 0.2-0.5 0.4l0 0c-0.1-0.2-0.2-0.3-0.4-0.5l-2.1-1.9 -0.2 1.5c0 0.1 0 0.2 0 0.3 0 0.1 0.1 0.2 0.2 0.2l1.6 1.3C119.1 462.7 119.8 463.2 119.7 463.8" class="a"/><path d="M56.9 422.6c0.5-0.8 1.6-0.7 1.7-0.7l2.9 0c0.2 0 0.3 0 0.4-0.1 0.1-0.1 0.2-0.2 0.3-0.4l1.1-1.8 -4 0.2c-0.3 0-0.6 0.1-0.8 0.2l0 0c0-0.3-0.1-0.6-0.2-0.8l-1.7-3.7 -1.1 1.8c-0.1 0.2-0.1 0.3-0.2 0.4 0 0.1 0 0.3 0.1 0.4l1.4 2.6C56.7 420.9 57.3 421.9 56.9 422.6" class="a"/><path d="M86.3 426.6c0.9-2.6 4.5-3.1 5-3.2l9-1.8c0.5-0.1 0.9-0.3 1.1-0.7 0.3-0.3 0.5-0.8 0.7-1.3l2.3-6.4 -12.3 3.1c-0.9 0.2-1.7 0.6-2.4 1.1l-0.1 0c-0.2-0.8-0.6-1.6-1.2-2.4l-7.6-10.2 -2.3 6.4c-0.2 0.5-0.3 1-0.3 1.5 0 0.4 0.2 0.9 0.5 1.2l5.8 7.1C84.7 421.3 87.3 423.9 86.3 426.6" class="a"/><path d="M167.3 480.5c0.7-3.4-2.9-6.2-3.3-6.6l-8.4-7.7c-0.4-0.4-0.7-0.9-0.8-1.4 -0.1-0.5-0.1-1.2 0.1-1.8l1.7-8.3 11.2 11.2c0.8 0.8 1.5 1.8 1.9 2.8l0.1 0c0.8-0.8 1.7-1.4 2.8-1.8l14.7-6 -1.7 8.3c-0.1 0.7-0.4 1.3-0.7 1.7 -0.3 0.5-0.7 0.8-1.3 1l-10.8 3.8C172.4 475.9 168 477.1 167.3 480.5" class="a"/><path d="M78 501.2c-0.1-1.2-1.5-1.8-1.6-1.9l-3.4-1.8c-0.2-0.1-0.3-0.2-0.4-0.4 -0.1-0.2-0.1-0.4-0.1-0.6l-0.2-2.8 4.6 2.7c0.3 0.2 0.6 0.4 0.8 0.7l0 0c0.2-0.3 0.4-0.6 0.8-0.8l4.3-3.2 0.2 2.8c0 0.2 0 0.4-0.1 0.6 -0.1 0.2-0.2 0.3-0.3 0.4l-3.2 2.2C79.2 499.2 77.9 500 78 501.2" class="a"/><path d="M201.6 435.7c-0.7-1.5-2.9-1.5-3.1-1.5l-5.4-0.5c-0.3 0-0.5-0.1-0.7-0.3 -0.2-0.2-0.4-0.4-0.5-0.7l-1.7-3.6 7.5 1c0.6 0.1 1.1 0.2 1.5 0.5l0 0c0.1-0.5 0.3-1 0.5-1.5l3.8-6.5 1.7 3.6c0.1 0.3 0.2 0.6 0.2 0.8 0 0.3 0 0.5-0.2 0.8l-3 4.5C202.2 432.5 200.9 434.2 201.6 435.7" class="a"/><path d="M118.4 478.3c-1.3-5-7.9-6.5-8.6-6.8l-16.3-5c-0.9-0.3-1.5-0.7-2-1.4 -0.5-0.7-0.9-1.5-1.1-2.5l-3.1-12.2 22.3 7.9c1.7 0.6 3.1 1.4 4.3 2.5l0.2 0c0.5-1.5 1.4-2.9 2.6-4.3l15.9-17.5 3.1 12.2c0.3 1 0.3 1.9 0.2 2.7 -0.1 0.8-0.5 1.5-1.1 2.2l-12 12.1C122.2 468.8 117.1 473.2 118.4 478.3" class="a"/><path d="M200 498c-1.8-5 3-10.1 3.5-10.7l11.1-13.6c0.6-0.7 0.9-1.5 0.9-2.4 0-0.8-0.1-1.8-0.5-2.8l-4.3-12.2L196.1 475.8c-1.1 1.5-1.9 3-2.3 4.6l-0.2 0.1c-1.3-1-2.9-1.7-4.7-2.2l-23.7-5.9 4.3 12.2c0.4 1 0.8 1.8 1.4 2.5 0.6 0.6 1.3 1.1 2.2 1.3l17.2 3.5C191.3 492 198.2 492.9 200 498" class="a"/><path d="M288.4 478.1c-0.2-1.8 1.8-3 2.1-3.2l4.8-3.5c0.3-0.2 0.4-0.4 0.5-0.7 0.1-0.3 0.1-0.6 0.1-0.9l-0.4-4.3 -6.4 5.1c-0.5 0.4-0.9 0.8-1.1 1.3l-0.1 0c-0.3-0.4-0.8-0.8-1.3-1.1l-7.2-3.9 0.4 4.3c0 0.4 0.1 0.7 0.2 0.9 0.1 0.3 0.3 0.5 0.6 0.6l5.3 2.6C286.1 475.4 288.3 476.3 288.4 478.1" class="a"/><path d="M86 405.3c0.8-2.4 4-2.9 4.4-3l8.1-1.9c0.4-0.1 0.8-0.3 1-0.6 0.3-0.3 0.5-0.7 0.6-1.2l1.9-5.8 -11.1 3.2c-0.8 0.2-1.6 0.6-2.2 1.1l-0.1 0c-0.2-0.8-0.6-1.5-1.1-2.2l-7.2-9 -1.9 5.8c-0.2 0.5-0.2 0.9-0.2 1.3 0 0.4 0.2 0.8 0.5 1.1l5.5 6.3C84.4 400.6 86.8 402.9 86 405.3" class="a"/><defs><filter filterUnits="userSpaceOnUse" x="16.4" y="345.7" width="73.7" height="56.7"><feColorMatrix type="matrix" values="1 0 0 0 0  0 1 0 0 0  0 0 1 0 0  0 0 0 1 0"/></filter></defs><mask maskUnits="userSpaceOnUse" x="16.4" y="345.7" width="73.7" height="56.7"><g filter="url(#Adobe_OpacityMaskFilter_2_)"><polygon points="16.4 345.7 90 345.7 90 402.4 16.4 402.4 " class="a"/></g></mask><path mask="url(#SVGID_3_)" d="M48.6 402.4c0.8-7.9 10.6-11.6 11.7-12.2l23.7-11.1c1.3-0.6 2.2-1.5 2.8-2.6 0.6-1.1 1-2.5 1.1-4.1l2-19.2L57.7 370.1c-2.4 1.3-4.4 2.9-6 4.8l-0.3 0c-1.2-2.2-2.8-4.2-4.9-5.9l-28-23.2 -2 19.2c-0.2 1.6-0.1 3 0.3 4.2 0.3 1.2 1.1 2.3 2.2 3.1l20.9 15.8C40.7 388.8 49.5 394.4 48.6 402.4" class="a"/></g><g opacity="0.05"><path d="M239 257.8c2.3-4.9-2.1-10.5-2.6-11.2l-10-14.7c-0.5-0.8-0.8-1.6-0.7-2.5 0-0.9 0.3-1.8 0.8-2.8l5.5-11.9 12.9 21.1c1 1.6 1.6 3.2 1.9 4.9l0.2 0.1c1.4-0.9 3.1-1.5 4.9-1.7l24.4-3.7 -5.5 11.9c-0.5 1-1 1.8-1.6 2.4 -0.6 0.6-1.4 0.9-2.3 1.1l-17.7 1.9C248.3 252.7 241.2 252.9 239 257.8" class="a"/><path d="M151.6 229.5c0.3-1.8-1.6-3.2-1.8-3.4l-4.5-3.9c-0.2-0.2-0.4-0.5-0.4-0.7 -0.1-0.3-0.1-0.6 0-1l0.8-4.3 6 5.7c0.4 0.4 0.8 0.9 1 1.4l0.1 0c0.4-0.4 0.9-0.7 1.4-1l7.6-3.3 -0.8 4.3c-0.1 0.4-0.2 0.7-0.3 0.9 -0.2 0.2-0.4 0.4-0.7 0.5l-5.6 2.1C154.2 227 152 227.7 151.6 229.5" class="a"/><path d="M362.6 175.1c-0.6-2.5-3.8-3.3-4.2-3.5l-8-2.7c-0.4-0.1-0.7-0.4-1-0.7 -0.2-0.3-0.4-0.8-0.5-1.3l-1.3-6.1 10.9 4.2c0.8 0.3 1.5 0.8 2.1 1.3l0.1 0c0.3-0.7 0.7-1.4 1.4-2.1l8.1-8.4 1.3 6.1c0.1 0.5 0.1 1 0.1 1.4 -0.1 0.4-0.3 0.8-0.6 1.1l-6.1 5.8C364.7 170.5 362.1 172.6 362.6 175.1" class="a"/><path d="M278 158.5c-0.1-8.1-9.6-12.7-10.6-13.4l-22.9-13.4c-1.2-0.7-2.1-1.7-2.5-2.9 -0.5-1.2-0.7-2.6-0.8-4.2l-0.2-19.6 31 20c2.3 1.5 4.2 3.3 5.6 5.4l0.3 0c1.4-2.1 3.2-4 5.5-5.5l30.5-20.8 0.2 19.6c0 1.6-0.2 3-0.7 4.2 -0.5 1.2-1.3 2.2-2.5 2.9l-22.6 14C287.3 145.5 277.9 150.4 278 158.5" class="a"/><path d="M337.6 268.8c-0.9-8.3 8.3-14.2 9.3-15l21.8-16.5c1.1-0.9 1.9-2 2.3-3.2 0.4-1.3 0.4-2.7 0.3-4.4l-2.1-20.1 -29.2 24.3c-2.2 1.8-3.9 3.9-5.1 6.2l-0.3 0c-1.7-2-3.8-3.7-6.3-5l-33.7-17.5 2.2 20.1c0.2 1.7 0.6 3.1 1.2 4.3 0.6 1.2 1.6 2.1 2.9 2.7l24.8 11.5C326.5 256.7 336.7 260.5 337.6 268.8" class="a"/><path d="M435.9 145.6c0.6-8.3 10.6-12.6 11.7-13.1L472 120c1.3-0.7 2.2-1.6 2.8-2.8 0.6-1.2 0.9-2.6 1-4.3l1.4-20.1 -33.1 18.8c-2.5 1.4-4.5 3.2-6.1 5.2l-0.3 0c-1.3-2.3-3.1-4.3-5.3-6l-30.1-23.2 -1.4 20.1c-0.1 1.7 0 3.1 0.4 4.4 0.4 1.3 1.2 2.3 2.4 3.2l22.4 15.7C427.1 131.7 436.5 137.3 435.9 145.6" class="a"/><defs><filter filterUnits="userSpaceOnUse" x="468" y="250.5" width="25.9" height="20.2"><feColorMatrix type="matrix" values="1 0 0 0 0  0 1 0 0 0  0 0 1 0 0  0 0 0 1 0"/></filter></defs><mask maskUnits="userSpaceOnUse" x="468" y="250.5" width="25.9" height="20.2"><g filter="url(#Adobe_OpacityMaskFilter_3_)"><polygon points="468 250.5 493.9 250.5 493.9 270.8 468 270.8 " class="a"/></g></mask><path mask="url(#mask-2_5_)" d="M478.7 270.8c0.4-2.8 3.9-3.9 4.3-4.1l8.5-3.5c0.4-0.2 0.8-0.5 1-0.9 0.2-0.4 0.4-0.8 0.5-1.4l1-6.7 -11.5 5.4c-0.9 0.4-1.6 0.9-2.2 1.6l-0.1 0c-0.4-0.8-0.9-1.5-1.6-2.1l-9.4-8.5 -1 6.7c-0.1 0.6-0.1 1 0 1.5 0.1 0.4 0.3 0.8 0.7 1.1l7.1 5.8C476.2 265.9 479.2 268 478.7 270.8" class="a"/><path d="M198.6 87.2c2-3.4 7.2-3 7.8-3l13 0c0.7 0 1.3-0.2 1.8-0.6 0.5-0.4 1-0.9 1.4-1.6l4.9-8.2 -18 0.8c-1.4 0.1-2.6 0.3-3.7 0.9l-0.1-0.1c-0.1-1.2-0.4-2.5-1-3.7l-7.7-16.3 -4.9 8.2c-0.4 0.7-0.7 1.3-0.8 1.9 -0.1 0.6 0 1.2 0.3 1.8l6 11.5C197.9 79.4 200.6 83.8 198.6 87.2" class="a"/><defs><filter filterUnits="userSpaceOnUse" x="293.6" y="8" width="116.8" height="96.8"><feColorMatrix type="matrix" values="1 0 0 0 0  0 1 0 0 0  0 0 1 0 0  0 0 0 1 0"/></filter></defs><mask maskUnits="userSpaceOnUse" x="293.6" y="8" width="116.8" height="96.8"><g filter="url(#Adobe_OpacityMaskFilter_4_)"><polygon points="293.6 8 410.4 8 410.4 104.9 293.6 104.9 " class="a"/></g></mask><path mask="url(#mask-4_5_)" d="M329.9 104.9c4.2-11.7 20.3-13.8 22.1-14.2l40-8.2c2.1-0.5 3.8-1.4 5.1-2.9 1.3-1.5 2.4-3.4 3.2-5.8l10-28.4 -55 13.8c-4.1 1-7.8 2.7-10.9 5l-0.4-0.1c-1-3.8-2.7-7.3-5.3-10.8L304.8 8l-10 28.4c-0.8 2.4-1.2 4.5-1.1 6.5s0.8 3.8 2.1 5.5l25.9 31.5C322.8 81.4 334.1 93.1 329.9 104.9" class="a"/><path d="M180.8 151.5c7.4-5.7 18.3-0.4 19.6 0.1l28.4 11.1c1.5 0.6 3 0.7 4.4 0.3 1.4-0.4 2.9-1.2 4.3-2.3l17.8-13.7 -40.1-13.6c-3-1-6-1.4-8.9-1.3l-0.2-0.2c0.9-2.7 1.3-5.7 1.1-8.9l-3-42.2 -17.8 13.7c-1.5 1.1-2.6 2.3-3.3 3.6 -0.7 1.3-1 2.7-0.9 4.3l3.5 30.3C185.9 133.9 188.2 145.8 180.8 151.5" class="a"/><path d="M102.1 208c0.6-1.3-0.6-2.8-0.7-3l-2.6-3.9c-0.1-0.2-0.2-0.4-0.2-0.7 0-0.2 0.1-0.5 0.2-0.7l1.5-3.1 3.4 5.6c0.3 0.4 0.4 0.9 0.5 1.3l0 0c0.4-0.2 0.8-0.4 1.3-0.5l6.5-1 -1.5 3.1c-0.1 0.3-0.3 0.5-0.4 0.6 -0.2 0.2-0.4 0.3-0.6 0.3l-4.7 0.5C104.6 206.7 102.7 206.7 102.1 208" class="a"/><path d="M79 200.5c0.1-0.5-0.4-0.9-0.5-0.9l-1.2-1c-0.1-0.1-0.1-0.1-0.1-0.2 0-0.1 0-0.2 0-0.3l0.2-1.1 1.6 1.5c0.1 0.1 0.2 0.2 0.3 0.4l0 0c0.1-0.1 0.2-0.2 0.4-0.3l2-0.9 -0.2 1.1c0 0.1 0 0.2-0.1 0.2 0 0.1-0.1 0.1-0.2 0.1l-1.5 0.6C79.7 199.9 79.1 200 79 200.5" class="a"/><path d="M134.9 186.1c-0.1-0.7-1-0.9-1.1-0.9l-2.1-0.7c-0.1 0-0.2-0.1-0.3-0.2 -0.1-0.1-0.1-0.2-0.1-0.3l-0.4-1.6 2.9 1.1c0.2 0.1 0.4 0.2 0.6 0.3l0 0c0.1-0.2 0.2-0.4 0.4-0.5l2.2-2.2 0.4 1.6c0 0.1 0 0.3 0 0.4 0 0.1-0.1 0.2-0.2 0.3l-1.6 1.5C135.4 184.9 134.7 185.4 134.9 186.1" class="a"/><path d="M112.5 181.7c0-2.1-2.5-3.4-2.8-3.5l-6.1-3.6c-0.3-0.2-0.5-0.4-0.7-0.8 -0.1-0.3-0.2-0.7-0.2-1.1l-0.1-5.2 8.2 5.3c0.6 0.4 1.1 0.9 1.5 1.4l0.1 0c0.4-0.6 0.9-1 1.5-1.5l8.1-5.5 0.1 5.2c0 0.4-0.1 0.8-0.2 1.1s-0.3 0.6-0.7 0.8l-6 3.7C114.9 178.3 112.4 179.6 112.5 181.7" class="a"/><path d="M128.2 210.9c-0.2-2.2 2.2-3.8 2.5-4l5.8-4.4c0.3-0.2 0.5-0.5 0.6-0.9 0.1-0.3 0.1-0.7 0.1-1.2l-0.6-5.3 -7.7 6.4c-0.6 0.5-1 1-1.4 1.6l-0.1 0c-0.4-0.5-1-1-1.7-1.3l-8.9-4.6 0.6 5.3c0 0.4 0.2 0.8 0.3 1.1 0.2 0.3 0.4 0.5 0.8 0.7l6.6 3.1C125.3 207.7 128 208.7 128.2 210.9" class="a"/><path d="M165.6 211.4c0.1-0.7 1-1 1.1-1.1l2.2-0.9c0.1-0.1 0.2-0.1 0.3-0.2 0.1-0.1 0.1-0.2 0.1-0.4l0.3-1.8 -3.1 1.4c-0.2 0.1-0.4 0.2-0.6 0.4l0 0c-0.1-0.2-0.2-0.4-0.4-0.6l-2.5-2.3 -0.3 1.8c0 0.1 0 0.3 0 0.4 0 0.1 0.1 0.2 0.2 0.3l1.9 1.5C164.9 210.2 165.7 210.7 165.6 211.4" class="a"/><path d="M91.4 162.8c0.5-0.9 1.9-0.8 2.1-0.8l3.4 0c0.2 0 0.3-0.1 0.5-0.2 0.1-0.1 0.3-0.2 0.4-0.4l1.3-2.2 -4.8 0.2c-0.4 0-0.7 0.1-1 0.2l0 0c0-0.3-0.1-0.6-0.3-1l-2-4.3 -1.3 2.2c-0.1 0.2-0.2 0.4-0.2 0.5 0 0.2 0 0.3 0.1 0.5l1.6 3C91.2 160.8 92 161.9 91.4 162.8" class="a"/><path d="M126.2 167.5c1.1-3.1 5.4-3.6 5.9-3.8l10.6-2.2c0.6-0.1 1-0.4 1.4-0.8 0.3-0.4 0.6-0.9 0.8-1.5l2.7-7.5 -14.6 3.7c-1.1 0.3-2.1 0.7-2.9 1.3l-0.1 0c-0.3-1-0.7-1.9-1.4-2.8l-9-12 -2.7 7.5c-0.2 0.6-0.3 1.2-0.3 1.7 0 0.5 0.2 1 0.6 1.5l6.9 8.3C124.3 161.3 127.3 164.4 126.2 167.5" class="a"/><path d="M221.8 231.2c0.8-4-3.4-7.4-3.9-7.8l-9.9-9.1c-0.5-0.5-0.8-1.1-1-1.7 -0.1-0.6-0.1-1.4 0.1-2.2l2-9.7 13.2 13.3c1 1 1.7 2.1 2.2 3.3l0.1 0c0.9-0.9 2-1.6 3.3-2.2l17.4-7.1 -2 9.8c-0.2 0.8-0.4 1.5-0.8 2 -0.4 0.5-0.9 0.9-1.5 1.2l-12.7 4.5C227.8 225.7 222.6 227.1 221.8 231.2" class="a"/><path d="M116.3 255.6c-0.1-1.4-1.7-2.1-1.9-2.2l-4-2.1c-0.2-0.1-0.4-0.3-0.5-0.5 -0.1-0.2-0.1-0.4-0.2-0.7l-0.2-3.3 5.4 3.2c0.4 0.2 0.7 0.5 1 0.9l0 0c0.2-0.4 0.5-0.7 0.9-1l5-3.8 0.2 3.3c0 0.3 0 0.5-0.1 0.7 -0.1 0.2-0.2 0.4-0.4 0.5l-3.7 2.5C117.8 253.3 116.3 254.2 116.3 255.6" class="a"/><path d="M262.3 178.3c-0.8-1.8-3.4-1.8-3.7-1.8l-6.4-0.6c-0.3 0-0.6-0.2-0.8-0.4 -0.2-0.2-0.4-0.5-0.6-0.8l-2.1-4.2 8.8 1.2c0.7 0.1 1.3 0.3 1.8 0.6l0.1 0c0.1-0.6 0.3-1.2 0.6-1.8l4.5-7.6L266.6 167c0.2 0.4 0.3 0.7 0.3 1 0 0.3-0.1 0.6-0.2 0.9l-3.5 5.4C263 174.5 261.5 176.5 262.3 178.3" class="a"/><path d="M164 228.5c-1.5-5.9-9.3-7.7-10.2-8l-19.3-5.9c-1-0.3-1.8-0.9-2.4-1.7 -0.6-0.8-1-1.8-1.3-3l-3.6-14.4 26.4 9.3c2 0.7 3.7 1.7 5.1 3l0.2 0c0.6-1.8 1.7-3.5 3.1-5l18.8-20.7 3.6 14.4c0.3 1.2 0.4 2.3 0.3 3.2 -0.1 1-0.6 1.8-1.3 2.6l-14.2 14.3C168.6 217.3 162.5 222.6 164 228.5" class="a"/><path d="M260.4 251.8c-2.1-6 3.6-11.9 4.2-12.7l13.2-16c0.7-0.9 1.1-1.8 1.1-2.8 0-1-0.2-2.1-0.6-3.3l-5.1-14.4 -17.3 23.1c-1.3 1.7-2.2 3.6-2.7 5.5l-0.2 0.1c-1.6-1.2-3.4-2-5.5-2.6l-28-7 5.1 14.4c0.4 1.2 1 2.2 1.6 2.9 0.7 0.7 1.5 1.2 2.6 1.5l20.3 4.1C250.1 244.8 258.3 245.8 260.4 251.8" class="a"/><path d="M364.8 228.3c-0.2-2.1 2.2-3.6 2.4-3.8l5.6-4.1c0.3-0.2 0.5-0.5 0.6-0.8 0.1-0.3 0.1-0.7 0.1-1.1l-0.4-5.1 -7.5 6c-0.6 0.5-1 1-1.3 1.5l-0.1 0c-0.4-0.5-0.9-0.9-1.6-1.3l-8.5-4.6 0.4 5.1c0 0.4 0.1 0.8 0.3 1.1 0.2 0.3 0.4 0.5 0.7 0.7l6.2 3.1C362.1 225.2 364.6 226.2 364.8 228.3" class="a"/><path d="M125.8 142.4c0.9-2.9 4.8-3.5 5.2-3.6l9.6-2.3c0.5-0.1 0.9-0.4 1.2-0.7 0.3-0.4 0.5-0.8 0.7-1.4l2.2-6.9 -13.1 3.7c-1 0.3-1.8 0.7-2.6 1.3l-0.1 0c-0.3-0.9-0.7-1.7-1.4-2.6l-8.5-10.7 -2.2 6.9c-0.2 0.6-0.3 1.1-0.2 1.6 0 0.5 0.2 0.9 0.6 1.3l6.5 7.4C124 136.8 126.8 139.5 125.8 142.4" class="a"/><path d="M81.7 139c1-9.4 12.5-13.7 13.8-14.4l28-13.1c1.5-0.7 2.6-1.7 3.3-3.1 0.7-1.3 1.1-2.9 1.3-4.8l2.4-22.7 -38.1 19.9c-2.9 1.5-5.2 3.4-7.1 5.6l-0.3 0c-1.4-2.6-3.3-4.9-5.8-7L46.1 72l-2.4 22.7c-0.2 1.9-0.1 3.6 0.3 5 0.4 1.4 1.3 2.7 2.6 3.7l24.7 18.7C72.3 122.9 82.7 129.6 81.7 139" class="a"/><path d="M113.9 318.4c1.2-2.6-1.1-5.6-1.4-6l-5.3-7.9c-0.3-0.4-0.4-0.9-0.4-1.3 0-0.5 0.2-1 0.4-1.5l3-6.4 6.9 11.3c0.5 0.9 0.9 1.7 1 2.6l0.1 0c0.8-0.5 1.7-0.8 2.6-0.9l13.1-2 -3 6.4c-0.2 0.5-0.5 1-0.9 1.3s-0.8 0.5-1.3 0.6l-9.5 1C118.9 315.7 115.1 315.8 113.9 318.4" class="a"/><path d="M67 303.2c0.2-1-0.8-1.7-0.9-1.8l-2.4-2.1c-0.1-0.1-0.2-0.2-0.2-0.4 0-0.1 0-0.3 0-0.5l0.4-2.3 3.2 3.1c0.2 0.2 0.4 0.5 0.5 0.8l0 0c0.2-0.2 0.5-0.4 0.8-0.5l4.1-1.8 -0.4 2.3c0 0.2-0.1 0.4-0.2 0.5 -0.1 0.1-0.2 0.2-0.4 0.3l-3 1.1C68.4 301.9 67.2 302.3 67 303.2" class="a"/><path d="M180.2 274.1c-0.3-1.3-2-1.8-2.2-1.9l-4.3-1.4c-0.2-0.1-0.4-0.2-0.5-0.4 -0.1-0.2-0.2-0.4-0.3-0.7l-0.7-3.3 5.9 2.3c0.4 0.2 0.8 0.4 1.1 0.7l0 0c0.2-0.4 0.4-0.8 0.7-1.1l4.4-4.5 0.7 3.3c0.1 0.3 0.1 0.5 0 0.7 0 0.2-0.1 0.4-0.3 0.6l-3.3 3.1C181.3 271.6 179.9 272.7 180.2 274.1" class="a"/><path d="M134.8 265.2c-0.1-4.3-5.1-6.8-5.7-7.2l-12.3-7.2c-0.6-0.4-1.1-0.9-1.4-1.5 -0.3-0.6-0.4-1.4-0.4-2.3l-0.1-10.5 16.6 10.7c1.3 0.8 2.3 1.8 3 2.9l0.1 0c0.7-1.1 1.7-2.1 3-3l16.3-11.1 0.1 10.5c0 0.9-0.1 1.6-0.4 2.3 -0.2 0.6-0.7 1.2-1.3 1.6l-12.1 7.5C139.8 258.2 134.8 260.8 134.8 265.2" class="a"/><path d="M166.8 324.4c-0.5-4.5 4.4-7.6 5-8l11.7-8.9c0.6-0.5 1-1.1 1.2-1.7 0.2-0.7 0.2-1.5 0.1-2.4l-1.2-10.8 -15.7 13c-1.2 1-2.1 2.1-2.7 3.3l-0.1 0c-0.9-1.1-2-2-3.4-2.7l-18.1-9.4 1.2 10.8c0.1 0.9 0.3 1.7 0.6 2.3 0.3 0.6 0.8 1.1 1.6 1.4l13.3 6.2C160.8 317.8 166.3 319.9 166.8 324.4" class="a"/><path d="M242.5 325.4c0.2-1.5 2.1-2.1 2.3-2.2l4.5-1.9c0.2-0.1 0.4-0.3 0.5-0.5 0.1-0.2 0.2-0.5 0.2-0.8l0.5-3.6 -6.2 2.9c-0.5 0.2-0.9 0.5-1.2 0.8l0 0c-0.2-0.4-0.5-0.8-0.9-1.1l-5.1-4.6 -0.5 3.6c0 0.3 0 0.6 0 0.8 0.1 0.2 0.2 0.4 0.4 0.6l3.8 3.1C241.1 322.8 242.7 323.9 242.5 325.4" class="a"/><path d="M92.2 226.9c1.1-1.8 3.9-1.6 4.2-1.6l7 0c0.4 0 0.7-0.1 1-0.3 0.3-0.2 0.5-0.5 0.7-0.9l2.7-4.4 -9.7 0.4c-0.7 0-1.4 0.2-2 0.5l-0.1 0c0-0.7-0.2-1.3-0.5-2l-4.1-8.7 -2.7 4.4c-0.2 0.4-0.4 0.7-0.4 1 -0.1 0.3 0 0.7 0.2 1l3.2 6.2C91.8 222.8 93.3 225.1 92.2 226.9" class="a"/><path d="M162.6 236.4c2.2-6.3 10.9-7.4 11.9-7.6l21.4-4.4c1.1-0.2 2.1-0.8 2.7-1.6 0.7-0.8 1.3-1.8 1.7-3.1l5.4-15.2 -29.5 7.4c-2.2 0.6-4.2 1.5-5.8 2.7l-0.2-0.1c-0.5-2-1.5-3.9-2.8-5.8l-18.3-24.3 -5.4 15.2c-0.4 1.3-0.7 2.4-0.6 3.5 0 1.1 0.4 2 1.2 2.9l13.9 16.9C158.8 223.8 164.9 230.1 162.6 236.4" class="a"/><path d="M40.5 291.7c0.3-0.7-0.3-1.5-0.4-1.6l-1.4-2.1c-0.1-0.1-0.1-0.2-0.1-0.4 0-0.1 0-0.3 0.1-0.4l0.8-1.7 1.8 3c0.1 0.2 0.2 0.5 0.3 0.7l0 0c0.2-0.1 0.4-0.2 0.7-0.2l3.5-0.5 -0.8 1.7c-0.1 0.1-0.1 0.3-0.2 0.3 -0.1 0.1-0.2 0.1-0.3 0.2l-2.5 0.3C41.8 291 40.8 291 40.5 291.7" class="a"/><path d="M28.1 287.7c0-0.3-0.2-0.5-0.3-0.5l-0.6-0.6c0 0-0.1-0.1-0.1-0.1 0 0 0-0.1 0-0.1l0.1-0.6 0.8 0.8c0.1 0.1 0.1 0.1 0.1 0.2l0 0c0.1-0.1 0.1-0.1 0.2-0.1l1.1-0.5 -0.1 0.6c0 0.1 0 0.1 0 0.1 0 0-0.1 0.1-0.1 0.1l-0.8 0.3C28.5 287.4 28.1 287.4 28.1 287.7" class="a"/><path d="M58 280c-0.1-0.4-0.5-0.5-0.6-0.5l-1.1-0.4c-0.1 0-0.1-0.1-0.1-0.1 0-0.1-0.1-0.1-0.1-0.2l-0.2-0.9 1.6 0.6c0.1 0 0.2 0.1 0.3 0.2l0 0c0-0.1 0.1-0.2 0.2-0.3l1.2-1.2 0.2 0.9c0 0.1 0 0.1 0 0.2s0 0.1-0.1 0.2l-0.9 0.8C58.3 279.3 58 279.6 58 280" class="a"/><path d="M46 277.6c0-1.1-1.4-1.8-1.5-1.9l-3.3-1.9c-0.2-0.1-0.3-0.2-0.4-0.4 -0.1-0.2-0.1-0.4-0.1-0.6l0-2.8 4.4 2.8c0.3 0.2 0.6 0.5 0.8 0.8L46 273.6c0.2-0.3 0.5-0.6 0.8-0.8l4.3-3 0 2.8c0 0.2 0 0.4-0.1 0.6 -0.1 0.2-0.2 0.3-0.4 0.4l-3.2 2C47.3 275.8 46 276.5 46 277.6" class="a"/><path d="M54.5 293.3c-0.1-1.2 1.2-2 1.3-2.1l3.1-2.3c0.2-0.1 0.3-0.3 0.3-0.5 0.1-0.2 0.1-0.4 0-0.6l-0.3-2.8 -4.2 3.5c-0.3 0.3-0.6 0.6-0.7 0.9l0 0c-0.2-0.3-0.5-0.5-0.9-0.7l-4.8-2.5 0.3 2.9c0 0.2 0.1 0.4 0.2 0.6 0.1 0.2 0.2 0.3 0.4 0.4l3.5 1.6C52.9 291.6 54.4 292.1 54.5 293.3" class="a"/><path d="M74.5 293.6c0.1-0.4 0.6-0.6 0.6-0.6l1.2-0.5c0.1 0 0.1-0.1 0.1-0.1 0-0.1 0.1-0.1 0.1-0.2l0.1-0.9 -1.6 0.8c-0.1 0.1-0.2 0.1-0.3 0.2l0 0c-0.1-0.1-0.1-0.2-0.2-0.3l-1.3-1.2 -0.1 0.9c0 0.1 0 0.1 0 0.2 0 0.1 0 0.1 0.1 0.2l1 0.8C74.2 292.9 74.6 293.2 74.5 293.6" class="a"/><path d="M34.7 267.5c0.3-0.5 1-0.4 1.1-0.4l1.8 0c0.1 0 0.2 0 0.3-0.1 0.1-0.1 0.1-0.1 0.2-0.2l0.7-1.2 -2.6 0.1c-0.2 0-0.4 0.1-0.5 0.1l0 0c0-0.2-0.1-0.4-0.1-0.5l-1.1-2.3 -0.7 1.2c-0.1 0.1-0.1 0.2-0.1 0.3 0 0.1 0 0.2 0 0.3l0.9 1.6C34.6 266.4 35 267 34.7 267.5" class="a"/><path d="M53.4 270c0.6-1.7 2.9-2 3.1-2l5.7-1.2c0.3-0.1 0.5-0.2 0.7-0.4 0.2-0.2 0.3-0.5 0.5-0.8l1.4-4 -7.8 2c-0.6 0.1-1.1 0.4-1.5 0.7l-0.1 0c-0.1-0.5-0.4-1-0.7-1.5l-4.8-6.4 -1.4 4c-0.1 0.3-0.2 0.6-0.2 0.9 0 0.3 0.1 0.5 0.3 0.8l3.7 4.5C52.4 266.7 54 268.3 53.4 270" class="a"/><path d="M104.6 304.1c0.4-2.2-1.8-3.9-2.1-4.2l-5.3-4.9c-0.3-0.3-0.5-0.6-0.5-0.9 -0.1-0.3 0-0.7 0-1.2l1.1-5.2 7.1 7.1c0.5 0.5 0.9 1.1 1.2 1.8l0.1 0c0.5-0.5 1.1-0.9 1.8-1.2l9.3-3.8 -1.1 5.2c-0.1 0.4-0.2 0.8-0.4 1.1 -0.2 0.3-0.5 0.5-0.8 0.6l-6.8 2.4C107.9 301.2 105.1 302 104.6 304.1" class="a"/><path d="M48.1 317.2c0-0.7-0.9-1.1-1-1.2l-2.1-1.1c-0.1-0.1-0.2-0.1-0.2-0.2 0-0.1-0.1-0.2-0.1-0.4l-0.1-1.8 2.9 1.7c0.2 0.1 0.4 0.3 0.5 0.5l0 0c0.1-0.2 0.3-0.4 0.5-0.5l2.7-2 0.1 1.8c0 0.1 0 0.3 0 0.4 0 0.1-0.1 0.2-0.2 0.3l-2 1.4C48.9 316 48.1 316.5 48.1 317.2" class="a"/><path d="M126.4 275.8c-0.5-0.9-1.8-1-2-1l-3.4-0.3c-0.2 0-0.3-0.1-0.5-0.2 -0.1-0.1-0.2-0.3-0.3-0.4l-1.1-2.3 4.7 0.6c0.4 0.1 0.7 0.2 1 0.3l0 0c0-0.3 0.2-0.6 0.3-0.9l2.4-4.1 1.1 2.3c0.1 0.2 0.1 0.4 0.2 0.5 0 0.2 0 0.3-0.1 0.5l-1.9 2.9C126.8 273.8 125.9 274.8 126.4 275.8" class="a"/><path d="M73.7 302.7c-0.8-3.2-5-4.1-5.5-4.3l-10.3-3.1c-0.5-0.2-1-0.5-1.3-0.9 -0.3-0.4-0.5-1-0.7-1.6l-1.9-7.7 14.1 5c1.1 0.4 2 0.9 2.7 1.6l0.1 0c0.3-1 0.9-1.9 1.7-2.7l10.1-11.1 1.9 7.7c0.2 0.6 0.2 1.2 0.1 1.7 -0.1 0.5-0.3 1-0.7 1.4l-7.6 7.7C76.1 296.7 72.9 299.6 73.7 302.7" class="a"/><path d="M125.4 315.2c-1.1-3.2 1.9-6.4 2.2-6.8l7.1-8.6c0.4-0.5 0.6-1 0.6-1.5 0-0.5-0.1-1.1-0.3-1.8l-2.7-7.7 -9.3 12.4c-0.7 0.9-1.2 1.9-1.4 2.9l-0.1 0c-0.8-0.6-1.8-1.1-3-1.4l-15-3.7 2.7 7.7c0.2 0.6 0.5 1.2 0.9 1.6 0.4 0.4 0.8 0.7 1.4 0.8l10.9 2.2C119.8 311.5 124.2 312 125.4 315.2" class="a"/><path d="M181.4 302.6c-0.1-1.1 1.2-1.9 1.3-2l3-2.2c0.2-0.1 0.3-0.3 0.3-0.4s0.1-0.4 0-0.6l-0.2-2.7 -4 3.2c-0.3 0.2-0.5 0.5-0.7 0.8l0 0c-0.2-0.3-0.5-0.5-0.8-0.7l-4.5-2.5 0.2 2.7c0 0.2 0.1 0.4 0.1 0.6 0.1 0.2 0.2 0.3 0.4 0.4l3.3 1.6C179.9 300.9 181.3 301.5 181.4 302.6" class="a"/><path d="M53.2 256.5c0.5-1.5 2.6-1.9 2.8-1.9l5.1-1.2c0.3-0.1 0.5-0.2 0.7-0.4 0.2-0.2 0.3-0.4 0.4-0.8l1.2-3.7 -7 2c-0.5 0.1-1 0.4-1.4 0.7l0 0c-0.1-0.5-0.4-0.9-0.7-1.4l-4.6-5.7 -1.2 3.7c-0.1 0.3-0.1 0.6-0.1 0.8 0 0.3 0.1 0.5 0.3 0.7l3.5 4C52.2 253.5 53.7 255 53.2 256.5" class="a"/><defs><filter filterUnits="userSpaceOnUse" x="9.1" y="218.8" width="46.6" height="35.9"><feColorMatrix type="matrix" values="1 0 0 0 0  0 1 0 0 0  0 0 1 0 0  0 0 0 1 0"/></filter></defs><mask maskUnits="userSpaceOnUse" x="9.1" y="218.8" width="46.6" height="35.9"><g filter="url(#Adobe_OpacityMaskFilter_5_)"><polygon points="9.1 218.8 55.7 218.8 55.7 254.7 9.1 254.7 " class="a"/></g></mask><path mask="url(#mask-6_5_)" d="M29.5 254.7c0.5-5 6.7-7.4 7.4-7.7l15-7c0.8-0.4 1.4-0.9 1.8-1.6 0.4-0.7 0.6-1.6 0.7-2.6l1.3-12.2 -20.4 10.7c-1.5 0.8-2.8 1.8-3.8 3l-0.2 0c-0.7-1.4-1.8-2.6-3.1-3.8l-17.8-14.7 -1.3 12.2c-0.1 1-0.1 1.9 0.2 2.7 0.2 0.8 0.7 1.4 1.4 2l13.2 10C24.5 246.1 30.1 249.7 29.5 254.7" class="a"/></g><g opacity="0.3"><path d="M519.5 431.3c2.1-4.5-1.9-9.6-2.3-10.3l-9.1-13.5c-0.5-0.7-0.7-1.5-0.6-2.3 0-0.8 0.3-1.6 0.7-2.5l5.1-10.9 11.9 19.4c0.9 1.5 1.5 3 1.7 4.5l0.1 0.1c1.3-0.8 2.8-1.3 4.5-1.6l22.4-3.4 -5.1 10.9c-0.4 0.9-0.9 1.6-1.5 2.2 -0.6 0.5-1.3 0.9-2.2 1l-16.2 1.8C528.2 426.6 521.6 426.8 519.5 431.3" class="a"/><path d="M439.4 405.2c0.3-1.6-1.4-3-1.6-3.1l-4.1-3.6c-0.2-0.2-0.3-0.4-0.4-0.7 -0.1-0.3 0-0.6 0-0.9l0.7-4 5.5 5.3c0.4 0.4 0.7 0.8 0.9 1.3l0.1 0c0.4-0.4 0.8-0.7 1.3-0.9l7-3 -0.7 4c-0.1 0.3-0.2 0.6-0.3 0.8 -0.1 0.2-0.3 0.4-0.6 0.5l-5.1 1.9C441.7 403 439.7 403.6 439.4 405.2" class="a"/><path d="M633.1 355.3c-0.5-2.3-3.5-3.1-3.8-3.2l-7.3-2.5c-0.4-0.1-0.7-0.4-0.9-0.7 -0.2-0.3-0.4-0.7-0.5-1.2l-1.2-5.6 10 3.9c0.8 0.3 1.4 0.7 1.9 1.2l0.1 0c0.3-0.7 0.7-1.3 1.2-1.9l7.5-7.7 1.2 5.6c0.1 0.5 0.1 0.9 0.1 1.2 -0.1 0.4-0.2 0.7-0.5 1l-5.6 5.3C635 351.1 632.6 353 633.1 355.3" class="a"/><path d="M555.4 340.1c-0.1-7.4-8.8-11.7-9.8-12.3l-21-12.3c-1.1-0.7-1.9-1.5-2.3-2.6 -0.4-1.1-0.7-2.4-0.7-3.9l-0.2-18 28.4 18.4c2.1 1.4 3.9 3 5.2 4.9l0.2 0c1.3-1.9 3-3.6 5.1-5.1l28-19.1 0.2 18c0 1.5-0.2 2.8-0.6 3.9 -0.4 1.1-1.2 2-2.3 2.7l-20.7 12.8C564 328.1 555.3 332.6 555.4 340.1" class="a"/><path d="M610.1 441.4c-0.8-7.6 7.6-13.1 8.5-13.8l20-15.2c1.1-0.8 1.7-1.8 2.1-3 0.3-1.2 0.4-2.5 0.2-4.1l-2-18.4 -26.9 22.3c-2 1.7-3.6 3.6-4.7 5.7l-0.2 0c-1.5-1.8-3.5-3.4-5.8-4.6l-31-16.1 2 18.4c0.2 1.5 0.5 2.8 1.1 3.9 0.6 1.1 1.5 1.9 2.7 2.5l22.8 10.6C600 430.3 609.3 433.8 610.1 441.4" class="a"/><path d="M700.4 328.2c0.5-7.6 9.8-11.5 10.8-12.1l22.4-11.4c1.2-0.6 2-1.5 2.6-2.6 0.5-1.1 0.8-2.4 0.9-3.9l1.3-18.5 -30.4 17.3c-2.3 1.3-4.2 2.9-5.6 4.8l-0.2 0c-1.2-2.1-2.8-3.9-4.9-5.5l-27.7-21.3 -1.3 18.5c-0.1 1.5 0 2.9 0.4 4 0.4 1.2 1.1 2.1 2.2 2.9l20.6 14.4C692.3 315.5 701 320.6 700.4 328.2" class="a"/><defs><filter filterUnits="userSpaceOnUse" x="729.9" y="424.6" width="23.8" height="18.6"><feColorMatrix type="matrix" values="1 0 0 0 0  0 1 0 0 0  0 0 1 0 0  0 0 0 1 0"/></filter></defs><mask maskUnits="userSpaceOnUse" x="729.9" y="424.6" width="23.8" height="18.6"><g filter="url(#Adobe_OpacityMaskFilter_6_)"><polygon points="729.9 424.6 753.7 424.6 753.7 443.2 729.9 443.2 " class="a"/></g></mask><path mask="url(#SVGID_4_)" d="M739.8 443.2c0.4-2.5 3.6-3.6 3.9-3.7l7.8-3.2c0.4-0.2 0.7-0.4 0.9-0.8 0.2-0.4 0.3-0.8 0.4-1.3l0.9-6.1 -10.6 4.9c-0.8 0.4-1.5 0.9-2 1.4l-0.1 0c-0.3-0.7-0.8-1.4-1.5-2l-8.7-7.8 -0.9 6.1c-0.1 0.5-0.1 1 0 1.4 0.1 0.4 0.3 0.7 0.6 1l6.5 5.4C737.4 438.7 740.1 440.7 739.8 443.2" class="a"/><path d="M482.4 274.6c1.9-3.1 6.6-2.7 7.2-2.7l11.9 0c0.6 0 1.2-0.2 1.6-0.5 0.5-0.3 0.9-0.8 1.3-1.5l4.5-7.5 -16.5 0.7c-1.2 0.1-2.4 0.3-3.4 0.8l-0.1-0.1c-0.1-1.1-0.3-2.3-0.9-3.4l-7-15 -4.5 7.5c-0.4 0.6-0.6 1.2-0.7 1.8 -0.1 0.6 0 1.1 0.3 1.7l5.5 10.5C481.8 267.5 484.3 271.5 482.4 274.6" class="a"/><defs><filter filterUnits="userSpaceOnUse" x="569.7" y="201.9" width="107.3" height="88.9"><feColorMatrix type="matrix" values="1 0 0 0 0  0 1 0 0 0  0 0 1 0 0  0 0 0 1 0"/></filter></defs><mask maskUnits="userSpaceOnUse" x="569.7" y="201.9" width="107.3" height="88.9"><g filter="url(#Adobe_OpacityMaskFilter_7_)"><polygon points="569.7 201.9 677 201.9 677 290.8 569.7 290.8 " class="a"/></g></mask><path mask="url(#SVGID_5_)" d="M603.1 290.8c3.8-10.8 18.6-12.7 20.3-13l36.7-7.5c1.9-0.4 3.5-1.3 4.7-2.7 1.2-1.4 2.2-3.1 2.9-5.3l9.2-26 -50.5 12.7c-3.8 1-7.1 2.5-10 4.6l-0.3-0.1c-0.9-3.5-2.5-6.7-4.9-9.9l-31.3-41.6 -9.2 26c-0.8 2.2-1.1 4.2-1 6 0.1 1.8 0.7 3.5 2 5l23.8 29C596.6 269.3 606.9 280.1 603.1 290.8" class="a"/><path d="M466.2 333.7c6.8-5.2 16.8-0.4 18 0.1l26.1 10.2c1.4 0.5 2.7 0.6 4 0.2 1.3-0.4 2.6-1.1 4-2.1l16.3-12.6 -36.8-12.5c-2.8-0.9-5.5-1.3-8.1-1.1l-0.2-0.2c0.8-2.5 1.2-5.2 1-8.2l-2.7-38.8 -16.3 12.6c-1.4 1-2.4 2.2-3.1 3.3 -0.7 1.2-1 2.5-0.8 4l3.2 27.8C470.8 317.5 472.9 328.5 466.2 333.7" class="a"/><path d="M393.9 385.6c0.6-1.2-0.5-2.5-0.6-2.7l-2.4-3.6c-0.1-0.2-0.2-0.4-0.2-0.6 0-0.2 0.1-0.4 0.2-0.7l1.3-2.9 3.1 5.1c0.2 0.4 0.4 0.8 0.5 1.2l0 0c0.4-0.2 0.8-0.4 1.2-0.4l5.9-0.9 -1.3 2.9c-0.1 0.2-0.2 0.4-0.4 0.6s-0.3 0.2-0.6 0.3l-4.3 0.5C396.2 384.3 394.4 384.4 393.9 385.6" class="a"/><path d="M372.6 378.7c0.1-0.4-0.4-0.8-0.4-0.8l-1.1-1c-0.1-0.1-0.1-0.1-0.1-0.2 0-0.1 0-0.1 0-0.2l0.2-1.1 1.5 1.4c0.1 0.1 0.2 0.2 0.2 0.3l0 0c0.1-0.1 0.2-0.2 0.4-0.2l1.8-0.8 -0.2 1.1c0 0.1 0 0.2-0.1 0.2 0 0.1-0.1 0.1-0.2 0.1l-1.4 0.5C373.3 378.1 372.7 378.2 372.6 378.7" class="a"/><path d="M423.9 365.4c-0.1-0.6-0.9-0.8-1-0.8l-1.9-0.7c-0.1 0-0.2-0.1-0.2-0.2 -0.1-0.1-0.1-0.2-0.1-0.3l-0.3-1.5 2.7 1c0.2 0.1 0.4 0.2 0.5 0.3l0 0c0.1-0.2 0.2-0.3 0.3-0.5l2-2 0.3 1.5c0 0.1 0 0.2 0 0.3 0 0.1-0.1 0.2-0.1 0.3l-1.5 1.4C424.4 364.3 423.8 364.8 423.9 365.4" class="a"/><path d="M403.4 361.4c0-2-2.3-3.1-2.6-3.3l-5.6-3.3c-0.3-0.2-0.5-0.4-0.6-0.7 -0.1-0.3-0.2-0.6-0.2-1l-0.1-4.8 7.5 4.9c0.6 0.4 1 0.8 1.4 1.3l0.1 0c0.3-0.5 0.8-1 1.3-1.3l7.4-5.1 0.1 4.8c0 0.4 0 0.7-0.2 1 -0.1 0.3-0.3 0.5-0.6 0.7l-5.5 3.4C405.6 358.2 403.4 359.4 403.4 361.4" class="a"/><path d="M417.9 388.2c-0.2-2 2-3.5 2.3-3.6l5.3-4c0.3-0.2 0.5-0.5 0.5-0.8 0.1-0.3 0.1-0.7 0.1-1.1l-0.5-4.9 -7.1 5.9c-0.5 0.4-0.9 0.9-1.2 1.5l-0.1 0c-0.4-0.5-0.9-0.9-1.5-1.2l-8.2-4.3 0.5 4.9c0 0.4 0.1 0.8 0.3 1 0.2 0.3 0.4 0.5 0.7 0.7l6 2.8C415.2 385.3 417.6 386.2 417.9 388.2" class="a"/><path d="M452.2 388.7c0.1-0.7 0.9-0.9 1-1l2.1-0.9c0.1 0 0.2-0.1 0.2-0.2 0.1-0.1 0.1-0.2 0.1-0.3l0.2-1.6 -2.8 1.3c-0.2 0.1-0.4 0.2-0.5 0.4l0 0c-0.1-0.2-0.2-0.4-0.4-0.5l-2.3-2.1 -0.2 1.6c0 0.1 0 0.3 0 0.4 0 0.1 0.1 0.2 0.2 0.3l1.7 1.4C451.6 387.5 452.3 388 452.2 388.7" class="a"/><path d="M384 344.1c0.5-0.8 1.8-0.7 1.9-0.7l3.2 0c0.2 0 0.3 0 0.4-0.1 0.1-0.1 0.2-0.2 0.3-0.4l1.2-2 -4.4 0.2c-0.3 0-0.6 0.1-0.9 0.2l0 0c0-0.3-0.1-0.6-0.2-0.9l-1.9-4 -1.2 2c-0.1 0.2-0.2 0.3-0.2 0.5 0 0.2 0 0.3 0.1 0.4l1.5 2.8C383.9 342.2 384.5 343.2 384 344.1" class="a"/><path d="M416 348.4c1-2.9 4.9-3.4 5.4-3.5l9.7-2c0.5-0.1 0.9-0.3 1.2-0.7 0.3-0.4 0.6-0.8 0.8-1.4l2.4-6.9 -13.4 3.4c-1 0.3-1.9 0.7-2.6 1.2l-0.1 0c-0.2-0.9-0.7-1.8-1.3-2.6l-8.3-11 -2.4 6.9c-0.2 0.6-0.3 1.1-0.3 1.6 0 0.5 0.2 0.9 0.5 1.3l6.3 7.7C414.3 342.6 417 345.5 416 348.4" class="a"/><path d="M503.7 406.8c0.8-3.7-3.1-6.8-3.5-7.2l-9.1-8.4c-0.5-0.5-0.8-1-0.9-1.6 -0.1-0.6-0.1-1.3 0.1-2l1.8-9 12.2 12.2c0.9 0.9 1.6 1.9 2 3l0.1 0c0.8-0.8 1.9-1.5 3.1-2l15.9-6.5 -1.8 9c-0.2 0.7-0.4 1.4-0.7 1.9 -0.3 0.5-0.8 0.9-1.4 1.1l-11.7 4.2C509.3 401.8 504.5 403.1 503.7 406.8" class="a"/><path d="M406.9 429.2c-0.1-1.3-1.6-1.9-1.8-2l-3.7-1.9c-0.2-0.1-0.3-0.2-0.4-0.4 -0.1-0.2-0.1-0.4-0.1-0.7l-0.2-3.1 5 2.9c0.4 0.2 0.7 0.5 0.9 0.8l0 0c0.2-0.3 0.5-0.6 0.8-0.9l4.6-3.5 0.2 3.1c0 0.3 0 0.5-0.1 0.7 -0.1 0.2-0.2 0.3-0.4 0.5l-3.4 2.3C408.3 427.1 406.9 428 406.9 429.2" class="a"/><path d="M541 358.2c-0.8-1.6-3.1-1.6-3.4-1.7l-5.8-0.5c-0.3 0-0.6-0.1-0.8-0.3 -0.2-0.2-0.4-0.4-0.5-0.8l-1.9-3.9 8.1 1.1c0.6 0.1 1.2 0.3 1.6 0.5l0.1 0c0.1-0.6 0.3-1.1 0.6-1.6l4.1-7 1.9 3.9c0.2 0.3 0.2 0.6 0.3 0.9 0 0.3-0.1 0.6-0.2 0.8l-3.2 4.9C541.6 354.8 540.2 356.6 541 358.2" class="a"/><path d="M450.8 404.4c-1.4-5.5-8.6-7.1-9.4-7.3l-17.7-5.4c-0.9-0.3-1.7-0.8-2.2-1.5 -0.5-0.7-0.9-1.6-1.2-2.7l-3.3-13.2 24.2 8.5c1.8 0.6 3.4 1.6 4.7 2.7l0.2 0c0.6-1.7 1.5-3.2 2.8-4.6l17.3-19 3.3 13.2c0.3 1.1 0.4 2.1 0.2 3 -0.1 0.9-0.5 1.7-1.2 2.4l-13 13.1C454.9 394.1 449.4 398.9 450.8 404.4" class="a"/><path d="M539.2 425.8c-1.9-5.5 3.3-11 3.8-11.7l12.1-14.7c0.6-0.8 1-1.6 1-2.6 0-0.9-0.1-1.9-0.5-3l-4.7-13.2 -15.9 21.2c-1.2 1.6-2 3.3-2.5 5l-0.2 0.1c-1.5-1.1-3.1-1.9-5.1-2.3l-25.7-6.4 4.7 13.2c0.4 1.1 0.9 2 1.5 2.7 0.6 0.7 1.4 1.1 2.4 1.4l18.7 3.8C529.8 419.3 537.3 420.3 539.2 425.8" class="a"/><path d="M635.1 404.2c-0.2-1.9 2-3.3 2.2-3.4l5.2-3.7c0.3-0.2 0.5-0.5 0.5-0.7 0.1-0.3 0.1-0.6 0.1-1l-0.4-4.7 -6.9 5.5c-0.5 0.4-0.9 0.9-1.2 1.4l-0.1 0c-0.4-0.5-0.9-0.9-1.4-1.2l-7.8-4.2 0.4 4.7c0 0.4 0.1 0.7 0.3 1 0.1 0.3 0.4 0.5 0.7 0.6l5.7 2.8C632.6 401.3 635 402.3 635.1 404.2" class="a"/><path d="M415.7 325.3c0.8-2.6 4.4-3.2 4.8-3.3l8.8-2.1c0.5-0.1 0.8-0.3 1.1-0.7s0.5-0.8 0.7-1.3l2-6.3 -12.1 3.4c-0.9 0.3-1.7 0.7-2.4 1.2l-0.1 0c-0.2-0.8-0.6-1.6-1.2-2.3l-7.8-9.8 -2 6.3c-0.2 0.5-0.2 1-0.2 1.4 0 0.4 0.2 0.8 0.5 1.2l5.9 6.8C413.9 320.1 416.5 322.7 415.7 325.3" class="a"/><path d="M375.1 322.1c0.9-8.6 11.5-12.6 12.7-13.2l25.7-12c1.4-0.7 2.4-1.6 3-2.8 0.6-1.2 1.1-2.7 1.2-4.4l2.2-20.8 -35 18.3c-2.6 1.4-4.8 3.1-6.5 5.2l-0.3 0c-1.3-2.4-3-4.5-5.3-6.4l-30.4-25.2 -2.2 20.8c-0.2 1.7-0.1 3.3 0.3 4.6 0.4 1.3 1.2 2.4 2.3 3.4l22.7 17.1C366.5 307.4 376 313.5 375.1 322.1" class="a"/><path d="M404.7 487c1.1-2.4-1-5.2-1.3-5.5l-4.9-7.3c-0.3-0.4-0.4-0.8-0.3-1.2 0-0.4 0.1-0.9 0.4-1.4l2.7-5.9 6.4 10.4c0.5 0.8 0.8 1.6 0.9 2.4l0.1 0c0.7-0.4 1.5-0.7 2.4-0.9l12-1.8 -2.7 5.9c-0.2 0.5-0.5 0.9-0.8 1.2 -0.3 0.3-0.7 0.5-1.2 0.5l-8.7 0.9C409.3 484.4 405.8 484.5 404.7 487" class="a"/><path d="M361.7 473c0.2-0.9-0.8-1.6-0.9-1.7l-2.2-1.9c-0.1-0.1-0.2-0.2-0.2-0.4 0-0.1 0-0.3 0-0.5l0.4-2.1 2.9 2.8c0.2 0.2 0.4 0.4 0.5 0.7l0 0c0.2-0.2 0.4-0.4 0.7-0.5l3.7-1.6 -0.4 2.1c0 0.2-0.1 0.3-0.2 0.4s-0.2 0.2-0.3 0.3l-2.7 1C362.9 471.8 361.8 472.1 361.7 473" class="a"/><path d="M465.6 446.2c-0.3-1.2-1.9-1.6-2.1-1.7l-3.9-1.3c-0.2-0.1-0.4-0.2-0.5-0.4 -0.1-0.2-0.2-0.4-0.3-0.6l-0.7-3 5.4 2.1c0.4 0.2 0.8 0.4 1 0.6l0 0c0.1-0.4 0.4-0.7 0.7-1l4-4.1 0.7 3c0.1 0.2 0.1 0.5 0 0.7 0 0.2-0.1 0.4-0.3 0.5l-3 2.9C466.6 444 465.3 445 465.6 446.2" class="a"/><path d="M423.9 438c0-4-4.7-6.3-5.2-6.6l-11.3-6.6c-0.6-0.4-1-0.8-1.3-1.4 -0.2-0.6-0.4-1.3-0.4-2.1l-0.1-9.6 15.3 9.9c1.1 0.7 2.1 1.6 2.8 2.6l0.1 0c0.7-1 1.6-1.9 2.7-2.7l15-10.2 0.1 9.6c0 0.8-0.1 1.5-0.3 2.1 -0.2 0.6-0.6 1.1-1.2 1.4l-11.1 6.9C428.5 431.6 423.9 434.1 423.9 438" class="a"/><path d="M453.2 492.4c-0.4-4.1 4.1-7 4.6-7.4l10.7-8.1c0.6-0.4 0.9-1 1.1-1.6 0.2-0.6 0.2-1.3 0.1-2.2l-1.1-9.9 -14.4 12c-1.1 0.9-1.9 1.9-2.5 3.1l-0.1 0c-0.8-1-1.9-1.8-3.1-2.4l-16.6-8.6 1.1 9.9c0.1 0.8 0.3 1.5 0.6 2.1 0.3 0.6 0.8 1 1.4 1.3l12.2 5.7C447.8 486.4 452.8 488.3 453.2 492.4" class="a"/><path d="M522.8 493.4c0.2-1.4 1.9-1.9 2.1-2l4.2-1.7c0.2-0.1 0.4-0.2 0.5-0.4 0.1-0.2 0.2-0.4 0.2-0.7l0.5-3.3 -5.7 2.7c-0.4 0.2-0.8 0.5-1.1 0.8l0 0c-0.2-0.4-0.4-0.7-0.8-1.1L518 483.4l-0.5 3.3c0 0.3 0 0.5 0 0.7 0.1 0.2 0.2 0.4 0.3 0.6l3.5 2.9C521.5 491 523 492 522.8 493.4" class="a"/><path d="M384.8 402.9c1-1.7 3.5-1.5 3.8-1.5l6.4 0c0.3 0 0.6-0.1 0.9-0.3 0.2-0.2 0.5-0.4 0.7-0.8l2.4-4 -8.9 0.4c-0.7 0-1.3 0.2-1.8 0.4l-0.1 0c0-0.6-0.2-1.2-0.5-1.8l-3.8-8 -2.4 4c-0.2 0.3-0.3 0.7-0.4 1 0 0.3 0 0.6 0.2 0.9l3 5.6C384.4 399.1 385.8 401.3 384.8 402.9" class="a"/><path d="M449.5 411.6c2-5.8 10-6.8 10.9-7l19.7-4c1-0.2 1.9-0.7 2.5-1.4 0.6-0.7 1.2-1.7 1.6-2.8l4.9-14 -27.1 6.8c-2 0.5-3.8 1.3-5.4 2.5l-0.2-0.1c-0.5-1.9-1.3-3.6-2.6-5.3l-16.8-22.3 -4.9 14c-0.4 1.2-0.6 2.2-0.6 3.2 0 1 0.4 1.9 1.1 2.7l12.8 15.5C446 400.1 451.5 405.9 449.5 411.6" class="a"/><path d="M337.3 462.4c0.3-0.6-0.3-1.4-0.3-1.5l-1.3-1.9c-0.1-0.1-0.1-0.2-0.1-0.3 0-0.1 0-0.2 0.1-0.4l0.7-1.6 1.7 2.7c0.1 0.2 0.2 0.4 0.2 0.6l0 0c0.2-0.1 0.4-0.2 0.6-0.2l3.2-0.5 -0.7 1.6c-0.1 0.1-0.1 0.2-0.2 0.3 -0.1 0.1-0.2 0.1-0.3 0.1l-2.3 0.2C338.5 461.8 337.6 461.8 337.3 462.4" class="a"/><path d="M325.9 458.7c0-0.2-0.2-0.4-0.2-0.4l-0.6-0.5c0 0 0-0.1-0.1-0.1 0 0 0-0.1 0-0.1l0.1-0.6 0.8 0.7c0.1 0.1 0.1 0.1 0.1 0.2l0 0c0.1-0.1 0.1-0.1 0.2-0.1l1-0.4 -0.1 0.6c0 0 0 0.1 0 0.1 0 0 0 0.1-0.1 0.1l-0.7 0.3C326.2 458.4 325.9 458.5 325.9 458.7" class="a"/><path d="M353.4 451.7c-0.1-0.3-0.5-0.4-0.5-0.5l-1-0.4c-0.1 0-0.1 0-0.1-0.1 0 0-0.1-0.1-0.1-0.2l-0.2-0.8 1.4 0.6c0.1 0 0.2 0.1 0.3 0.2l0 0c0-0.1 0.1-0.2 0.2-0.3l1.1-1.1 0.2 0.8c0 0.1 0 0.1 0 0.2 0 0.1 0 0.1-0.1 0.1l-0.8 0.8C353.7 451 353.3 451.3 353.4 451.7" class="a"/><path d="M342.4 449.5c0-1.1-1.3-1.7-1.4-1.7l-3-1.8c-0.2-0.1-0.3-0.2-0.3-0.4 -0.1-0.2-0.1-0.3-0.1-0.6l0-2.6 4 2.6c0.3 0.2 0.5 0.4 0.7 0.7h0c0.2-0.3 0.4-0.5 0.7-0.7l4-2.7 0 2.6c0 0.2 0 0.4-0.1 0.6 -0.1 0.2-0.2 0.3-0.3 0.4l-2.9 1.8C343.6 447.8 342.4 448.4 342.4 449.5" class="a"/><path d="M350.1 463.9c-0.1-1.1 1.1-1.9 1.2-2l2.8-2.2c0.2-0.1 0.2-0.3 0.3-0.4 0-0.2 0.1-0.4 0-0.6l-0.3-2.6 -3.8 3.2c-0.3 0.2-0.5 0.5-0.7 0.8l0 0c-0.2-0.3-0.5-0.5-0.8-0.6l-4.4-2.3 0.3 2.6c0 0.2 0.1 0.4 0.2 0.6 0.1 0.2 0.2 0.3 0.4 0.4l3.2 1.5C348.7 462.3 350 462.8 350.1 463.9" class="a"/><path d="M368.5 464.1c0.1-0.4 0.5-0.5 0.6-0.5l1.1-0.5c0.1 0 0.1-0.1 0.1-0.1s0-0.1 0.1-0.2l0.1-0.9 -1.5 0.7c-0.1 0.1-0.2 0.1-0.3 0.2l0 0c0-0.1-0.1-0.2-0.2-0.3l-1.2-1.1 -0.1 0.9c0 0.1 0 0.1 0 0.2 0 0.1 0 0.1 0.1 0.1l0.9 0.8C368.2 463.5 368.6 463.8 368.5 464.1" class="a"/><path d="M332 440.2c0.3-0.4 0.9-0.4 1-0.4l1.7 0c0.1 0 0.2 0 0.2-0.1s0.1-0.1 0.2-0.2l0.6-1.1 -2.3 0.1c-0.2 0-0.3 0-0.5 0.1l0 0c0-0.2 0-0.3-0.1-0.5l-1-2.1 -0.6 1.1c-0.1 0.1-0.1 0.2-0.1 0.3 0 0.1 0 0.2 0 0.2l0.8 1.5C331.9 439.2 332.3 439.7 332 440.2" class="a"/><path d="M349.1 442.5c0.5-1.5 2.6-1.8 2.9-1.9l5.2-1.1c0.3-0.1 0.5-0.2 0.7-0.4 0.2-0.2 0.3-0.4 0.4-0.8l1.3-3.7 -7.2 1.8c-0.5 0.1-1 0.4-1.4 0.7l0 0c-0.1-0.5-0.4-1-0.7-1.4l-4.4-5.9 -1.3 3.7c-0.1 0.3-0.2 0.6-0.1 0.8 0 0.3 0.1 0.5 0.3 0.7l3.4 4.1C348.2 439.4 349.7 441 349.1 442.5" class="a"/><path d="M396.2 473.8c0.4-2-1.7-3.6-1.9-3.8l-4.9-4.5c-0.3-0.2-0.4-0.5-0.5-0.8 -0.1-0.3 0-0.7 0-1.1l1-4.8 6.5 6.5c0.5 0.5 0.9 1 1.1 1.6l0.1 0c0.4-0.4 1-0.8 1.6-1.1l8.6-3.5 -1 4.8c-0.1 0.4-0.2 0.7-0.4 1 -0.2 0.3-0.4 0.5-0.8 0.6l-6.3 2.2C399.1 471.1 396.6 471.8 396.2 473.8" class="a"/><path d="M344.3 485.9c0-0.7-0.8-1-0.9-1.1l-2-1c-0.1-0.1-0.2-0.1-0.2-0.2 0-0.1-0.1-0.2-0.1-0.4l-0.1-1.6 2.7 1.6c0.2 0.1 0.4 0.3 0.5 0.4l0 0c0.1-0.2 0.3-0.3 0.4-0.5l2.5-1.9 0.1 1.6c0 0.1 0 0.3 0 0.4 0 0.1-0.1 0.2-0.2 0.3l-1.8 1.3C345 484.7 344.2 485.2 344.3 485.9" class="a"/><path d="M416.2 447.8c-0.4-0.9-1.7-0.9-1.8-0.9l-3.1-0.3c-0.2 0-0.3-0.1-0.4-0.2 -0.1-0.1-0.2-0.2-0.3-0.4l-1-2.1 4.3 0.6c0.3 0 0.6 0.1 0.9 0.3l0 0c0-0.3 0.1-0.6 0.3-0.9l2.2-3.8 1 2.1c0.1 0.2 0.1 0.3 0.1 0.5 0 0.2 0 0.3-0.1 0.4l-1.7 2.6C416.5 445.9 415.7 446.9 416.2 447.8" class="a"/><path d="M367.8 472.5c-0.7-2.9-4.6-3.8-5-3.9l-9.5-2.9c-0.5-0.2-0.9-0.4-1.2-0.8 -0.3-0.4-0.5-0.9-0.6-1.5l-1.8-7.1 13 4.6c1 0.3 1.8 0.8 2.5 1.5l0.1 0c0.3-0.9 0.8-1.7 1.5-2.5l9.3-10.2 1.8 7.1c0.1 0.6 0.2 1.1 0.1 1.6 -0.1 0.5-0.3 0.9-0.6 1.3l-7 7C370 467 367 469.6 367.8 472.5" class="a"/><path d="M415.2 484c-1-2.9 1.8-5.9 2.1-6.2l6.5-7.9c0.3-0.4 0.5-0.9 0.5-1.4 0-0.5-0.1-1-0.3-1.6l-2.5-7.1 -8.5 11.4c-0.6 0.9-1.1 1.8-1.3 2.7l-0.1 0c-0.8-0.6-1.7-1-2.7-1.3l-13.8-3.4 2.5 7.1c0.2 0.6 0.5 1.1 0.8 1.4 0.3 0.4 0.8 0.6 1.3 0.7l10 2C410.1 480.5 414.2 481.1 415.2 484" class="a"/><path d="M466.7 472.4c-0.1-1 1.1-1.8 1.2-1.9l2.8-2c0.1-0.1 0.2-0.2 0.3-0.4 0-0.2 0.1-0.3 0-0.5l-0.2-2.5 -3.7 3c-0.3 0.2-0.5 0.5-0.7 0.8l0 0c-0.2-0.3-0.5-0.5-0.8-0.6l-4.2-2.3 0.2 2.5c0 0.2 0.1 0.4 0.1 0.5 0.1 0.1 0.2 0.3 0.4 0.3l3.1 1.5C465.3 470.9 466.6 471.4 466.7 472.4" class="a"/><path d="M349 430.1c0.4-1.4 2.4-1.7 2.6-1.8l4.7-1.1c0.3-0.1 0.4-0.2 0.6-0.4 0.1-0.2 0.3-0.4 0.4-0.7l1.1-3.4 -6.5 1.8c-0.5 0.1-0.9 0.4-1.3 0.6l0 0c-0.1-0.4-0.3-0.9-0.7-1.3l-4.2-5.3 -1.1 3.4c-0.1 0.3-0.1 0.5-0.1 0.8s0.1 0.4 0.3 0.6l3.2 3.6C348 427.4 349.4 428.7 349 430.1" class="a"/><defs><filter filterUnits="userSpaceOnUse" x="308.4" y="395.5" width="42.8" height="33"><feColorMatrix type="matrix" values="1 0 0 0 0  0 1 0 0 0  0 0 1 0 0  0 0 0 1 0"/></filter></defs><mask maskUnits="userSpaceOnUse" x="308.4" y="395.5" width="42.8" height="33"><g filter="url(#Adobe_OpacityMaskFilter_8_)"><polygon points="308.4 395.5 351.3 395.5 351.3 428.4 308.4 428.4 " class="a"/></g></mask><path mask="url(#SVGID_6_)" d="M327.2 428.4c0.5-4.6 6.2-6.8 6.8-7.1l13.8-6.4c0.7-0.4 1.3-0.9 1.6-1.5 0.3-0.6 0.6-1.4 0.7-2.4l1.2-11.2 -18.8 9.8c-1.4 0.7-2.6 1.7-3.5 2.8l-0.1 0c-0.7-1.3-1.6-2.4-2.9-3.4l-16.3-13.5 -1.2 11.2c-0.1 0.9 0 1.8 0.2 2.5 0.2 0.7 0.6 1.3 1.3 1.8l12.2 9.2C322.6 420.5 327.7 423.8 327.2 428.4" class="a"/></g></svg>
